<svg width="18" height="19" viewBox="0 0 18 19" fill="none" xmlns="http://www.w3.org/2000/svg">
<path d="M6.96749 11.9124L9.87749 9.00243L6.96749 6.09243C6.89805 6.023 6.84297 5.94056 6.80539 5.84984C6.76782 5.75912 6.74847 5.66188 6.74847 5.56368C6.74847 5.46549 6.76782 5.36825 6.80539 5.27753C6.84297 5.1868 6.89805 5.10437 6.96749 5.03493C7.03693 4.9655 7.11936 4.91042 7.21008 4.87284C7.30081 4.83526 7.39804 4.81592 7.49624 4.81592C7.59444 4.81592 7.69167 4.83526 7.7824 4.87284C7.87312 4.91042 7.95555 4.9655 8.02499 5.03493L11.4675 8.47743C11.76 8.76993 11.76 9.24243 11.4675 9.53493L8.02499 12.9774C7.9556 13.047 7.87319 13.1021 7.78246 13.1398C7.69173 13.1774 7.59447 13.1968 7.49624 13.1968C7.39801 13.1968 7.30075 13.1774 7.21002 13.1398C7.11929 13.1021 7.03687 13.047 6.96749 12.9774C6.68249 12.6849 6.67499 12.2049 6.96749 11.9124Z" fill="#E6682E"/>
</svg>
