<svg width="378" height="378" viewBox="0 0 378 378" fill="none" xmlns="http://www.w3.org/2000/svg">
<path d="M58.7487 273.12C65.1411 273.12 70.3231 267.938 70.3231 261.546C70.3231 255.154 65.1411 249.972 58.7487 249.972C52.3564 249.972 47.1744 255.154 47.1744 261.546C47.1744 267.938 52.3564 273.12 58.7487 273.12Z" fill="#E0E0E0"/>
<path d="M89.5128 269.538C94.0329 265.018 94.0329 257.69 89.5128 253.17C84.9928 248.65 77.6643 248.65 73.1442 253.17C68.6241 257.69 68.6241 265.018 73.1442 269.538C77.6643 274.058 84.9928 274.058 89.5128 269.538Z" fill="#EBEBEB"/>
<path d="M44.355 269.54C48.8751 265.02 48.8751 257.692 44.355 253.172C39.8349 248.652 32.5064 248.652 27.9864 253.172C23.4663 257.692 23.4663 265.02 27.9864 269.54C32.5064 274.06 39.8349 274.06 44.355 269.54Z" fill="#EBEBEB"/>
<path d="M20.79 263.844H96.39C96.39 263.844 95.634 295.014 75.3203 298.824L74.9952 305.424H40.9752V298.688C40.9752 298.688 20.79 293.547 20.79 263.844Z" fill="#E0E0E0"/>
<path d="M75.3127 298.824C75.3127 298.938 67.594 299.021 58.0759 299.021C48.5579 299.021 40.8391 298.938 40.8391 298.824C40.8391 298.711 48.5579 298.628 58.0759 298.628C67.594 298.628 75.3127 298.718 75.3127 298.824Z" fill="white"/>
<path d="M93.4567 279.902C93.4567 279.902 93.2904 279.902 92.9729 279.962L91.544 280.083C89.7114 280.262 87.8625 280.172 86.0555 279.818C84.7445 279.553 83.4922 279.054 82.3586 278.344C81.0011 277.489 79.9155 276.264 79.2288 274.814C78.8661 273.993 78.6856 273.103 78.6996 272.206C78.7318 271.241 79.0648 270.31 79.6522 269.544C79.9664 269.142 80.3702 268.818 80.8315 268.599C81.3083 268.398 81.8303 268.327 82.3435 268.395C82.8765 268.5 83.3799 268.721 83.8177 269.042C84.2555 269.364 84.6169 269.778 84.8761 270.255C85.3985 271.265 85.5536 272.425 85.3146 273.536C85.0812 274.675 84.6405 275.762 84.0143 276.742C82.6793 278.825 80.7023 280.417 78.3821 281.278C75.8966 282.199 73.1604 282.183 70.686 281.232C69.3962 280.739 68.2074 280.013 67.1782 279.093C66.078 278.173 65.2538 276.967 64.7968 275.608C64.5853 274.889 64.5853 274.126 64.7968 273.408C65.0093 272.66 65.5095 272.026 66.1878 271.646C66.8976 271.331 67.6901 271.254 68.4474 271.425C69.2048 271.597 69.8865 272.008 70.3912 272.599C71.3713 273.786 71.9835 275.234 72.1526 276.764C72.3871 278.294 72.341 279.855 72.0166 281.368C71.3752 284.505 69.642 287.312 67.1252 289.291C65.8343 290.281 64.3591 291.003 62.7858 291.415C61.1878 291.814 59.5313 291.925 57.8945 291.741C54.6082 291.412 51.5714 289.841 49.4046 287.348C48.3449 286.125 47.6276 284.644 47.3256 283.054C47.0364 281.462 47.3839 279.819 48.2933 278.48C48.7142 277.804 49.3014 277.247 49.9988 276.861C50.6963 276.476 51.4807 276.276 52.2774 276.28C53.0614 276.324 53.8195 276.576 54.4735 277.01C55.1274 277.445 55.6533 278.046 55.9969 278.752C56.3153 279.466 56.3689 280.271 56.1481 281.02C55.9248 281.752 55.5128 282.412 54.9536 282.933C53.8669 283.917 52.548 284.609 51.1207 284.944C48.5021 285.662 45.7426 285.691 43.1095 285.029C40.4763 284.366 38.0589 283.035 36.0914 281.164C35.19 280.283 34.4931 279.214 34.0502 278.034C33.6261 276.884 33.555 275.634 33.8461 274.443C34.1042 273.282 34.7626 272.249 35.7059 271.525C36.6355 270.866 37.7852 270.595 38.9113 270.769C39.9902 270.903 40.9773 271.444 41.6707 272.281C42.3166 273.078 42.676 274.068 42.6913 275.093C42.6951 276.06 42.3847 277.002 41.8068 277.777C41.2695 278.492 40.5932 279.092 39.8185 279.539C38.4359 280.324 36.9422 280.895 35.3884 281.232C34.0974 281.541 32.7863 281.758 31.4647 281.882C29.6348 282.068 27.7909 282.068 25.961 281.882C24.7136 281.739 24.0635 281.595 24.0635 281.595C24.0635 281.595 24.2298 281.595 24.5549 281.648C24.88 281.701 25.3487 281.746 25.9686 281.799C27.7926 281.961 29.6279 281.948 31.4496 281.761C32.7612 281.622 34.0619 281.395 35.343 281.081C36.8741 280.747 38.3451 280.181 39.7051 279.403C40.4535 278.968 41.1066 278.387 41.6254 277.694C42.1679 276.959 42.457 276.068 42.4494 275.154C42.4279 274.186 42.0848 273.252 41.4742 272.5C40.8194 271.719 39.893 271.213 38.8811 271.087C37.8132 270.937 36.7289 271.208 35.8571 271.843C34.9785 272.531 34.3665 273.504 34.1258 274.594C33.8499 275.728 33.921 276.919 34.33 278.012C34.7605 279.151 35.4338 280.183 36.3031 281.036C38.2377 282.852 40.607 284.141 43.1834 284.778C45.7598 285.415 48.4567 285.378 51.0149 284.672C52.3801 284.349 53.6415 283.686 54.6815 282.744C55.1927 282.267 55.5706 281.665 55.7777 280.998C55.9733 280.327 55.9223 279.608 55.634 278.972C55.3247 278.325 54.8471 277.773 54.2512 277.374C53.6554 276.975 52.9632 276.743 52.2472 276.704C51.5223 276.675 50.8047 276.859 50.1833 277.233C49.546 277.61 49.003 278.127 48.5957 278.745C47.7442 280.003 47.4211 281.545 47.696 283.039C47.9907 284.558 48.6789 285.974 49.6919 287.144C51.7945 289.559 54.7388 291.081 57.9247 291.4C59.5136 291.576 61.121 291.468 62.6724 291.083C64.1955 290.678 65.6238 289.976 66.8758 289.019C69.3462 287.078 71.0388 284.315 71.6461 281.232C71.9628 279.763 72.0089 278.249 71.7822 276.764C71.6207 275.31 71.0462 273.933 70.1266 272.795C69.6762 272.26 69.0648 271.884 68.3835 271.725C67.7023 271.565 66.9877 271.631 66.3466 271.911C65.7606 272.236 65.3262 272.78 65.137 273.423C64.9441 274.074 64.9441 274.767 65.137 275.419C65.5784 276.712 66.3622 277.861 67.405 278.745C68.4061 279.633 69.5583 280.335 70.807 280.816C73.2056 281.762 75.8669 281.8 78.2914 280.922C80.5485 280.084 82.4739 278.538 83.7799 276.515C84.3911 275.572 84.8218 274.523 85.05 273.423C85.2793 272.377 85.1404 271.285 84.6569 270.331C84.4204 269.888 84.089 269.504 83.6865 269.204C83.2839 268.905 82.8202 268.698 82.3284 268.599C81.8551 268.527 81.3709 268.587 80.9298 268.773C80.5067 268.975 80.1346 269.27 79.8412 269.635C79.2793 270.357 78.9592 271.238 78.9264 272.153C78.9056 273.015 79.0733 273.872 79.4178 274.663C80.0773 276.08 81.126 277.281 82.4418 278.125C83.5481 278.848 84.7783 279.36 86.0706 279.637C87.8627 280.005 89.6975 280.119 91.5214 279.977L92.9426 279.894C93.2904 279.902 93.4567 279.902 93.4567 279.902Z" fill="white"/>
<path d="M320.861 130.425C320.567 131.416 315.532 139.354 308.267 142.053C301.001 144.751 295.604 147.738 297.622 151.291C299.641 154.844 308.561 152.909 308.561 152.909C308.561 152.909 290.455 172.565 307.503 183.837C328.285 197.558 350.028 148.463 350.028 148.463L320.861 130.425Z" fill="#EBEBEB"/>
<path d="M346.581 155.199C346.528 155.29 339.678 151.208 331.279 146.082C322.88 140.956 316.121 136.715 316.159 136.625C316.197 136.534 323.069 140.616 331.461 145.742C339.852 150.868 346.641 155.109 346.581 155.199Z" fill="#E0E0E0"/>
<path d="M343.368 161.089C343.307 161.179 335.906 156.832 326.834 151.389C317.762 145.946 310.451 141.44 310.504 141.35C310.557 141.259 317.966 145.598 327.038 151.049C336.11 156.5 343.421 161.028 343.368 161.089Z" fill="#E0E0E0"/>
<path d="M339.482 166.668C339.429 166.759 331.113 161.867 320.922 155.744C310.731 149.62 302.506 144.578 302.559 144.487C302.612 144.396 310.928 149.28 321.126 155.403C331.325 161.527 339.535 166.57 339.482 166.668Z" fill="#E0E0E0"/>
<path d="M334.636 173.57C334.575 173.661 328.134 169.73 320.272 164.793C312.409 159.856 306.036 155.782 306.097 155.721C306.157 155.661 312.591 159.562 320.461 164.498C328.331 169.435 334.689 173.48 334.636 173.57Z" fill="#E0E0E0"/>
<path d="M328.936 180.231C328.875 180.321 322.888 176.451 315.539 171.59C308.191 166.728 302.302 162.707 302.4 162.616C302.498 162.525 308.448 166.396 315.796 171.264C323.145 176.133 328.996 180.14 328.936 180.231Z" fill="#E0E0E0"/>
<path d="M321.663 184.857C321.347 184.747 321.043 184.605 320.756 184.434C320.181 184.132 319.365 183.678 318.359 183.119C316.348 181.992 313.611 180.367 310.648 178.469C307.684 176.572 305.061 174.757 303.194 173.404C302.264 172.724 301.515 172.164 301.009 171.771C300.734 171.583 300.48 171.365 300.253 171.121C300.554 171.266 300.84 171.441 301.107 171.642L303.375 173.154C305.28 174.447 307.911 176.224 310.882 178.121C313.853 180.019 316.552 181.675 318.525 182.869L320.854 184.283C321.141 184.449 321.412 184.641 321.663 184.857Z" fill="#E0E0E0"/>
<path d="M304.615 153.362C303.177 152.993 301.817 152.368 300.601 151.518C299.315 150.777 298.175 149.809 297.237 148.66C297.312 148.569 298.749 149.9 300.812 151.185C302.876 152.47 304.668 153.249 304.615 153.362Z" fill="#E0E0E0"/>
<path d="M348.652 147.42C348.588 147.575 348.501 147.721 348.395 147.851L347.586 149.023C346.883 150.043 345.84 151.503 344.562 153.287C341.954 156.87 338.272 161.761 334.069 167.053C329.865 172.345 325.927 177.04 323.031 180.397C321.587 182.075 320.4 183.421 319.569 184.336C319.176 184.767 318.858 185.092 318.609 185.386C318.503 185.517 318.384 185.636 318.253 185.742C318.337 185.598 318.436 185.464 318.548 185.341L319.455 184.237L322.812 180.231C325.655 176.836 329.548 172.111 333.751 166.827C337.955 161.542 341.667 156.674 344.335 153.136L347.495 148.947L348.357 147.821C348.445 147.68 348.543 147.546 348.652 147.42Z" fill="#E0E0E0"/>
<path d="M342.763 143.239C342.846 143.307 335.626 152.727 326.637 164.279C317.648 175.831 310.293 185.144 310.202 185.076C310.111 185.008 317.339 175.596 326.327 164.037C335.316 152.478 342.68 143.171 342.763 143.239Z" fill="#E0E0E0"/>
<path d="M334.545 138.583C334.481 138.745 334.403 138.902 334.311 139.051L333.555 140.352C332.905 141.478 331.922 143.088 330.659 145.039C328.134 148.947 324.385 154.171 319.962 159.728C315.539 165.284 311.359 170.161 308.342 173.699L304.751 177.864L303.753 178.991C303.643 179.125 303.522 179.249 303.39 179.361C303.481 179.213 303.582 179.072 303.693 178.938L304.63 177.766L308.13 173.517C311.094 169.934 315.237 165.027 319.652 159.478C324.067 153.929 327.847 148.743 330.425 144.88C331.718 142.952 332.731 141.372 333.449 140.268L334.25 139.006C334.332 138.854 334.431 138.712 334.545 138.583Z" fill="#E0E0E0"/>
<path d="M327.802 134.719C327.885 134.787 321.754 142.93 314.057 152.909C306.361 162.888 300.132 170.924 300.003 170.856C299.875 170.788 306.051 162.646 313.748 152.659C321.444 142.673 327.711 134.651 327.802 134.719Z" fill="#E0E0E0"/>
<path d="M322.729 131.416C322.541 131.795 322.324 132.159 322.079 132.504C321.867 132.844 321.587 133.26 321.247 133.729C320.907 134.198 320.529 134.742 320.06 135.301C318.994 136.628 317.851 137.89 316.635 139.081C313.649 142.025 310.252 144.521 306.55 146.49C305.042 147.29 303.487 148 301.893 148.615C301.221 148.894 300.586 149.083 300.041 149.272C299.575 149.44 299.101 149.584 298.62 149.703C298.217 149.831 297.805 149.929 297.388 149.998C297.77 149.817 298.167 149.671 298.575 149.56C298.96 149.431 299.429 149.28 299.966 149.068C300.502 148.856 301.13 148.652 301.788 148.357C303.354 147.709 304.886 146.98 306.377 146.173C308.195 145.168 309.95 144.052 311.631 142.831C313.298 141.594 314.886 140.253 316.386 138.817C317.606 137.64 318.76 136.396 319.841 135.09C320.325 134.545 320.71 134.016 321.066 133.578C321.421 133.139 321.723 132.723 321.958 132.391C322.185 132.043 322.443 131.717 322.729 131.416Z" fill="#E0E0E0"/>
<path d="M357.989 120.567H261.319V130.773H357.989V120.567Z" fill="#E0E0E0"/>
<path d="M291.967 130.425C291.672 131.416 286.637 139.354 279.372 142.053C272.107 144.751 266.709 147.738 268.728 151.291C270.746 154.844 279.667 152.909 279.667 152.909C279.667 152.909 261.561 172.565 278.609 183.837C299.391 197.558 321.111 148.463 321.111 148.463L291.967 130.425Z" fill="#F5F5F5"/>
<path d="M317.686 155.199C317.633 155.29 310.784 151.208 302.385 146.082C293.986 140.956 287.227 136.715 287.265 136.625C287.303 136.534 294.175 140.616 302.566 145.742C310.958 150.868 317.747 155.109 317.686 155.199Z" fill="#E0E0E0"/>
<path d="M314.496 161.089C314.436 161.179 307.034 156.832 297.962 151.389C288.89 145.946 281.557 141.44 281.61 141.372C281.663 141.304 289.072 145.621 298.144 151.072C307.216 156.522 314.496 161.028 314.496 161.089Z" fill="#E0E0E0"/>
<path d="M310.587 166.668C310.535 166.759 302.219 161.867 292.028 155.744C281.837 149.62 273.612 144.578 273.672 144.487C273.733 144.396 282.041 149.28 292.239 155.403C302.438 161.527 310.64 166.57 310.587 166.668Z" fill="#E0E0E0"/>
<path d="M305.742 173.57C305.681 173.661 299.24 169.73 291.378 164.793C283.515 159.856 277.142 155.782 277.203 155.721C277.263 155.661 283.697 159.562 291.567 164.498C299.436 169.435 305.794 173.48 305.742 173.57Z" fill="#E0E0E0"/>
<path d="M300.041 180.231C299.981 180.321 293.993 176.451 286.645 171.59C279.297 166.728 273.407 162.707 273.468 162.616C273.528 162.525 279.516 166.396 286.864 171.264C294.213 176.133 300.132 180.14 300.041 180.231Z" fill="#E0E0E0"/>
<path d="M292.769 184.857C292.453 184.747 292.149 184.605 291.861 184.434C291.287 184.132 290.47 183.678 289.465 183.119C287.454 181.992 284.717 180.367 281.754 178.469C278.79 176.572 276.167 174.757 274.299 173.404C273.37 172.724 272.621 172.164 272.115 171.771C271.84 171.583 271.586 171.365 271.359 171.121C271.66 171.266 271.946 171.441 272.213 171.642L274.481 173.154C276.386 174.447 279.017 176.224 281.988 178.121C284.959 180.019 287.658 181.675 289.624 182.869L291.96 184.283C292.247 184.449 292.518 184.641 292.769 184.857Z" fill="#E0E0E0"/>
<path d="M275.721 153.362C274.283 152.993 272.923 152.368 271.706 151.518C270.421 150.777 269.281 149.809 268.342 148.66C268.418 148.569 269.854 149.9 271.918 151.185C273.982 152.47 275.766 153.249 275.721 153.362Z" fill="#E0E0E0"/>
<path d="M319.788 147.42C319.723 147.575 319.637 147.721 319.531 147.851L318.722 149.023C318.019 150.043 316.976 151.503 315.698 153.287C313.09 156.87 309.408 161.761 305.205 167.053C301.001 172.345 297.002 177.055 294.084 180.412C292.64 182.09 291.453 183.436 290.621 184.351C290.228 184.782 289.911 185.107 289.661 185.402C289.556 185.532 289.437 185.651 289.306 185.757C289.39 185.613 289.489 185.479 289.601 185.356L290.508 184.252L293.872 180.231C296.715 176.836 300.608 172.111 304.812 166.827C309.015 161.542 312.727 156.674 315.396 153.136L318.556 148.947L319.418 147.821C319.529 147.677 319.653 147.543 319.788 147.42Z" fill="#E0E0E0"/>
<path d="M313.869 143.239C313.952 143.307 306.732 152.727 297.743 164.279C288.754 175.831 281.398 185.144 281.308 185.076C281.217 185.008 288.444 175.596 297.433 164.037C306.422 152.478 313.785 143.171 313.869 143.239Z" fill="#E0E0E0"/>
<path d="M305.651 138.583C305.587 138.745 305.508 138.902 305.416 139.051L304.66 140.352C304.01 141.478 303.027 143.088 301.765 145.039C299.24 148.947 295.49 154.171 291.068 159.728C286.645 165.284 282.464 170.161 279.448 173.699L275.857 177.864L274.859 178.991C274.749 179.125 274.628 179.249 274.496 179.361C274.583 179.211 274.685 179.069 274.798 178.938L275.736 177.766L279.236 173.517C282.2 169.934 286.343 165.027 290.758 159.478C295.173 153.929 298.953 148.743 301.531 144.88C302.823 142.952 303.836 141.372 304.555 140.268C304.88 139.747 305.152 139.331 305.356 139.006C305.438 138.854 305.537 138.712 305.651 138.583Z" fill="#E0E0E0"/>
<path d="M298.907 134.719C298.99 134.787 292.859 142.93 285.163 152.909C277.467 162.888 271.2 170.924 271.109 170.856C271.018 170.788 277.157 162.646 284.853 152.659C292.549 142.673 298.817 134.651 298.907 134.719Z" fill="#E0E0E0"/>
<path d="M293.835 131.416C293.647 131.795 293.429 132.159 293.184 132.504C292.973 132.844 292.693 133.26 292.353 133.729C292.013 134.198 291.635 134.742 291.166 135.301C290.1 136.628 288.956 137.89 287.741 139.081C284.755 142.025 281.358 144.521 277.656 146.49C276.147 147.289 274.592 147.998 272.999 148.615C272.326 148.894 271.691 149.083 271.147 149.272C270.681 149.44 270.206 149.584 269.726 149.703C269.323 149.831 268.911 149.929 268.493 149.998C268.875 149.817 269.273 149.671 269.68 149.56C270.066 149.431 270.535 149.28 271.071 149.068C271.608 148.856 272.236 148.652 272.893 148.357C274.46 147.709 275.991 146.98 277.482 146.173C279.302 145.185 281.059 144.087 282.744 142.884C284.411 141.646 285.999 140.306 287.499 138.87C288.72 137.693 289.873 136.448 290.954 135.143C291.438 134.598 291.824 134.069 292.179 133.631C292.534 133.192 292.829 132.776 293.063 132.444C293.29 132.079 293.548 131.735 293.835 131.416Z" fill="#E0E0E0"/>
<path d="M312.803 69.4917H306.618V75.6758H312.803V69.4917Z" fill="#E0E0E0"/>
<path d="M338.665 83.9009H281.043V120.264H338.665V83.9009Z" fill="#F5F5F5"/>
<path d="M281.043 83.9161C281.043 83.9161 289.865 74.7005 311.986 75.0709C334.107 75.4414 338.688 83.9161 338.688 83.9161H281.043Z" fill="#F5F5F5"/>
<path d="M338.446 84.4981C338.446 84.6039 325.488 84.6946 309.514 84.6946C293.54 84.6946 280.582 84.6039 280.582 84.4981C280.582 84.3922 293.532 84.2939 309.514 84.2939C325.496 84.2939 338.446 84.3847 338.446 84.4981Z" fill="#E0E0E0"/>
<path d="M338.446 84.4983H351.464C352.018 84.4983 352.548 84.7181 352.94 85.1094C353.331 85.5007 353.551 86.0315 353.551 86.5848V87.3862C353.551 87.9396 353.331 88.4703 352.94 88.8616C352.548 89.2529 352.018 89.4728 351.464 89.4728H338.446V84.4907V84.4983Z" fill="#E0E0E0"/>
<path d="M281.255 89.4729H268.236C267.683 89.4729 267.152 89.2531 266.761 88.8618C266.37 88.4705 266.15 87.9397 266.15 87.3864V86.585C266.15 86.0316 266.37 85.5009 266.761 85.1096C267.152 84.7183 267.683 84.4984 268.236 84.4984H281.255V89.4805V89.4729Z" fill="#E0E0E0"/>
<path d="M316.159 67.7075H303.557C302.73 67.7075 302.06 68.3777 302.06 69.2044V69.779C302.06 70.6057 302.73 71.2758 303.557 71.2758H316.159C316.986 71.2758 317.656 70.6057 317.656 69.779V69.2044C317.656 68.3777 316.986 67.7075 316.159 67.7075Z" fill="#E0E0E0"/>
<path d="M355.698 305.25C355.698 305.356 281.058 305.447 189.008 305.447C96.957 305.447 22.302 305.356 22.302 305.25C22.302 305.144 96.9268 305.053 189.008 305.053C281.088 305.053 355.698 305.144 355.698 305.25Z" fill="#263238"/>
<path d="M244.884 194.715C244.581 196.008 238.148 254.583 238.148 254.583L232.326 262.861L230.746 275.532L242.842 305.446H153.347C153.347 305.446 151.933 289.639 152.054 285.412C152.175 281.186 154.322 265.681 154.322 265.681L154.118 249.933L150.731 181.296L181.047 171.514C199.365 168.361 226.324 182.098 226.324 182.098L244.884 194.715Z" fill="#E6682E"/>
<path d="M233.256 151.056C237.24 150.807 240.295 147.48 242.487 144.146C244.543 141.031 246.267 137.539 246.312 133.812C246.312 130.576 245.042 127.492 243.772 124.513C242.502 121.534 241.134 118.344 239.085 115.721C237.036 113.097 234.133 110.965 230.822 110.557" fill="#263238"/>
<path d="M186.687 166.667L186.732 165.677L189.068 108.486L190.361 105.242L218.968 101.304C221.186 101.131 223.416 101.409 225.523 102.122C227.63 102.835 229.571 103.967 231.229 105.451C232.886 106.935 234.226 108.739 235.167 110.755C236.108 112.771 236.631 114.956 236.704 117.18C237.067 127.59 237.112 140.313 235.66 148.032C232.757 163.515 220.752 165.171 220.752 165.171C220.752 165.171 220.548 169.23 220.321 175.104C220.155 179.535 216.239 192.318 211.801 192.447C209.896 192.5 204.695 190.844 202.215 190.481C186.573 188.198 186.687 166.667 186.687 166.667Z" fill="#FFBE9D"/>
<path d="M231.419 126.207C231.411 126.728 231.2 127.226 230.829 127.593C230.459 127.96 229.96 128.168 229.438 128.172C229.184 128.185 228.929 128.147 228.689 128.061C228.448 127.974 228.228 127.84 228.041 127.666C227.853 127.493 227.703 127.284 227.597 127.051C227.492 126.819 227.434 126.568 227.427 126.312C227.435 125.791 227.647 125.293 228.017 124.926C228.387 124.559 228.887 124.351 229.408 124.347C229.663 124.334 229.918 124.372 230.158 124.458C230.398 124.545 230.618 124.679 230.806 124.853C230.993 125.026 231.144 125.235 231.249 125.468C231.355 125.7 231.412 125.951 231.419 126.207Z" fill="#263238"/>
<path d="M233.763 123.674C233.506 123.931 232.024 122.767 229.869 122.714C227.715 122.661 226.089 123.689 225.885 123.417C225.772 123.303 226.036 122.835 226.74 122.358C227.687 121.736 228.805 121.424 229.937 121.466C231.057 121.493 232.14 121.874 233.029 122.555C233.672 123.084 233.884 123.56 233.763 123.674Z" fill="#263238"/>
<path d="M210.365 126.002C210.357 126.524 210.145 127.022 209.775 127.389C209.405 127.756 208.905 127.964 208.384 127.968C208.129 127.981 207.874 127.943 207.634 127.856C207.394 127.77 207.174 127.635 206.986 127.462C206.799 127.289 206.648 127.08 206.543 126.847C206.437 126.615 206.38 126.363 206.373 126.108C206.381 125.587 206.592 125.089 206.963 124.722C207.333 124.354 207.832 124.147 208.354 124.143C208.609 124.129 208.864 124.167 209.104 124.254C209.344 124.341 209.564 124.475 209.751 124.649C209.939 124.822 210.089 125.031 210.195 125.264C210.3 125.496 210.358 125.747 210.365 126.002Z" fill="#263238"/>
<path d="M212.602 123.492C212.345 123.749 210.856 122.585 208.709 122.532C206.562 122.479 204.929 123.507 204.725 123.235C204.611 123.122 204.876 122.653 205.579 122.177C206.526 121.553 207.644 121.241 208.777 121.285C209.897 121.311 210.98 121.692 211.869 122.373C212.512 122.903 212.723 123.379 212.602 123.492Z" fill="#263238"/>
<path d="M219.996 139.663C219.996 139.542 221.334 139.346 223.511 139.134C224.063 139.089 224.585 138.99 224.691 138.62C224.749 138.053 224.636 137.481 224.366 136.979L222.854 132.753C220.767 126.705 219.263 121.791 219.512 121.708C219.762 121.625 221.644 126.441 223.738 132.458C224.237 133.97 224.721 135.354 225.175 136.707C225.505 137.381 225.585 138.15 225.401 138.877C225.314 139.064 225.185 139.229 225.026 139.359C224.866 139.49 224.679 139.584 224.479 139.633C224.172 139.706 223.857 139.739 223.542 139.731C221.327 139.814 219.996 139.784 219.996 139.663Z" fill="#263238"/>
<path d="M220.752 165.171C213.407 165.079 206.231 162.951 200.022 159.024C200.022 159.024 204.793 169.873 220.434 168.852L220.752 165.171Z" fill="#EB996E"/>
<path d="M218.915 144.827C218.518 144.305 217.995 143.892 217.394 143.627C216.794 143.363 216.136 143.255 215.483 143.315C215.006 143.345 214.541 143.47 214.113 143.683C213.686 143.896 213.306 144.192 212.995 144.555C212.701 144.908 212.521 145.342 212.48 145.8C212.438 146.257 212.536 146.717 212.761 147.117C213.099 147.508 213.546 147.788 214.044 147.923C214.543 148.057 215.07 148.04 215.558 147.873C216.586 147.544 217.537 147.012 218.355 146.309C218.602 146.144 218.815 145.933 218.983 145.689C219.064 145.571 219.107 145.431 219.107 145.288C219.107 145.145 219.064 145.005 218.983 144.887" fill="#EB996E"/>
<path d="M213.593 140.979C213.948 140.979 213.888 143.3 215.861 145.016C217.834 146.732 220.306 146.528 220.321 146.868C220.321 147.012 219.754 147.307 218.696 147.307C217.328 147.289 216.01 146.789 214.976 145.893C213.981 145.034 213.36 143.822 213.245 142.513C213.192 141.531 213.434 140.964 213.593 140.979Z" fill="#263238"/>
<path d="M213.389 115.078C213.162 115.653 211.022 115.32 208.49 115.555C205.957 115.789 203.893 116.416 203.576 115.887C203.432 115.63 203.802 115.131 204.642 114.549C205.759 113.885 207.013 113.484 208.309 113.377C209.604 113.27 210.907 113.458 212.118 113.929C213.033 114.33 213.487 114.799 213.389 115.078Z" fill="#263238"/>
<path d="M233.143 117.422C232.75 117.906 231.283 117.354 229.499 117.286C227.715 117.218 226.195 117.52 225.863 116.999C225.719 116.749 225.968 116.243 226.619 115.819C227.521 115.29 228.559 115.04 229.603 115.1C230.648 115.161 231.65 115.529 232.485 116.159C233.12 116.681 233.317 117.18 233.143 117.422Z" fill="#263238"/>
<path d="M186.535 125.964C183.499 127.826 180.836 130.236 178.681 133.071C176.201 136.178 174.591 140.2 175.211 144.131C176.065 149.582 180.79 153.453 185.182 156.794C187.707 157.157 189.59 154.367 189.983 151.842C190.376 149.317 190.028 146.588 191.223 144.328C192.296 142.302 194.413 141.062 195.827 139.255C198.458 135.898 198.284 131.173 197.641 126.955C196.998 122.736 197.641 116.371 203.062 110.323C203.062 110.376 189.877 115.524 186.535 125.964Z" fill="#263238"/>
<path d="M181.863 140.003C184.131 136.73 183.557 131.929 180.933 128.898C178.31 125.866 174.077 124.551 170.085 124.891C167.182 125.14 164.241 126.282 162.366 128.512C160.491 130.742 159.924 134.182 161.482 136.647C162.343 138.008 163.84 139.293 163.5 140.873C163.16 142.453 161.368 142.959 160.098 143.851C159.007 144.671 158.201 145.812 157.794 147.115C157.387 148.417 157.4 149.814 157.83 151.109C158.3 152.387 159.085 153.526 160.112 154.42C161.138 155.315 162.374 155.936 163.704 156.227C166.394 156.77 169.189 156.267 171.521 154.821C171.521 157.248 174.129 159.1 176.541 158.896C178.953 158.692 181.002 156.93 182.294 154.882C184.031 151.909 184.856 148.491 184.668 145.054C184.479 141.634 183.955 138.241 183.103 134.923" fill="#263238"/>
<path d="M185.855 157.535C185.727 157.476 185.607 157.399 185.5 157.308L184.517 156.598C183.678 155.97 182.461 155.086 181.047 153.816C179.363 152.379 177.876 150.727 176.624 148.902C175.074 146.641 174.176 143.996 174.031 141.258C173.966 139.837 174.19 138.418 174.689 137.085C175.175 135.851 175.894 134.722 176.806 133.759C178.385 132.215 180.13 130.848 182.007 129.684C183.239 128.874 184.414 127.98 185.522 127.008C185.908 126.652 186.195 126.365 186.384 126.161C186.474 126.055 186.576 125.958 186.687 125.874C186.687 125.874 186.611 126.002 186.437 126.214C186.189 126.533 185.919 126.833 185.628 127.114C184.553 128.142 183.395 129.081 182.166 129.918C180.331 131.105 178.623 132.478 177.07 134.016C176.197 134.947 175.512 136.038 175.052 137.229C174.577 138.514 174.363 139.882 174.424 141.251C174.561 143.914 175.418 146.49 176.904 148.705C178.129 150.515 179.576 152.164 181.213 153.611C182.597 154.866 183.784 155.811 184.593 156.477L185.522 157.233C185.644 157.321 185.755 157.423 185.855 157.535Z" fill="#455A64"/>
<path d="M174.742 137.804C174.674 137.841 174.281 137.002 173.283 135.944C172.005 134.542 170.339 133.553 168.498 133.102C166.656 132.651 164.721 132.759 162.941 133.411C161.572 133.895 160.831 134.447 160.794 134.386C160.756 134.326 160.945 134.213 161.285 133.971C161.774 133.643 162.296 133.367 162.842 133.147C164.666 132.403 166.678 132.255 168.591 132.724C170.504 133.192 172.22 134.253 173.494 135.755C173.88 136.2 174.214 136.687 174.492 137.206C174.61 137.389 174.694 137.592 174.742 137.804Z" fill="#455A64"/>
<path d="M162.608 141.946C162.563 141.946 162.842 141.19 163.863 140.555C164.458 140.203 165.115 139.967 165.798 139.86C166.621 139.733 167.454 139.685 168.286 139.716C169.792 139.757 171.286 139.993 172.731 140.419C173.339 140.558 173.921 140.793 174.455 141.115C173.847 141.004 173.247 140.86 172.655 140.684C171.216 140.347 169.748 140.154 168.271 140.109C166.811 139.97 165.341 140.207 163.999 140.797C163.479 141.106 163.009 141.494 162.608 141.946Z" fill="#455A64"/>
<path d="M160.007 154.3C160.007 154.232 161.088 154.254 162.789 153.922C164.995 153.494 167.088 152.613 168.936 151.336C170.765 150.035 172.309 148.373 173.472 146.452C174.364 144.978 174.719 143.95 174.787 143.98C174.755 144.24 174.686 144.495 174.583 144.736C174.342 145.385 174.051 146.014 173.714 146.619C172.596 148.628 171.036 150.358 169.151 151.675C167.266 152.993 165.106 153.865 162.835 154.224C162.152 154.331 161.462 154.384 160.771 154.383C160.514 154.4 160.255 154.372 160.007 154.3Z" fill="#455A64"/>
<path d="M175.498 137.592C175.498 137.554 175.959 138 176.912 138.522C178.276 139.232 179.805 139.566 181.342 139.489C182.394 139.452 183.434 139.253 184.426 138.9C185.563 138.473 186.625 137.869 187.571 137.108C189.709 135.308 191.41 133.046 192.546 130.493C193.665 127.921 194.625 125.283 195.418 122.593C196.09 120.385 196.929 118.232 197.928 116.152C198.608 114.748 199.453 113.431 200.446 112.228C200.801 111.812 201.096 111.472 201.308 111.298C201.409 111.192 201.521 111.096 201.64 111.011C201.64 111.011 201.232 111.464 200.567 112.326C199.632 113.552 198.831 114.875 198.178 116.273C197.22 118.356 196.414 120.506 195.766 122.706C194.988 125.417 194.031 128.074 192.901 130.659C191.743 133.27 189.993 135.577 187.79 137.395C186.812 138.17 185.714 138.78 184.54 139.202C183.513 139.559 182.436 139.751 181.349 139.769C179.762 139.829 178.19 139.441 176.813 138.65C176.596 138.534 176.391 138.398 176.201 138.242C176.053 138.141 175.913 138.027 175.785 137.902C175.68 137.808 175.584 137.704 175.498 137.592Z" fill="#455A64"/>
<path d="M197.686 123.545C197.724 123.545 197.414 123.999 197.067 124.884C196.619 126.146 196.364 127.469 196.311 128.807C196.271 130.819 196.045 132.824 195.638 134.795C194.966 137.208 193.586 139.365 191.676 140.986C189.786 142.639 187.425 143.657 184.925 143.897C182.897 144.073 180.857 143.759 178.975 142.982C177.713 142.468 176.547 141.742 175.528 140.835C175.26 140.6 175.007 140.347 174.772 140.079C174.68 139.988 174.599 139.886 174.53 139.777C174.568 139.777 174.908 140.155 175.649 140.744C176.686 141.595 177.852 142.274 179.104 142.755C180.952 143.476 182.943 143.753 184.918 143.564C187.335 143.313 189.615 142.317 191.442 140.714C193.296 139.145 194.643 137.061 195.313 134.727C195.734 132.781 195.987 130.803 196.069 128.815C196.152 127.455 196.453 126.118 196.961 124.853C197.112 124.515 197.289 124.189 197.49 123.878C197.542 123.76 197.608 123.648 197.686 123.545Z" fill="#455A64"/>
<path d="M242.487 143.133C242.487 143.133 242.744 142.899 243.145 142.438C243.72 141.786 244.169 141.032 244.468 140.215C244.913 139.007 245.096 137.719 245.004 136.435C244.87 134.854 244.431 133.314 243.712 131.899C242.2 128.875 240.159 126.554 238.805 124.785C238.268 124.083 237.778 123.345 237.339 122.578C237.162 122.304 237.019 122.009 236.915 121.701C237.125 121.949 237.31 122.218 237.467 122.502C237.807 123.016 238.329 123.749 239.025 124.611C240.416 126.327 242.54 128.633 244.067 131.725C244.806 133.176 245.248 134.759 245.367 136.382C245.447 137.713 245.23 139.046 244.732 140.283C244.384 141.119 243.869 141.875 243.22 142.506C243.048 142.673 242.864 142.827 242.668 142.967C242.57 143.103 242.495 143.148 242.487 143.133Z" fill="#455A64"/>
<path d="M240.249 147.563C240.999 146.756 241.628 145.845 242.117 144.857C242.605 143.773 242.863 142.599 242.873 141.41C242.872 139.951 242.574 138.508 241.996 137.168C241.394 135.824 240.712 134.516 239.954 133.252C239.297 132.058 238.73 130.984 238.269 130.039C237.807 129.094 237.46 128.361 237.233 127.832C237.093 127.564 236.989 127.28 236.923 126.985C237.094 127.223 237.243 127.476 237.369 127.741L238.518 129.888C239.009 130.795 239.599 131.869 240.272 133.056C241.056 134.32 241.753 135.636 242.358 136.995C242.957 138.383 243.256 139.882 243.235 141.394C243.206 142.628 242.915 143.842 242.381 144.955C242.015 145.697 241.533 146.376 240.952 146.966C240.794 147.124 240.628 147.273 240.453 147.412C240.325 147.526 240.257 147.571 240.249 147.563Z" fill="#455A64"/>
<path d="M185.795 127.968C190.973 119.13 198.216 110.913 208.18 108.531C213.043 107.33 218.101 107.137 223.042 107.965C227.983 108.793 232.702 110.625 236.908 113.347V95.9211L224.472 55.7775L214.787 50.6519L191.895 63.7458L185.976 112.031L185.795 127.968Z" fill="#00A98C"/>
<g opacity="0.7">
<path opacity="0.7" d="M185.795 127.968C190.973 119.13 198.216 110.913 208.18 108.531C213.043 107.33 218.101 107.137 223.042 107.965C227.983 108.793 232.702 110.625 236.908 113.347V95.9211L224.472 55.7775L214.787 50.6519L191.895 63.7458L185.976 112.031L185.795 127.968Z" fill="white"/>
</g>
<path d="M236.431 96.556C236.239 96.4891 236.054 96.403 235.88 96.299C235.524 96.1251 235.025 95.8227 234.368 95.543C232.462 94.6145 230.472 93.8702 228.425 93.3203C225.391 92.4991 222.269 92.0498 219.127 91.9822C217.272 91.9397 215.416 92.0078 213.57 92.1863C211.59 92.3341 209.631 92.6914 207.726 93.2523C204.071 94.4556 200.613 96.1876 197.46 98.3931C194.868 100.166 192.522 102.273 190.482 104.66C189.113 106.286 187.934 108.061 186.966 109.952C186.679 110.61 186.445 111.132 186.263 111.525C186.195 111.715 186.106 111.898 185.999 112.069C186.046 111.874 186.112 111.684 186.195 111.502C186.339 111.132 186.535 110.58 186.83 109.884C187.753 107.956 188.905 106.146 190.262 104.494C192.297 102.061 194.649 99.9128 197.256 98.1058C200.429 95.8605 203.92 94.1023 207.613 92.8894C209.545 92.3242 211.532 91.9644 213.54 91.8159C215.399 91.6408 217.267 91.5802 219.134 91.6345C222.304 91.7204 225.45 92.2004 228.501 93.0633C230.555 93.6431 232.544 94.4335 234.436 95.422C235.116 95.7471 235.607 96.0722 235.948 96.2687C236.116 96.3517 236.278 96.4478 236.431 96.556Z" fill="#263238"/>
<path d="M221.304 91.8917C221.198 91.8917 219.573 82.7365 217.683 71.4041C215.793 60.0716 214.341 50.8711 214.447 50.856C214.553 50.8409 216.178 60.0111 218.068 71.3436C219.958 82.676 221.41 91.8765 221.304 91.8917Z" fill="#263238"/>
<path d="M206.131 93.5471C206.025 93.5471 206.191 84.8455 206.517 74.1103C206.842 63.3751 207.182 54.6812 207.273 54.6812C207.363 54.6812 207.204 63.3903 206.887 74.1255C206.569 84.8607 206.244 93.5547 206.131 93.5471Z" fill="#263238"/>
<path d="M193.219 100.782C193.2 100.644 193.2 100.505 193.219 100.367C193.219 100.049 193.218 99.656 193.264 99.1797C193.317 98.1516 193.415 96.6547 193.559 94.8176C193.846 91.1434 194.315 86.0631 195.071 80.4536C195.827 74.8441 196.583 69.8696 197.18 66.1954C197.497 64.3735 197.77 62.9068 197.981 61.8938C198.08 61.4251 198.163 61.0471 198.223 60.7371C198.241 60.5988 198.28 60.4638 198.337 60.3364C198.353 60.4745 198.353 60.6141 198.337 60.7522C198.284 61.0622 198.231 61.4478 198.163 61.924C197.996 62.9976 197.762 64.4566 197.49 66.2408C196.923 69.8847 196.197 74.9272 195.494 80.5065C194.791 86.0858 194.247 91.151 193.891 94.8176C193.717 96.6169 193.574 98.0835 193.476 99.1646C193.423 99.6484 193.385 100.034 193.347 100.352C193.325 100.501 193.282 100.646 193.219 100.782Z" fill="#263238"/>
<path d="M223.511 94.8325C223.573 95.4155 223.573 96.0034 223.511 96.5864C223.421 97.8112 223.315 99.2249 223.201 100.79C223.088 102.355 222.975 103.768 222.884 104.993C222.873 105.579 222.8 106.162 222.665 106.732C222.573 106.152 222.553 105.563 222.604 104.978C222.604 103.897 222.687 102.408 222.808 100.76C222.929 99.1115 223.088 97.6297 223.232 96.5562C223.258 95.9728 223.352 95.3943 223.511 94.8325Z" fill="#263238"/>
<path d="M151.366 266.754C150.414 265.363 147.851 264.124 146.173 263.942C140.367 263.307 135.075 265.809 130.493 269.438L129.593 271.079C127.129 272.999 124.559 275.191 123.795 278.223C123.097 281.381 122.744 284.605 122.744 287.839C122.816 289.556 123.512 291.188 124.702 292.428C125.797 293.641 127.321 294.381 128.951 294.492C132.033 294.731 135.117 294.042 137.804 292.511C140.473 290.976 142.827 288.949 144.744 286.539C148.322 282.165 150.754 276.968 151.82 271.419C152.122 269.892 152.274 268.093 151.366 266.754Z" fill="#E6682E"/>
<g opacity="0.4">
<path opacity="0.4" d="M151.366 266.754C150.414 265.363 147.851 264.124 146.173 263.942C140.367 263.307 135.075 265.809 130.493 269.438L129.593 271.079C127.129 272.999 124.559 275.191 123.795 278.223C123.097 281.381 122.744 284.605 122.744 287.839C122.816 289.556 123.512 291.188 124.702 292.428C125.797 293.641 127.321 294.381 128.951 294.492C132.033 294.731 135.117 294.042 137.804 292.511C140.473 290.976 142.827 288.949 144.744 286.539C148.322 282.165 150.754 276.968 151.82 271.419C152.122 269.892 152.274 268.093 151.366 266.754Z" fill="black"/>
</g>
<path d="M150.739 181.296C149.824 181.599 104.517 245.813 103.3 250.092C102.083 254.371 95.4526 264.539 104.812 274.088C110.616 279.966 116.804 285.454 123.334 290.515C121.232 274.329 137.161 261.281 148.282 264.668L139.777 258.9L159.214 233.082" fill="#E6682E"/>
<path d="M244.884 194.715C244.884 194.715 252.013 203.629 253.789 209.397C255.301 214.326 263.39 237.135 263.39 237.135L278.11 273.612C278.11 273.612 275.842 276.832 275.335 279.561C275.124 280.65 273.256 297.41 268.796 304.509L245.186 293.925L242.207 272.795L238.14 254.583L242.343 205.556L244.884 194.715Z" fill="#E6682E"/>
<path d="M178.62 172.028C178.62 172.028 184.668 166.448 186.346 165.662C186.346 165.662 188.267 172.217 193.906 175.316C199.546 178.416 203.183 181.757 203.183 182.203V190.33C203.183 190.33 180.072 184.018 178.62 172.028Z" fill="#E6682E"/>
<path d="M182.483 213.373L227.39 210.659L225.288 185.008L223.36 180.684L220.336 175.226C220.181 177.071 219.436 178.818 218.212 180.208C215.739 182.716 212.552 184.4 209.087 185.031L208.202 190.323L185.447 180.926C185.447 180.926 182.483 211.922 182.483 212.632" fill="#E6682E"/>
<path d="M209.072 185.008C209.084 185.124 209.084 185.24 209.072 185.356C209.034 185.606 208.981 185.946 208.921 186.377C208.774 187.299 208.568 188.622 208.301 190.346V190.414H208.225L189.756 190.981L186.732 191.064L185.152 191.109C184.641 191.095 184.131 191.161 183.64 191.306C183.144 191.478 182.694 191.761 182.323 192.133C181.953 192.505 181.671 192.956 181.5 193.453C181.335 193.972 181.276 194.52 181.327 195.063C181.327 195.638 181.327 196.212 181.327 196.787C181.425 201.413 181.531 206.312 181.637 211.378C181.984 225.575 182.204 238.435 182.136 247.741C182.136 252.398 182.06 256.163 181.999 258.764C181.962 260.041 181.939 261.032 181.916 261.788C181.916 262.113 181.916 262.37 181.916 262.544C181.926 262.632 181.926 262.72 181.916 262.808C181.905 262.72 181.905 262.631 181.916 262.544C181.916 262.347 181.916 262.09 181.916 261.788C181.916 261.077 181.916 260.072 181.916 258.764C181.916 256.14 181.916 252.383 181.916 247.749C181.916 238.442 181.652 225.59 181.304 211.393C181.206 206.327 181.107 201.429 181.009 196.802V195.078C180.965 194.493 181.034 193.905 181.213 193.347C181.402 192.798 181.713 192.298 182.122 191.887C182.532 191.476 183.031 191.163 183.579 190.973C184.112 190.818 184.666 190.749 185.22 190.769L186.792 190.731L189.816 190.656L208.293 190.247L208.21 190.323C208.512 188.604 208.744 187.286 208.905 186.369L209.102 185.356C209.084 185.241 209.074 185.125 209.072 185.008Z" fill="#263238"/>
<path d="M186.543 202.154C187.604 202.154 188.463 201.294 188.463 200.234C188.463 199.173 187.604 198.314 186.543 198.314C185.483 198.314 184.623 199.173 184.623 200.234C184.623 201.294 185.483 202.154 186.543 202.154Z" fill="#263238"/>
<path d="M197.316 198.17C197.316 198.291 195.154 198.571 192.523 199.183C189.892 199.796 187.813 200.491 187.775 200.385C189.244 199.638 190.812 199.104 192.432 198.798C194.024 198.366 195.667 198.154 197.316 198.17Z" fill="#263238"/>
<path d="M194.058 201.988C192.927 201.814 191.806 201.58 190.701 201.285C189.57 201.113 188.449 200.878 187.344 200.582C189.66 200.53 191.957 201.011 194.058 201.988Z" fill="#263238"/>
<path d="M186.543 223.867C187.604 223.867 188.463 223.007 188.463 221.946C188.463 220.886 187.604 220.026 186.543 220.026C185.483 220.026 184.623 220.886 184.623 221.946C184.623 223.007 185.483 223.867 186.543 223.867Z" fill="#263238"/>
<path d="M197.316 219.89C197.316 220.003 195.154 220.283 192.523 220.896C189.892 221.508 187.813 222.203 187.775 222.098C189.244 221.351 190.812 220.818 192.432 220.518C194.023 220.081 195.667 219.87 197.316 219.89Z" fill="#263238"/>
<path d="M194.058 223.7C192.927 223.527 191.806 223.292 190.701 222.997C189.57 222.825 188.449 222.59 187.344 222.294C189.66 222.242 191.957 222.723 194.058 223.7Z" fill="#263238"/>
<path d="M186.543 245.587C187.604 245.587 188.463 244.727 188.463 243.666C188.463 242.606 187.604 241.746 186.543 241.746C185.483 241.746 184.623 242.606 184.623 243.666C184.623 244.727 185.483 245.587 186.543 245.587Z" fill="#263238"/>
<path d="M197.316 241.602C197.316 241.716 195.154 241.996 192.523 242.608C189.892 243.22 187.813 243.916 187.775 243.81C189.244 243.063 190.812 242.531 192.432 242.23C194.023 241.793 195.667 241.582 197.316 241.602Z" fill="#263238"/>
<path d="M194.058 245.413C192.927 245.239 191.806 245.004 190.701 244.71C189.57 244.538 188.449 244.303 187.344 244.006C188.501 243.916 189.664 244.024 190.784 244.324C191.93 244.495 193.038 244.863 194.058 245.413Z" fill="#263238"/>
<path d="M156.492 238.896C156.507 238.709 156.543 238.524 156.598 238.344C156.689 237.951 156.817 237.437 156.976 236.794C157.309 235.441 157.807 233.498 158.374 231.086C158.941 228.675 159.569 225.794 160.06 222.544C160.609 219.044 160.842 215.501 160.756 211.96C160.633 208.414 160.028 204.902 158.957 201.519C158.089 198.757 156.831 196.132 155.222 193.725C154.139 192.102 152.87 190.61 151.442 189.28C150.958 188.788 150.512 188.478 150.247 188.229C150.097 188.116 149.96 187.987 149.839 187.843C149.998 187.938 150.15 188.044 150.293 188.161C150.58 188.395 151.049 188.69 151.548 189.166C153.027 190.466 154.34 191.944 155.456 193.566C157.113 195.98 158.412 198.62 159.312 201.406C160.41 204.817 161.031 208.363 161.157 211.945C161.241 215.519 160.988 219.093 160.401 222.619C159.894 225.87 159.229 228.758 158.632 231.17C158.034 233.581 157.49 235.517 157.12 236.855C156.938 237.49 156.787 238.004 156.673 238.367C156.625 238.547 156.565 238.724 156.492 238.896Z" fill="#263238"/>
<path d="M155.736 238.246C155.622 237.919 155.536 237.582 155.479 237.24C155.335 236.59 155.169 235.637 154.995 234.451C154.557 231.363 154.357 228.247 154.398 225.129C154.443 222.009 154.731 218.898 155.26 215.823C155.464 214.651 155.66 213.698 155.827 213.056C155.888 212.712 155.984 212.375 156.114 212.05C156.101 212.399 156.055 212.746 155.978 213.086C155.857 213.736 155.706 214.689 155.539 215.868C155.088 218.938 154.835 222.034 154.783 225.137C154.748 228.236 154.909 231.334 155.267 234.413C155.403 235.6 155.524 236.552 155.623 237.21C155.7 237.55 155.738 237.897 155.736 238.246Z" fill="#263238"/>
<path d="M112.757 257.947C113.14 257.821 113.532 257.722 113.929 257.652C114.976 257.346 115.989 256.936 116.953 256.428C118.185 255.793 119.584 254.916 121.179 253.955C122.884 252.852 124.774 252.065 126.759 251.635C128.793 251.306 130.878 251.648 132.701 252.61C134.16 253.387 135.508 254.359 136.707 255.498C137.515 256.248 138.273 257.051 138.975 257.902C139.256 258.203 139.51 258.53 139.731 258.877C139.43 258.607 139.147 258.317 138.885 258.008C138.137 257.212 137.35 256.455 136.526 255.74C135.321 254.65 133.982 253.718 132.542 252.965C130.784 252.057 128.78 251.739 126.827 252.058C124.885 252.484 123.034 253.252 121.361 254.326C119.766 255.248 118.337 256.118 117.074 256.73C116.079 257.226 115.028 257.602 113.944 257.849C113.647 257.911 113.347 257.956 113.045 257.985C112.948 257.984 112.851 257.971 112.757 257.947Z" fill="#263238"/>
<path d="M128.414 242.215C128.665 242.276 128.906 242.37 129.132 242.494C129.413 242.605 129.684 242.739 129.941 242.895C130.294 243.084 130.637 243.291 130.969 243.515C131.842 244.088 132.66 244.741 133.411 245.465C135.26 247.245 136.698 249.407 137.622 251.801C138.002 252.779 138.288 253.792 138.477 254.825C138.555 255.217 138.613 255.613 138.65 256.012C138.69 256.31 138.71 256.61 138.711 256.911C138.748 257.162 138.748 257.417 138.711 257.667C138.635 257.667 138.605 256.571 138.227 254.862C138.002 253.864 137.696 252.886 137.312 251.937C136.823 250.784 136.233 249.676 135.551 248.625C134.85 247.589 134.056 246.62 133.177 245.73C132.452 245.006 131.668 244.344 130.833 243.749C129.382 242.729 128.384 242.283 128.414 242.215Z" fill="#263238"/>
<g opacity="0.4">
<path opacity="0.4" d="M138.348 256.722C136.976 253.599 134.767 250.916 131.965 248.971C129.163 247.025 125.878 245.893 122.472 245.7C121.554 245.611 120.629 245.754 119.781 246.116C119.361 246.305 119.007 246.615 118.763 247.005C118.518 247.394 118.393 247.848 118.405 248.308C118.519 248.741 118.59 249.184 118.616 249.631C118.503 250.636 117.256 250.999 116.28 251.279C114.378 251.822 112.684 252.926 111.419 254.447C110.762 255.203 110.232 256.42 110.86 257.236C111.381 257.902 112.372 257.902 113.211 257.75C116.326 257.206 119.1 255.528 121.943 254.152C124.785 252.776 127.991 251.665 131.075 252.36C134.485 253.116 137.017 255.913 139.308 258.552" fill="black"/>
</g>
<path d="M238.14 254.583C238.057 254.701 237.963 254.813 237.86 254.915L236.991 255.807C236.62 256.193 236.152 256.654 235.585 257.168C235.018 257.682 234.39 258.295 233.649 258.907C231.933 260.373 230.144 261.75 228.289 263.035C223.736 266.192 218.806 268.77 213.615 270.708C211.219 271.585 209.026 272.273 207.159 272.749C206.229 273.006 205.375 273.18 204.627 273.347C203.878 273.513 203.235 273.642 202.699 273.725L201.482 273.921C201.341 273.956 201.196 273.972 201.051 273.967C201.183 273.908 201.323 273.867 201.466 273.846L202.676 273.573C203.198 273.468 203.84 273.324 204.581 273.135C205.322 272.946 206.169 272.757 207.084 272.477C208.936 271.971 211.113 271.26 213.487 270.368C218.632 268.406 223.53 265.845 228.078 262.74C230.172 261.304 231.994 259.92 233.468 258.688C234.224 258.098 234.859 257.508 235.434 257.01C236.008 256.511 236.499 256.065 236.885 255.694L237.8 254.855C237.902 254.751 238.016 254.66 238.14 254.583Z" fill="#263238"/>
<path d="M245.186 204.876C245.185 205.046 245.167 205.216 245.133 205.383C245.08 205.753 245.004 206.237 244.914 206.834L244.082 212.126C243.387 216.609 242.472 222.823 241.534 229.688C240.597 236.552 239.781 242.744 239.168 247.288L238.458 252.617C238.367 253.215 238.299 253.698 238.246 254.069C238.23 254.238 238.197 254.405 238.148 254.568C238.127 254.397 238.127 254.225 238.148 254.054C238.178 253.681 238.223 253.197 238.284 252.602C238.427 251.287 238.624 249.472 238.873 247.25C239.395 242.714 240.174 236.507 241.141 229.635C242.109 222.763 243.039 216.556 243.802 212.081C244.196 209.813 244.513 208.028 244.77 206.789C244.884 206.199 244.982 205.723 245.057 205.352C245.08 205.189 245.123 205.029 245.186 204.876Z" fill="#263238"/>
<path d="M219.603 279.614C219.705 279.345 219.842 279.091 220.011 278.858C220.298 278.412 220.722 277.769 221.259 276.976C222.34 275.403 223.874 273.256 225.636 270.928C227.397 268.599 229.06 266.558 230.3 265.106C230.913 264.35 231.419 263.798 231.812 263.398C232.205 262.997 232.379 262.793 232.402 262.816C232.272 263.06 232.115 263.288 231.933 263.496L230.512 265.356C229.34 266.868 227.715 268.924 225.976 271.237C224.237 273.551 222.65 275.668 221.516 277.202L220.14 278.964C219.988 279.202 219.808 279.42 219.603 279.614Z" fill="#263238"/>
<path d="M268.267 263.844C267.853 263.703 267.449 263.536 267.057 263.345C266.301 263.012 265.167 262.536 263.753 262.045C260.077 260.718 256.192 260.065 252.285 260.117C251.188 260.141 250.104 260.364 249.087 260.775C248.149 261.18 247.295 261.757 246.569 262.476C245.34 263.735 244.375 265.229 243.734 266.868C243.28 267.963 242.881 269.081 242.54 270.217C242.428 270.641 242.284 271.055 242.109 271.457C242.171 271.022 242.264 270.593 242.389 270.172C242.683 269.014 243.047 267.876 243.477 266.762C244.106 265.086 245.074 263.557 246.32 262.271C247.071 261.512 247.958 260.902 248.936 260.472C249.993 260.04 251.12 259.805 252.262 259.777C256.218 259.703 260.15 260.393 263.844 261.81C264.963 262.227 266.058 262.704 267.125 263.239C267.503 263.421 267.79 263.587 267.987 263.693C268.087 263.73 268.181 263.781 268.267 263.844Z" fill="#263238"/>
<path d="M262.612 252.005C262.612 252.088 261.425 252.05 259.588 252.375C258.497 252.567 257.425 252.85 256.382 253.222C253.827 254.144 251.487 255.577 249.503 257.433C248.695 258.192 247.954 259.02 247.288 259.905C246.154 261.417 245.647 262.491 245.571 262.453C245.65 262.189 245.759 261.935 245.897 261.697C246.035 261.4 246.191 261.112 246.365 260.835C246.578 260.46 246.811 260.097 247.061 259.746C247.711 258.824 248.445 257.963 249.253 257.176C251.243 255.245 253.637 253.781 256.261 252.889C257.329 252.534 258.427 252.281 259.542 252.133C260.019 252.05 260.457 252.035 260.835 252.005C261.16 251.987 261.486 251.987 261.81 252.005C262.077 251.977 262.345 251.977 262.612 252.005Z" fill="#263238"/>
<path d="M268.69 299.913C268.322 297.442 267.34 295.103 265.833 293.111C264.325 291.119 262.342 289.538 260.064 288.512C256.458 286.902 251.483 286.531 248.059 288.512C244.634 290.493 240.053 295.361 240.983 299.194L248.837 312.387C250.86 313.853 253.276 314.679 255.773 314.758C258.27 314.838 260.734 314.167 262.846 312.833C264.914 311.424 266.553 309.473 267.584 307.194C268.615 304.915 268.998 302.395 268.69 299.913Z" fill="#E6682E"/>
<g opacity="0.4">
<path opacity="0.4" d="M268.69 299.913C268.322 297.442 267.34 295.103 265.833 293.111C264.325 291.119 262.342 289.538 260.064 288.512C256.458 286.902 251.483 286.531 248.059 288.512C244.634 290.493 240.053 295.361 240.983 299.194L248.837 312.387C250.86 313.853 253.276 314.679 255.773 314.758C258.27 314.838 260.734 314.167 262.846 312.833C264.914 311.424 266.553 309.473 267.584 307.194C268.615 304.915 268.998 302.395 268.69 299.913Z" fill="black"/>
</g>
<path d="M266.241 309.529C266.241 309.529 266.52 309 266.997 308.062C267.655 306.71 268.111 305.268 268.35 303.783C268.693 301.579 268.496 299.325 267.775 297.214C267.559 296.607 267.307 296.014 267.019 295.437C266.718 294.84 266.377 294.265 265.999 293.713C264.429 291.363 262.194 289.534 259.58 288.459C256.241 287.195 252.555 287.195 249.215 288.459C247.801 288.969 246.467 289.68 245.254 290.568C244.4 291.211 243.961 291.612 243.931 291.582C244.022 291.469 244.124 291.366 244.233 291.272C244.523 290.978 244.831 290.703 245.156 290.448C246.351 289.491 247.687 288.726 249.117 288.18C252.514 286.841 256.288 286.817 259.701 288.111C261.043 288.649 262.295 289.388 263.413 290.304C264.529 291.223 265.505 292.3 266.309 293.502C266.689 294.072 267.035 294.666 267.344 295.278C267.635 295.871 267.888 296.482 268.1 297.108C268.828 299.273 269.002 301.586 268.607 303.836C268.337 305.342 267.826 306.794 267.095 308.138C266.838 308.607 266.588 308.954 266.437 309.189C266.388 309.311 266.322 309.425 266.241 309.529Z" fill="#263238"/>
<path d="M244.642 290.977C244.528 290.977 243.613 285.821 242.585 279.417C241.557 273.014 240.816 267.813 240.922 267.79C241.028 267.767 241.95 272.954 242.978 279.357C244.007 285.76 244.747 290.962 244.642 290.977Z" fill="#263238"/>
<g opacity="0.4">
<path opacity="0.4" d="M239.516 260.759L243.53 260.48C246.19 256.396 250.356 253.529 255.12 252.504C256.215 252.217 257.363 252.194 258.469 252.436C259.02 252.563 259.528 252.832 259.944 253.215C260.36 253.598 260.67 254.082 260.843 254.621C260.982 255.168 260.902 255.748 260.619 256.237C260.337 256.725 259.874 257.084 259.331 257.237C260.446 257.529 261.489 258.05 262.392 258.768C263.295 259.485 264.039 260.382 264.577 261.402C264.804 261.833 264.97 262.423 264.63 262.77C264.371 262.966 264.045 263.053 263.723 263.012C261.871 263.012 260.034 262.597 258.182 262.513C256.328 262.325 254.464 262.764 252.89 263.761C251.378 264.842 250.561 266.603 249.866 268.297C247.315 274.404 245.429 280.769 244.241 287.28C243.311 283.598 243.228 279.72 242.555 276.227C241.595 271.275 240.665 266.21 239.531 260.775" fill="black"/>
</g>
<g opacity="0.4">
<path opacity="0.4" d="M152.447 294.144C157.445 299.474 164.188 301.969 171.408 303.148C178.628 304.328 185.999 303.904 193.332 303.496C195.131 303.39 197.263 303.08 198.049 301.455C198.609 300.298 198.223 298.93 197.777 297.735C194.557 289.215 188.191 282.328 181.969 275.683C179.701 273.248 177.267 270.723 174.084 269.741C170.584 268.667 166.607 269.612 163.288 268.07C159.297 266.218 157.671 261.515 156.439 257.289L153.899 248.595C154.458 258.068 154.36 265.681 154.36 265.681C154.36 265.681 151.744 283.19 152.092 287.159C152.44 291.128 152.447 294.144 152.447 294.144Z" fill="black"/>
</g>
<path d="M202.215 186.067C201.878 186.03 201.545 185.957 201.225 185.847C200.589 185.689 199.713 185.409 198.579 185.016C195.704 183.984 192.947 182.652 190.353 181.039C187.757 179.427 185.338 177.547 183.133 175.43C182.294 174.613 181.621 173.918 181.221 173.426C180.979 173.188 180.766 172.921 180.586 172.633C180.857 172.84 181.11 173.07 181.342 173.321C181.795 173.789 182.476 174.439 183.338 175.226C187.816 179.33 193.021 182.563 198.684 184.759C199.765 185.182 200.657 185.515 201.277 185.704C201.6 185.797 201.914 185.919 202.215 186.067Z" fill="#263238"/>
<path d="M223.292 181.871C223.23 182.073 223.133 182.262 223.005 182.43C222.716 182.923 222.39 183.393 222.03 183.836C219.646 186.801 216.373 188.921 212.693 189.884C212.143 190.035 211.582 190.144 211.015 190.209C210.809 190.255 210.597 190.268 210.387 190.247C210.387 190.179 211.257 190.036 212.617 189.62C214.389 189.066 216.078 188.276 217.637 187.269C219.188 186.253 220.592 185.029 221.81 183.632C222.748 182.581 223.232 181.833 223.292 181.871Z" fill="#263238"/>
<path d="M226.8 186.535C225.643 189.499 223.455 191.944 220.639 193.423C221.83 192.433 222.968 191.38 224.048 190.27C225.03 189.074 225.949 187.827 226.8 186.535Z" fill="#263238"/>
<path d="M187.14 276.431L187.609 276.333C189.287 276.008 194.851 274.995 195.751 275.895C196.802 276.953 204.339 284.354 204.339 284.354C204.339 284.354 202.888 286.736 198.125 284.354C193.362 281.973 187.14 276.431 187.14 276.431Z" fill="#FFBE9D"/>
<path d="M176.45 261.394C177.27 260.85 178.267 260.642 179.236 260.814C180.204 260.985 181.07 261.524 181.652 262.317L204.627 292.791L198.737 297.108L175.536 266.928C175.213 266.512 174.98 266.034 174.851 265.523C174.722 265.013 174.7 264.481 174.786 263.962C174.871 263.442 175.064 262.946 175.35 262.504C175.637 262.063 176.011 261.685 176.45 261.394Z" fill="#263238"/>
<path d="M123.916 281.799C123.916 281.799 151.2 286.229 154.98 286.524C158.76 286.819 169.11 297.796 172.111 298.847C175.112 299.898 183.239 299.746 183.239 299.746C183.239 299.746 197.966 300.502 198.42 299.746C198.873 298.99 199.773 299.142 198.42 296.284C197.581 294.533 196.568 292.872 195.396 291.325C195.396 291.325 199.176 295.981 200.211 296.133C201.247 296.284 203.515 296.556 203.364 294.545C203.213 292.534 199.304 284.264 199.304 284.264C199.304 284.264 197.656 280.4 194.647 279.546C191.638 278.692 178.56 272.387 178.56 272.387H164.574L148.259 264.63C148.259 264.63 138.386 261.455 128.989 271.82C127.158 273.879 125.767 276.289 124.899 278.903L123.916 281.799Z" fill="#FFBE9D"/>
<path d="M201.928 290.493C201.757 290.247 201.62 289.98 201.519 289.699C201.255 289.094 200.93 288.353 200.552 287.476C200.174 286.599 199.667 285.39 199.153 284.165C198.728 282.792 197.898 281.58 196.772 280.687C196.157 280.264 195.501 279.904 194.814 279.614L192.886 278.752C191.646 278.208 190.527 277.739 189.59 277.346L187.322 276.416C187.042 276.318 186.773 276.192 186.52 276.038C186.815 276.085 187.104 276.164 187.382 276.272C187.919 276.454 188.705 276.726 189.65 277.081C190.595 277.437 191.744 277.89 192.992 278.419L194.935 279.266C195.651 279.558 196.333 279.928 196.968 280.37C198.155 281.31 199.023 282.593 199.455 284.044C199.947 285.276 200.385 286.403 200.771 287.378C201.156 288.353 201.391 289.026 201.625 289.646C201.755 289.917 201.856 290.201 201.928 290.493Z" fill="#EB996E"/>
<path d="M188.244 282.918C188.771 283.228 189.256 283.604 189.688 284.037C190.77 285.019 191.781 286.078 192.712 287.204C193.66 288.329 194.524 289.521 195.297 290.773C195.649 291.27 195.934 291.811 196.144 292.383C195.742 291.929 195.381 291.44 195.063 290.924C194.421 290.009 193.506 288.762 192.41 287.454C191.313 286.146 190.255 285.035 189.461 284.241C189.017 283.837 188.61 283.394 188.244 282.918Z" fill="#EB996E"/>
<path d="M196.008 299.973C195.805 299.933 195.61 299.856 195.434 299.746C194.932 299.493 194.452 299.2 193.997 298.869C192.53 297.745 191.193 296.459 190.013 295.036C188.599 293.411 187.337 291.929 186.445 290.841C185.93 290.277 185.462 289.673 185.046 289.034C185.628 289.526 186.164 290.07 186.649 290.659C187.601 291.702 188.917 293.154 190.308 294.772C191.476 296.173 192.766 297.469 194.163 298.642C195.26 299.519 196.038 299.92 196.008 299.973Z" fill="#EB996E"/>
<path d="M187.904 299.958C187.405 299.79 186.931 299.554 186.498 299.255C185.409 298.61 184.359 297.904 183.353 297.138C182.349 296.374 181.385 295.559 180.465 294.696C180.058 294.36 179.695 293.974 179.384 293.547C179.467 293.456 181.259 295.059 183.595 296.828C185.931 298.597 187.964 299.86 187.904 299.958Z" fill="#EB996E"/>
<path d="M232.667 311.298C232.667 311.298 230.27 307.594 229.937 306.271C229.605 304.948 229.937 298.65 225.522 299.641V300.132C225.636 300.669 225.522 313.475 225.522 313.475L232.667 311.298Z" fill="#FFBE9D"/>
<path d="M176.095 318.004C176.095 318.004 172.02 355.607 216.05 354.511C251.945 353.619 251.317 318.631 251.317 318.631L176.095 318.004Z" fill="#00A98C"/>
<path d="M213.048 328.278C235.708 328.278 254.076 323.837 254.076 318.359C254.076 312.881 235.708 308.44 213.048 308.44C190.389 308.44 172.02 312.881 172.02 318.359C172.02 323.837 190.389 328.278 213.048 328.278Z" fill="#00A98C"/>
<path opacity="0.4" d="M213.661 324.271C234.458 324.271 251.317 321.465 251.317 318.004C251.317 314.542 234.458 311.736 213.661 311.736C192.864 311.736 176.004 314.542 176.004 318.004C176.004 321.465 192.864 324.271 213.661 324.271Z" fill="black"/>
<path d="M252.685 321.194L252.504 321.3L251.997 321.617C251.551 321.897 250.871 322.283 249.979 322.736C247.44 324.007 244.774 325.008 242.026 325.723C237.95 326.751 233.815 327.524 229.643 328.036C224.528 328.612 219.382 328.865 214.235 328.792C208.769 328.747 203.553 328.565 198.828 328.149C194.637 327.803 190.475 327.156 186.377 326.214C183.615 325.578 180.906 324.734 178.272 323.689C177.335 323.334 176.632 322.986 176.148 322.774L175.611 322.517C175.483 322.464 175.422 322.426 175.43 322.419C175.497 322.436 175.563 322.459 175.626 322.487L176.186 322.706C176.677 322.895 177.38 323.213 178.325 323.545C180.973 324.532 183.686 325.332 186.445 325.942C190.535 326.842 194.683 327.459 198.858 327.786C203.576 328.18 208.777 328.353 214.243 328.399C219.372 328.463 224.5 328.211 229.597 327.643C233.756 327.154 237.882 326.412 241.95 325.42C244.692 324.736 247.358 323.781 249.911 322.57C250.803 322.132 251.499 321.776 251.952 321.519L252.481 321.232C252.617 321.217 252.678 321.187 252.685 321.194Z" fill="#263238"/>
<path d="M227.556 317.157C227.556 317.157 232.047 302.105 233.604 300.102C234.882 298.446 243.931 291.597 247.038 289.276C247.804 288.698 248.674 288.274 249.601 288.028C252.678 287.219 255.755 286.675 260.82 288.867C262.418 289.575 263.855 290.601 265.043 291.882C266.231 293.164 267.145 294.675 267.73 296.322L250.833 306.822L250.176 313.929L236.568 310.459C236.633 309.744 236.494 309.026 236.167 308.387C236.167 308.387 231.843 318.865 227.556 317.157Z" fill="#FFBE9D"/>
<path d="M211.242 306.467C209.525 304.199 208.097 302.014 206.963 300.162C205.829 298.31 205.02 296.753 204.483 295.626C204.236 295.042 203.941 294.481 203.598 293.948C203.774 294.557 203.999 295.152 204.271 295.724C204.962 297.306 205.739 298.848 206.6 300.344C207.89 302.551 209.293 304.691 210.803 306.754C212.497 309.09 214.485 311.57 216.594 314.133C219.542 317.671 222.264 320.975 224.479 323.87H225.091C222.876 320.846 220.087 317.422 217.055 313.778C214.946 311.23 212.958 308.773 211.242 306.467Z" fill="#F5F5F5"/>
<path d="M200.446 295.687C200.636 296.287 200.873 296.871 201.156 297.433C201.648 298.552 202.359 300.162 203.198 302.165C205.378 307.388 207.278 312.723 208.89 318.147C209.48 320.272 210.108 322.336 210.848 324.248H211.453C210.697 322.305 210.077 320.204 209.457 317.989C207.852 312.538 205.89 307.199 203.583 302.007C202.691 300.018 201.92 298.431 201.368 297.342C201.106 296.766 200.797 296.213 200.446 295.687Z" fill="#F5F5F5"/>
<path d="M201.928 293.88C202.151 294.475 202.422 295.051 202.737 295.603C203.296 296.7 204.12 298.272 205.156 300.207C207.235 304.071 210.145 309.4 213.691 315.093C215.747 318.404 217.811 321.436 219.739 324.089H220.374C218.454 321.36 216.337 318.223 214.22 314.798C210.682 309.121 207.719 303.836 205.549 300.026L202.963 295.49C202.663 294.926 202.317 294.387 201.928 293.88Z" fill="#F5F5F5"/>
<path d="M234.987 319.72C233.494 316.19 231.21 313.05 228.312 310.542C225.717 308.293 222.935 306.27 219.996 304.494C217.282 302.778 214.704 301.22 212.512 299.64C208.998 297.151 205.804 294.238 203.001 290.969C202.011 289.812 201.277 288.875 200.794 288.24L200.234 287.484C200.178 287.396 200.109 287.317 200.03 287.25C200.071 287.347 200.124 287.438 200.189 287.522L200.695 288.278C201.156 288.943 201.852 289.903 202.827 291.09C205.58 294.438 208.753 297.416 212.27 299.95C214.485 301.561 217.032 303.148 219.731 304.879C222.636 306.66 225.385 308.683 227.949 310.927C230.783 313.388 233.015 316.466 234.473 319.924C234.908 320.953 235.245 322.021 235.479 323.114L236.069 323.054C235.811 321.912 235.449 320.795 234.987 319.72Z" fill="#F5F5F5"/>
<path d="M233.604 322.214C232.618 319.724 231.257 317.398 229.567 315.32C227.486 312.796 225.127 310.513 222.536 308.516C219.822 306.361 217.108 304.501 214.689 302.755C212.27 301.009 210.153 299.376 208.429 297.909C207.079 296.751 205.797 295.517 204.589 294.212C204.171 293.705 203.724 293.223 203.251 292.768C203.318 292.928 203.41 293.075 203.523 293.207C203.712 293.479 204.014 293.872 204.415 294.363C205.564 295.738 206.812 297.027 208.149 298.219C210.137 299.98 212.211 301.64 214.364 303.194C216.775 304.97 219.474 306.845 222.166 308.977C224.722 310.946 227.061 313.181 229.144 315.645C230.821 317.666 232.191 319.923 233.211 322.343C233.347 322.668 233.46 322.986 233.574 323.296L233.967 323.258C233.876 322.933 233.77 322.585 233.604 322.214Z" fill="#F5F5F5"/>
<path d="M213.804 318.714C210.901 313.422 208.459 308.493 206.728 304.917L204.687 300.684C204.463 300.158 204.195 299.652 203.886 299.172C204.034 299.73 204.231 300.274 204.475 300.797C204.899 301.825 205.526 303.299 206.343 305.114C207.983 308.735 210.372 313.687 213.275 319.017C214.265 320.823 215.241 322.555 216.186 324.188H216.836C215.861 322.441 214.84 320.619 213.804 318.714Z" fill="#F5F5F5"/>
<path d="M219.845 311.925C215.772 307.917 211.921 303.69 208.308 299.262C206.925 297.561 205.836 296.163 205.073 295.195C204.707 294.66 204.3 294.154 203.855 293.683C204.156 294.247 204.502 294.786 204.891 295.293C205.594 296.306 206.63 297.75 207.983 299.489C211.508 304.024 215.331 308.317 219.429 312.341C221.818 314.707 224.245 316.794 226.278 318.843C227.751 320.289 229.08 321.873 230.247 323.575H230.746C229.58 321.734 228.214 320.028 226.671 318.487C224.63 316.371 222.219 314.277 219.845 311.925Z" fill="#F5F5F5"/>
<path d="M207.431 322.336C206.426 319.312 205.745 316.378 205.11 313.725C203.886 308.433 202.744 304.101 201.527 301.281C200.958 299.798 200.231 298.381 199.357 297.055C199.357 297.055 199.357 297.161 199.478 297.342L199.902 298.159C200.257 298.877 200.771 299.943 201.315 301.364C202.457 304.199 203.53 308.486 204.695 313.823C205.315 316.484 205.972 319.41 206.963 322.487C207.159 323.069 207.378 323.659 207.598 324.256H208.142C207.9 323.613 207.651 322.963 207.431 322.336Z" fill="#F5F5F5"/>
<path d="M237.898 313.203C237.958 313.195 238.019 313.195 238.08 313.203C238.256 313.194 238.432 313.194 238.609 313.203C239.07 313.241 239.75 313.317 240.62 313.437C243.081 313.777 245.511 314.315 247.885 315.048C248.666 315.324 249.424 315.66 250.153 316.053C250.562 316.268 250.916 316.573 251.189 316.945C251.325 317.156 251.414 317.393 251.451 317.64C251.487 317.888 251.47 318.141 251.4 318.382C251.318 318.623 251.188 318.845 251.02 319.035C250.851 319.226 250.646 319.382 250.417 319.493C250.004 319.765 249.566 319.998 249.11 320.189C248.174 320.589 247.211 320.925 246.229 321.194C241.875 322.379 237.437 323.23 232.954 323.742C224.812 324.609 216.614 324.837 208.437 324.422C205.299 324.301 202.767 324.15 201.013 324.044L198.994 323.901L198.473 323.855C198.413 323.868 198.351 323.868 198.291 323.855H199.002L201.02 323.923L208.444 324.173C216.607 324.513 224.783 324.26 232.908 323.417C237.371 322.903 241.79 322.064 246.131 320.907C247.098 320.643 248.048 320.318 248.973 319.932C249.414 319.753 249.837 319.533 250.236 319.274C250.627 319.089 250.933 318.762 251.09 318.359C251.149 318.162 251.165 317.955 251.136 317.751C251.107 317.548 251.035 317.353 250.924 317.18C250.68 316.845 250.365 316.569 250.002 316.371C249.289 315.983 248.549 315.65 247.787 315.373C245.431 314.621 243.023 314.044 240.582 313.649C239.72 313.506 239.07 313.4 238.594 313.339C238.117 313.279 237.898 313.218 237.898 313.203Z" fill="#263238"/>
<path d="M241.565 303.912C241.633 304.003 240.227 305.099 238.616 306.588C237.006 308.077 235.804 309.393 235.713 309.317C237.257 307.119 239.252 305.277 241.565 303.912Z" fill="#EB996E"/>
<path d="M241.232 309.869C240.455 309.575 239.636 309.404 238.805 309.363C237.975 309.44 237.162 309.644 236.394 309.968C236.394 309.93 236.56 309.703 236.983 309.461C237.535 309.148 238.156 308.979 238.79 308.97C239.427 308.954 240.059 309.097 240.627 309.385C241.058 309.612 241.262 309.831 241.232 309.869Z" fill="#EB996E"/>
<path d="M104.094 153.831C103.655 154.179 79.6824 164.944 79.6824 164.944C79.6824 164.944 86.2823 178.961 99.089 172.716C110.784 167.016 104.094 153.831 104.094 153.831Z" fill="#455A64"/>
<path d="M103.829 76.4092C104.366 76.4092 104.812 95.0219 104.812 117.989C104.812 140.956 104.366 159.569 103.829 159.569C103.292 159.569 102.839 140.964 102.839 117.989C102.839 95.0143 103.285 76.4092 103.829 76.4092Z" fill="#455A64"/>
<path d="M86.7662 132.557C86.3277 132.905 62.3549 143.67 62.3549 143.67C62.3549 143.67 68.9548 157.687 81.769 151.442C93.4643 145.742 86.7662 132.557 86.7662 132.557Z" fill="#455A64"/>
<path d="M86.5015 75.0029C87.0459 75.0029 87.4843 89.1704 87.4843 106.642C87.4843 124.113 87.0459 138.28 86.5015 138.28C85.9572 138.28 85.5187 124.113 85.5187 106.642C85.5187 89.1704 85.9572 75.0029 86.5015 75.0029Z" fill="#455A64"/>
<path d="M65.772 111.578C65.326 111.918 41.3532 122.684 41.3532 122.684C41.3532 122.684 47.9606 136.7 60.7673 130.455C72.4777 124.74 65.772 111.578 65.772 111.578Z" fill="#455A64"/>
<path d="M65.515 77.1123C66.0593 77.1123 66.4978 86.1011 66.4978 97.1841C66.4978 108.267 66.0593 117.263 65.515 117.263C64.9706 117.263 64.5322 108.275 64.5322 97.1841C64.5322 86.0936 64.9706 77.1123 65.515 77.1123Z" fill="#455A64"/>
<path d="M132.345 157.649C145.873 157.649 156.84 146.682 156.84 133.155C156.84 119.627 145.873 108.66 132.345 108.66C118.817 108.66 107.851 119.627 107.851 133.155C107.851 146.682 118.817 157.649 132.345 157.649Z" fill="#455A64"/>
<path d="M131.431 111.404L129.51 79.9019H138.537L136.035 111.404H131.431Z" fill="#455A64"/>
<path d="M142.65 150.338L142.491 150.451L141.992 150.739C141.773 150.86 141.508 151.034 141.175 151.192L140.011 151.714C137.487 152.736 134.781 153.235 132.058 153.181C128.006 153.112 124.063 151.855 120.718 149.567C118.75 148.2 117.068 146.461 115.766 144.449C112.946 140.101 111.834 134.863 112.644 129.745C113.01 127.378 113.834 125.105 115.071 123.054C117.201 119.593 120.3 116.833 123.984 115.116C126.45 113.958 129.124 113.31 131.846 113.211H133.056C133.426 113.211 133.736 113.271 133.986 113.287L134.553 113.355C134.618 113.347 134.684 113.347 134.749 113.355H134.568H133.993C133.744 113.355 133.434 113.309 133.064 113.309H131.801C129.113 113.471 126.482 114.151 124.052 115.313C120.445 117.051 117.422 119.801 115.351 123.228C114.143 125.243 113.339 127.475 112.984 129.798C112.206 134.823 113.301 139.959 116.061 144.23C117.33 146.205 118.97 147.915 120.892 149.265C123.65 151.154 126.824 152.35 130.143 152.751C133.462 153.152 136.829 152.747 139.958 151.57L141.123 151.079C141.463 150.928 141.727 150.777 141.954 150.663L142.468 150.406L142.65 150.338Z" fill="#263238"/>
<path d="M34.141 39.1533L42.8123 70.5273H79.5464L88.2252 39.1533H34.141Z" fill="#455A64"/>
<path d="M86.5016 45.3601C86.5016 45.4735 75.1616 45.5643 61.1831 45.5643C47.2047 45.5643 35.8647 45.4811 35.8647 45.3601C35.8647 45.2392 47.2047 45.1636 61.1831 45.1636C75.1616 45.1636 86.5016 45.2619 86.5016 45.3601Z" fill="#263238"/>
<path d="M93.2375 47.2425H85.6775L86.8871 43.9614H93.1997C93.6348 43.9614 94.0521 44.1343 94.3597 44.4419C94.6674 44.7496 94.8402 45.1669 94.8402 45.6019C94.8403 46.0306 94.6727 46.4422 94.3732 46.7488C94.0736 47.0554 93.666 47.2326 93.2375 47.2425Z" fill="#263238"/>
<path d="M29.0682 47.2425H36.5904L35.3884 43.9614H29.0682C28.6331 43.9614 28.2158 44.1343 27.9082 44.4419C27.6005 44.7496 27.4277 45.1669 27.4277 45.6019C27.4277 46.037 27.6005 46.4543 27.9082 46.762C28.2158 47.0696 28.6331 47.2425 29.0682 47.2425Z" fill="#263238"/>
<path d="M162.049 70.104H24.8573V79.9093H162.049V70.104Z" fill="#00DBB6"/>
<path d="M339.535 209.729C338.526 209.336 337.403 209.359 336.411 209.792C335.419 210.226 334.639 211.035 334.243 212.043L328.157 228.35L335.717 231.132L341.856 214.984C342.239 213.979 342.21 212.863 341.776 211.879C341.341 210.895 340.536 210.123 339.535 209.729Z" fill="#E6682E"/>
<path d="M339.368 214.885C339.368 215.23 339.266 215.566 339.075 215.852C338.883 216.138 338.611 216.361 338.293 216.492C337.975 216.624 337.625 216.658 337.288 216.59C336.95 216.522 336.64 216.356 336.397 216.112C336.155 215.868 335.99 215.558 335.923 215.22C335.857 214.882 335.893 214.532 336.025 214.215C336.158 213.897 336.382 213.626 336.669 213.436C336.956 213.246 337.293 213.145 337.637 213.147C337.865 213.145 338.092 213.19 338.303 213.277C338.514 213.364 338.705 213.492 338.866 213.654C339.027 213.816 339.155 214.008 339.241 214.219C339.327 214.431 339.37 214.657 339.368 214.885Z" fill="#FAFAFA"/>
<path d="M335.059 225.575C335.061 225.919 334.96 226.256 334.77 226.543C334.58 226.83 334.309 227.054 333.991 227.187C333.673 227.32 333.324 227.355 332.986 227.289C332.648 227.223 332.337 227.058 332.094 226.815C331.85 226.572 331.683 226.262 331.616 225.925C331.548 225.587 331.582 225.237 331.713 224.919C331.845 224.601 332.067 224.329 332.354 224.138C332.64 223.946 332.976 223.844 333.32 223.844C333.78 223.844 334.221 224.026 334.547 224.351C334.873 224.675 335.057 225.115 335.059 225.575Z" fill="#FAFAFA"/>
<path d="M328.172 228.35L316.446 258.937L330.878 258.756L342.649 233.483L328.172 228.35Z" fill="#E0E0E0"/>
<path d="M339.074 258.938H298.628V305.454H339.074V258.938Z" fill="#00A98C"/>
<path d="M339.074 270.519C339.074 270.633 330.002 270.723 318.851 270.723C307.7 270.723 298.62 270.648 298.62 270.519C298.62 270.391 307.692 270.323 318.843 270.323C329.994 270.323 339.074 270.413 339.074 270.519Z" fill="white"/>
<path d="M339.074 275.532C339.074 275.638 330.002 275.728 318.851 275.728C307.7 275.728 298.62 275.638 298.62 275.532C298.62 275.426 307.692 275.335 318.843 275.335C329.994 275.335 339.074 275.418 339.074 275.532Z" fill="white"/>
<path d="M339.074 280.536C339.074 280.65 330.002 280.733 318.851 280.733C307.7 280.733 298.628 280.65 298.628 280.536C298.628 280.423 307.7 280.34 318.851 280.34C330.002 280.34 339.074 280.431 339.074 280.536Z" fill="white"/>
<path d="M339.074 285.549C339.074 285.654 330.002 285.745 318.851 285.745C307.7 285.745 298.628 285.654 298.628 285.549C298.628 285.443 307.7 285.352 318.851 285.352C330.002 285.352 339.074 285.435 339.074 285.549Z" fill="white"/>
<path d="M339.074 290.553C339.074 290.659 330.002 290.75 318.851 290.75C307.7 290.75 298.628 290.659 298.628 290.553C298.628 290.448 307.7 290.357 318.851 290.357C330.002 290.357 339.074 290.448 339.074 290.553Z" fill="white"/>
<path d="M339.074 295.596C339.074 295.709 330.002 295.793 318.851 295.793C307.7 295.793 298.62 295.672 298.62 295.596C298.62 295.52 307.692 295.399 318.843 295.399C329.994 295.399 339.074 295.452 339.074 295.596Z" fill="white"/>
<path d="M274.859 233.332L301.901 235.494C301.901 235.494 302.657 222.362 290.002 220.971C277.346 219.58 274.859 233.332 274.859 233.332Z" fill="#455A64"/>
<path d="M309.317 258.938C308.803 259.111 305.991 252.375 303.043 243.886C300.094 235.396 298.113 228.357 298.628 228.183C299.142 228.01 301.946 234.746 304.902 243.235C307.858 251.725 309.831 258.756 309.317 258.938Z" fill="#455A64"/>
<path d="M310.935 348.017C310.761 348.074 310.581 348.115 310.398 348.138L308.849 348.395L307.73 348.569C307.314 348.622 306.868 348.652 306.384 348.705C305.416 348.788 304.32 348.932 303.103 348.947L301.19 349.007C300.525 349.007 299.83 349.007 299.111 349.007C297.675 349.007 296.148 348.864 294.575 348.735C287.575 348.059 280.742 346.195 274.368 343.224C272.924 342.513 271.533 341.856 270.293 341.122C269.673 340.767 269.06 340.442 268.493 340.087L266.868 339.021C265.825 338.386 264.955 337.698 264.169 337.138C263.776 336.851 263.413 336.594 263.08 336.337L262.203 335.581L261.001 334.575C260.858 334.463 260.724 334.339 260.601 334.205C260.765 334.288 260.917 334.392 261.054 334.515L262.302 335.46L263.194 336.155C263.527 336.405 263.897 336.654 264.298 336.911C265.091 337.456 265.968 338.121 267.019 338.741L268.637 339.746C269.204 340.094 269.816 340.404 270.436 340.752C271.676 341.47 273.06 342.113 274.504 342.816C277.686 344.248 280.971 345.441 284.332 346.384C287.696 347.281 291.122 347.923 294.583 348.304C296.178 348.44 297.698 348.599 299.119 348.607C299.837 348.607 300.525 348.675 301.183 348.66L303.096 348.622C304.305 348.622 305.401 348.501 306.369 348.44C306.845 348.44 307.299 348.38 307.707 348.334L308.826 348.198L310.383 348.009C310.567 347.998 310.752 348.001 310.935 348.017Z" fill="#455A64"/>
<path d="M278.745 345.038C273.075 344.282 265.666 346.475 261.417 350.33C267.443 349.521 273.295 347.733 278.745 345.038Z" fill="#455A64"/>
<path d="M279.032 345.106C281.111 339.769 278.042 332.254 278.042 332.254C277.444 331.241 277.709 339.187 279.032 345.106Z" fill="#455A64"/>
<path d="M270.081 340.873C271.593 336.957 269.393 331.453 269.393 331.453C268.97 330.697 269.144 336.541 270.081 340.873Z" fill="#455A64"/>
<path d="M287.046 347.004C288.558 343.088 286.358 337.584 286.358 337.584C285.927 336.828 286.101 342.672 287.046 347.004Z" fill="#455A64"/>
<path d="M270.255 340.956C266.029 340.396 260.518 342.029 257.365 344.887C261.847 344.288 266.201 342.96 270.255 340.956Z" fill="#455A64"/>
<path d="M287.907 347.601C281.912 347.684 274.579 351.086 270.761 355.705C276.88 353.956 282.672 351.219 287.907 347.601Z" fill="#455A64"/>
<path d="M310.754 318.971C309.532 317.135 307.835 315.665 305.844 314.715C303.854 313.766 301.643 313.373 299.447 313.578C297.251 313.784 295.152 314.58 293.371 315.882C291.591 317.184 290.197 318.944 289.336 320.975C287.963 324.452 288.026 328.332 289.51 331.763C291.016 335.156 293.467 338.043 296.571 340.079C304.562 345.522 316.152 345.273 323.576 339.081C326.335 336.813 328.55 333.645 329.057 330.092C329.351 328.025 329.06 325.917 328.219 324.006C327.378 322.095 326.02 320.457 324.297 319.278C322.574 318.098 320.555 317.424 318.47 317.331C316.384 317.238 314.314 317.73 312.493 318.752" fill="#E6682E"/>
<path d="M310.784 318.956C310.519 317.984 309.918 317.138 309.087 316.567C308.257 315.997 307.251 315.74 306.248 315.842L308.924 319.024C308.197 319.124 307.509 319.415 306.931 319.868C306.353 320.321 305.906 320.92 305.636 321.602C305.515 321.927 305.477 322.358 305.787 322.555C305.897 322.591 306.013 322.603 306.128 322.59C306.243 322.577 306.353 322.539 306.452 322.479L309.703 321.134C309.926 322.947 310.591 324.679 311.638 326.176C312.382 324.584 312.799 322.859 312.863 321.103L316.454 322.691C316.17 321.658 315.583 320.733 314.768 320.037C315.839 319.834 316.864 319.437 317.792 318.866C318.072 318.692 318.374 318.397 318.253 318.11C318.132 317.822 317.86 317.815 317.611 317.792C315.239 317.567 312.855 318.062 310.769 319.213" fill="#455A64"/>
<path d="M310.55 320.302C311.107 316.668 310.801 312.955 309.658 309.461C310.512 309.272 311.563 309.144 312.122 309.824C312.399 310.252 312.527 310.76 312.485 311.268C312.526 314.707 311.873 318.119 310.565 321.3" fill="#455A64"/>
<path d="M293.116 333.313C292.904 333.154 292.715 332.966 292.557 332.753C292.092 332.196 291.689 331.591 291.355 330.946C290.218 328.803 289.817 326.347 290.214 323.953C290.61 321.56 291.781 319.364 293.547 317.701C294.067 317.197 294.643 316.753 295.263 316.378C295.485 316.231 295.723 316.112 295.974 316.023C295.193 316.601 294.448 317.228 293.744 317.898C292.082 319.558 290.982 321.697 290.598 324.014C290.215 326.331 290.567 328.711 291.604 330.818C292.055 331.681 292.56 332.514 293.116 333.313Z" fill="white"/>
<path d="M296.722 336.034C296.685 336.133 296.118 336.034 295.543 335.603C294.969 335.173 294.674 334.696 294.787 334.628C294.901 334.56 295.279 334.908 295.8 335.286C296.322 335.664 296.76 335.929 296.722 336.034Z" fill="white"/>
<path d="M144.797 277.49C144.464 277.565 146.906 289.828 146.906 289.828H153.151L155.91 277.981C152.33 276.753 148.471 276.583 144.797 277.49Z" fill="#455A64"/>
<path d="M141.032 346.52C141.032 346.52 131.839 320.771 133.124 313.785C134.409 306.8 137.169 305.326 139.376 303.118C141.584 300.911 143.421 299.074 143.973 296.866C144.525 294.659 143.973 285.836 143.973 285.836C143.973 285.836 142.317 283.258 142.869 282.343C143.421 281.429 157.029 282.343 157.029 282.343C156.952 283.465 156.57 284.545 155.925 285.466C155.925 285.466 155.562 295.762 156.114 296.866C156.666 297.97 165.126 307.352 166.411 312.13C167.696 316.908 161.33 346.52 161.33 346.52H141.032Z" fill="#F5F5F5"/>
<path d="M141.032 346.52H141.387H142.423H146.415L161.33 346.452L161.209 346.55C161.965 342.808 162.835 338.567 163.697 333.902C164.559 329.238 165.458 324.142 166.086 318.677C166.229 317.308 166.358 315.925 166.388 314.511C166.519 313.096 166.215 311.675 165.519 310.436C164.113 307.817 162.47 305.332 160.612 303.012C159.69 301.803 158.722 300.601 157.747 299.391C157.263 298.779 156.772 298.174 156.295 297.539C156.168 297.374 156.049 297.203 155.94 297.025C155.864 296.823 155.813 296.612 155.789 296.397C155.732 295.999 155.696 295.598 155.683 295.195C155.539 292.012 155.638 288.792 155.728 285.518V285.466V285.42C155.865 285.193 156.016 284.951 156.144 284.664C156.512 283.96 156.733 283.188 156.794 282.396L156.976 282.585C153.876 282.389 150.807 282.237 147.806 282.184C146.334 282.131 144.861 282.189 143.398 282.358C143.26 282.381 143.127 282.427 143.005 282.494C142.938 282.617 142.907 282.756 142.914 282.895C142.936 283.238 143.013 283.575 143.141 283.893C143.401 284.551 143.719 285.183 144.094 285.783V285.828V285.874C144.23 288.225 144.328 290.538 144.336 292.814C144.353 293.947 144.311 295.08 144.207 296.208C144.065 297.336 143.642 298.41 142.975 299.331C142.349 300.22 141.648 301.055 140.881 301.825C140.125 302.581 139.369 303.337 138.613 304.056C137.843 304.728 137.115 305.447 136.435 306.21C135.795 306.964 135.252 307.794 134.818 308.682C134.009 310.406 133.451 312.236 133.162 314.118C133.067 315.018 133.067 315.925 133.162 316.824C133.222 317.709 133.343 318.586 133.464 319.44C133.997 322.588 134.689 325.706 135.536 328.784C137.048 334.409 138.469 338.839 139.444 341.886C139.943 343.398 140.329 344.554 140.593 345.363C140.722 345.749 140.813 346.051 140.888 346.263C140.964 346.475 140.979 346.573 140.979 346.573C140.932 346.478 140.891 346.379 140.858 346.278L140.525 345.386C140.246 344.63 139.837 343.436 139.323 341.924C138.303 338.9 136.836 334.477 135.294 328.845C134.538 326.032 133.744 322.918 133.177 319.486C133.048 318.624 132.928 317.747 132.859 316.84C132.758 315.92 132.758 314.992 132.859 314.073C133.148 312.157 133.711 310.294 134.53 308.539C134.974 307.624 135.531 306.768 136.186 305.991C136.871 305.216 137.606 304.486 138.386 303.806C139.142 303.103 139.898 302.347 140.616 301.583C141.37 300.824 142.058 300.002 142.672 299.126C143.304 298.252 143.704 297.233 143.837 296.163C143.934 295.049 143.975 293.932 143.958 292.814C143.958 290.546 143.844 288.24 143.708 285.896V285.987C143.311 285.366 142.977 284.708 142.71 284.022C142.571 283.661 142.487 283.281 142.461 282.895C142.447 282.67 142.509 282.447 142.635 282.26C142.805 282.106 143.019 282.008 143.247 281.98C144.739 281.803 146.243 281.742 147.745 281.799C150.769 281.844 153.793 281.995 156.938 282.2H157.248V282.389C157.19 283.249 156.956 284.088 156.56 284.853C156.425 285.113 156.276 285.365 156.114 285.609V285.511C156.023 288.769 155.925 291.997 156.061 295.15C156.077 295.539 156.112 295.928 156.167 296.314C156.186 296.489 156.224 296.661 156.28 296.828C156.379 296.979 156.477 297.131 156.598 297.289C157.059 297.909 157.558 298.514 158.042 299.119C159.017 300.336 159.985 301.538 160.907 302.755C162.781 305.097 164.433 307.608 165.844 310.255C166.56 311.547 166.874 313.024 166.743 314.496C166.743 315.925 166.577 317.323 166.426 318.692C165.791 324.173 164.861 329.276 163.999 333.933C163.137 338.59 162.253 342.846 161.444 346.581V346.686H161.338L146.362 346.618H142.393H141.38L141.032 346.52Z" fill="#263238"/>
<path d="M159.569 343.851C161.899 335.247 163.442 326.449 164.181 317.565C164.264 316.552 164.264 315.38 163.493 314.708C162.555 313.891 161.126 314.33 159.939 314.708C156.451 315.814 152.738 316.012 149.151 315.282C145.666 314.526 142.204 312.969 138.696 313.551C138.249 313.588 137.815 313.716 137.419 313.925C137.023 314.134 136.673 314.421 136.39 314.768C135.823 315.615 135.959 316.726 136.118 317.732C137.501 326.38 140.321 336.314 142.612 343.851H159.569Z" fill="#E6682E"/>
<path d="M161.875 315.773C161.685 316.038 161.464 316.28 161.217 316.492C160.569 317.105 159.871 317.664 159.13 318.162C156.689 319.844 153.879 320.915 150.937 321.285C147.996 321.654 145.008 321.312 142.226 320.287C141.385 319.988 140.571 319.618 139.792 319.183C139.497 319.041 139.222 318.861 138.976 318.646C138.976 318.578 140.2 319.319 142.317 320.03C145.068 320.955 147.993 321.247 150.872 320.884C153.752 320.522 156.513 319.514 158.949 317.936C160.854 316.764 161.822 315.713 161.875 315.773Z" fill="white"/>
</svg>
