<svg width="378" height="378" viewBox="0 0 378 378" fill="none" xmlns="http://www.w3.org/2000/svg">
<path d="M350.557 52.731H269.847V136.866H350.557V52.731Z" fill="#E0E0E0"/>
<path d="M345.091 52.731H264.381V136.866H345.091V52.731Z" fill="#FAFAFA"/>
<path d="M345.114 136.889H264.351V52.7007H345.114V136.889ZM264.403 136.836H345.061V52.7536H264.403V136.836Z" fill="#E0E0E0"/>
<path d="M334.243 64.0405H275.229V125.556H334.243V64.0405Z" fill="#FAFAFA"/>
<path d="M275.229 125.957C274.813 126.578 274.323 127.147 273.77 127.65C272.833 128.648 271.502 129.994 269.99 131.43C268.478 132.867 267.14 134.197 266.135 135.12C265.626 135.659 265.055 136.137 264.434 136.541C264.85 135.926 265.334 135.361 265.878 134.855C266.823 133.865 268.146 132.512 269.658 131.075C271.17 129.639 272.515 128.308 273.521 127.378C274.032 126.839 274.606 126.362 275.229 125.957Z" fill="#E0E0E0"/>
<path d="M334.243 125.806C334.859 126.226 335.424 126.716 335.929 127.265C336.927 128.21 338.272 129.533 339.709 131.045C341.145 132.557 342.476 133.895 343.406 134.901C343.945 135.41 344.42 135.984 344.819 136.609C344.206 136.189 343.64 135.702 343.133 135.158C342.143 134.213 340.79 132.89 339.353 131.378C337.917 129.866 336.586 128.52 335.664 127.514C335.117 127.01 334.639 126.436 334.243 125.806Z" fill="#E0E0E0"/>
<path d="M334.076 64.1992C334.497 63.5815 334.987 63.0134 335.535 62.5058C336.473 61.5154 337.803 60.1698 339.315 58.7258C340.827 57.2818 342.166 55.9664 343.171 55.0365C343.684 54.499 344.258 54.0221 344.88 53.6152C344.464 54.2325 343.977 54.7984 343.428 55.3011C342.483 56.299 341.16 57.6447 339.648 59.0811C338.136 60.5175 336.79 61.8556 335.785 62.778C335.279 63.323 334.704 63.8007 334.076 64.1992Z" fill="#E0E0E0"/>
<path d="M275.071 64.3506C274.451 63.9358 273.882 63.4485 273.377 62.8991C272.379 61.9541 271.034 60.6311 269.597 59.1191C268.161 57.6071 266.83 56.2765 265.9 55.2711C265.363 54.7599 264.888 54.1863 264.487 53.5625C265.103 53.9798 265.668 54.4669 266.173 55.014C267.163 55.9515 268.516 57.282 269.953 58.794C271.389 60.306 272.72 61.6517 273.649 62.6572C274.187 63.165 274.664 63.7333 275.071 64.3506Z" fill="#E0E0E0"/>
<path d="M334.076 125.549C334.076 125.549 334.076 125.443 334.076 125.254C334.076 125.065 334.076 124.762 334.076 124.392C334.076 123.636 334.076 122.51 334.076 121.073C334.076 118.155 334.076 113.921 334.016 108.539C334.016 97.7657 333.948 82.4114 333.903 64.0406L334.129 64.2674H275.29L275.547 64.0103C275.547 86.5845 275.547 107.707 275.547 125.519L275.32 125.299L317.928 125.413L329.896 125.473H333.063H333.88H334.167C334.082 125.48 333.996 125.48 333.91 125.473H333.116H329.994L318.072 125.534L275.32 125.647H275.093V125.42C275.093 107.609 275.093 86.4862 275.056 63.9121V63.6475H275.328H334.167H334.394V63.8743C334.349 82.3055 334.311 97.7053 334.281 108.516C334.281 113.876 334.235 118.102 334.22 120.998C334.22 122.419 334.22 123.515 334.22 124.279C334.22 124.634 334.22 124.906 334.22 125.11C334.194 125.263 334.145 125.41 334.076 125.549Z" fill="#E0E0E0"/>
<path d="M306.46 88.1723C305.397 86.5979 303.93 85.3385 302.213 84.5262C300.496 83.714 298.592 83.3788 296.701 83.5559C294.809 83.7329 293.001 84.4157 291.464 85.5326C289.928 86.6494 288.72 88.1592 287.968 89.9036C287.38 91.3898 287.091 92.9774 287.117 94.5756C287.143 96.1737 287.483 97.7511 288.119 99.2175C289.418 102.149 291.533 104.645 294.213 106.407C301.115 111.109 311.117 110.898 317.535 105.553C320.006 103.629 321.687 100.867 322.26 97.7886C322.523 96.0012 322.28 94.1757 321.558 92.5196C320.836 90.8635 319.664 89.443 318.175 88.4194C316.686 87.3959 314.94 86.8103 313.135 86.7293C311.33 86.6482 309.539 87.0748 307.964 87.9606" fill="#E0E0E0"/>
<path d="M306.49 88.1647C306.262 87.3278 305.745 86.5986 305.031 86.106C304.317 85.6134 303.452 85.3893 302.589 85.4733L304.895 88.2176C304.263 88.3082 303.667 88.5662 303.168 88.9651C302.67 89.3639 302.287 89.8889 302.06 90.4856C301.946 90.7653 301.916 91.1585 302.181 91.3021C302.277 91.3312 302.378 91.3409 302.478 91.3305C302.578 91.3201 302.675 91.2899 302.763 91.2416L305.568 90.0774C305.761 91.6435 306.335 93.1385 307.238 94.4319C307.882 93.0588 308.242 91.5701 308.297 90.0547L311.396 91.4231C311.148 90.5382 310.64 89.7482 309.937 89.1551C310.856 88.9764 311.734 88.6332 312.53 88.142C312.772 87.9908 313.037 87.7338 312.924 87.4767C312.81 87.2197 312.591 87.2197 312.372 87.2046C310.325 87.006 308.266 87.433 306.467 88.4293" fill="#EBEBEB"/>
<path d="M306.286 89.3215C306.771 86.1856 306.512 82.9796 305.53 79.9622C306.286 79.7959 307.178 79.69 307.654 80.2721C307.898 80.6428 308.007 81.0857 307.964 81.5271C308 84.4847 307.437 87.4189 306.309 90.1531" fill="#EBEBEB"/>
<path d="M291.234 100.548C291.049 100.412 290.886 100.249 290.75 100.064C290.35 99.5808 290.003 99.0562 289.714 98.4992C288.73 96.6508 288.382 94.5298 288.724 92.4638C289.065 90.3978 290.078 88.5017 291.604 87.0685C292.065 86.6341 292.572 86.2514 293.116 85.9269C293.302 85.7919 293.509 85.6897 293.729 85.6245C293.052 86.1212 292.408 86.6616 291.801 87.2424C290.371 88.6776 289.424 90.5235 289.093 92.5225C288.763 94.5216 289.064 96.574 289.956 98.3933C290.336 99.1381 290.762 99.8578 291.234 100.548Z" fill="white"/>
<path d="M294.341 102.907C294.341 102.99 293.819 102.907 293.328 102.529C292.837 102.151 292.572 101.773 292.648 101.697C292.723 101.621 293.071 101.931 293.525 102.256C293.978 102.582 294.379 102.816 294.341 102.907Z" fill="white"/>
<path d="M168.354 28.2212H55.9441V145.401H168.354V28.2212Z" fill="#E0E0E0"/>
<path d="M160.741 28.2212H48.3312V145.401H160.741V28.2212Z" fill="#FAFAFA"/>
<path d="M160.779 145.432H48.2933V28.1836H160.779V145.432ZM48.3841 145.364H160.703V28.2516H48.3841V145.364Z" fill="#E0E0E0"/>
<path d="M145.628 43.9688H63.4436V129.639H145.628V43.9688Z" fill="#FAFAFA"/>
<path d="M63.4436 130.213C62.8591 131.073 62.1795 131.864 61.4175 132.572C60.1021 133.955 58.2575 135.83 56.1936 137.864C54.1297 139.898 52.2246 141.712 50.8184 142.997C49.4123 144.282 48.5504 145.054 48.4446 144.978C49.0247 144.119 49.702 143.33 50.4631 142.627C51.7785 141.243 53.6232 139.368 55.7022 137.335C57.7812 135.301 59.6787 133.472 61.0773 132.179C62.4759 130.886 63.3756 130.138 63.4436 130.213Z" fill="#E0E0E0"/>
<path d="M145.628 130.032C146.489 130.618 147.281 131.3 147.987 132.066C149.371 133.374 151.245 135.218 153.279 137.29C155.313 139.361 157.127 141.251 158.42 142.657C159.171 143.366 159.833 144.163 160.393 145.031C159.536 144.452 158.749 143.774 158.049 143.013C156.658 141.705 154.784 139.852 152.757 137.781C150.731 135.71 148.894 133.797 147.609 132.398C146.324 131 145.553 130.07 145.628 130.032Z" fill="#E0E0E0"/>
<path d="M145.401 44.2032C145.98 43.3411 146.658 42.5496 147.42 41.8444C148.728 40.4534 150.573 38.5785 152.644 36.5524C154.715 34.5264 156.613 32.7044 158.012 31.4116C158.721 30.6609 159.518 29.9984 160.385 29.4385C160.461 29.5065 159.682 30.3986 158.367 31.7821C157.051 33.1656 155.207 35.048 153.135 37.0741C151.064 39.1002 149.159 40.9372 147.753 42.2224C146.346 43.5076 145.47 44.2788 145.401 44.2032Z" fill="#E0E0E0"/>
<path d="M63.2168 44.4072C62.3523 43.8287 61.5604 43.1485 60.8581 42.3811C59.4746 41.0657 57.5997 39.2286 55.5661 37.1571C53.5325 35.0857 51.7105 33.1881 50.4253 31.7895C49.6759 31.0771 49.0113 30.2806 48.4446 29.4157C48.5202 29.3401 49.4123 30.1188 50.7957 31.4267C52.1792 32.7345 54.0617 34.5943 56.0877 36.6657C58.1138 38.7372 59.9433 40.6423 61.2361 42.0485C61.9867 42.7542 62.6515 43.5459 63.2168 44.4072Z" fill="#E0E0E0"/>
<path d="M145.402 129.646C145.402 129.646 145.402 129.495 145.402 129.231C145.402 128.966 145.402 128.543 145.402 128.036C145.402 126.953 145.402 125.41 145.402 123.409C145.402 119.35 145.356 113.445 145.318 105.946C145.318 90.9393 145.22 69.5672 145.16 43.9539L145.47 44.2714L63.5192 44.3167L63.8821 43.9539C63.8821 75.4035 63.8443 104.819 63.8292 129.631L63.5192 129.314L122.865 129.48L139.535 129.556L143.942 129.594H145.084C145.215 129.584 145.346 129.584 145.477 129.594C145.359 129.601 145.24 129.601 145.122 129.594H144.011L139.664 129.631L123.032 129.715L63.489 129.873H63.179V129.563C63.179 104.751 63.1412 75.3354 63.1261 43.8858V43.5229H63.4965L145.447 43.5683H145.772V43.8858C145.712 69.5898 145.651 91.0149 145.613 106.067C145.613 113.536 145.553 119.418 145.53 123.455C145.53 125.436 145.53 126.963 145.492 127.991C145.492 128.482 145.492 128.868 145.492 129.148C145.481 129.317 145.45 129.484 145.402 129.646Z" fill="#E0E0E0"/>
<path d="M104.184 60.1021C103.905 61.0471 99.089 68.6373 92.1489 71.2152C85.2088 73.7932 80.0529 76.6509 81.9732 80.0453C83.8934 83.4398 92.4286 81.5951 92.4286 81.5951C92.4286 81.5951 75.1238 100.404 91.4156 111.155C111.276 124.256 132.035 77.3389 132.035 77.3389L104.184 60.1021Z" fill="#EBEBEB"/>
<path d="M128.762 83.78C128.709 83.8708 122.162 80 114.141 75.0634C106.12 70.1267 99.656 66.1199 99.7089 65.9914C99.7619 65.8628 106.309 69.7714 114.338 74.708C122.366 79.6447 128.815 83.6893 128.762 83.78Z" fill="#E0E0E0"/>
<path d="M125.693 89.4047C125.632 89.4954 118.564 85.345 109.892 80.1361C101.221 74.9273 94.2355 70.6332 94.2884 70.5425C94.3413 70.4518 101.41 74.6022 110.089 79.811C118.768 85.0199 125.746 89.314 125.693 89.4047Z" fill="#E0E0E0"/>
<path d="M121.981 94.7343C121.92 94.825 113.982 90.1529 104.237 84.3015C94.4925 78.45 86.6377 73.6267 86.6906 73.5436C86.7435 73.4604 94.6891 78.1249 104.434 83.9764C114.179 89.8278 122.034 94.6511 121.981 94.7343Z" fill="#E0E0E0"/>
<path d="M117.346 101.304C117.286 101.394 111.132 97.6372 103.595 92.9197C96.0574 88.2023 89.9867 84.3013 90.0472 84.2182C90.1077 84.135 96.254 87.8848 103.799 92.6022C111.344 97.3196 117.399 101.243 117.346 101.304Z" fill="#E0E0E0"/>
<path d="M111.888 107.707C111.835 107.79 106.105 104.093 99.089 99.444C92.0733 94.7946 86.4411 90.9542 86.494 90.871C86.5469 90.7878 92.285 94.4847 99.3007 99.1341C106.316 103.783 111.956 107.616 111.888 107.707Z" fill="#E0E0E0"/>
<path d="M104.948 112.122C104.644 112.019 104.352 111.882 104.079 111.714C103.534 111.434 102.748 111.003 101.811 110.467C99.8903 109.385 97.2745 107.828 94.4395 106.014C91.6045 104.199 89.1022 102.468 87.318 101.175C86.4259 100.525 85.7153 99.996 85.2315 99.618C84.9565 99.441 84.7029 99.233 84.4755 98.998C84.7637 99.1365 85.0373 99.3037 85.2919 99.497L87.4541 100.956C89.2761 102.196 91.7935 103.889 94.621 105.696C97.4484 107.503 100.042 109.098 101.924 110.232L104.192 111.593C104.462 111.743 104.715 111.92 104.948 112.122Z" fill="#E0E0E0"/>
<path d="M88.6561 82.0184C87.2801 81.6719 85.9787 81.0776 84.8157 80.2645C83.5894 79.5521 82.5011 78.6251 81.6027 77.5278C81.6783 77.4446 83.0693 78.7147 85.0198 79.947C86.9703 81.1793 88.7015 81.9202 88.6561 82.0184Z" fill="#E0E0E0"/>
<path d="M130.743 76.356C130.674 76.5001 130.59 76.6369 130.493 76.7642L129.737 77.8831C129.064 78.8583 128.067 80.2494 126.819 81.9655C124.324 85.3826 120.771 90.0547 116.787 95.1199C112.803 100.185 109.008 104.661 106.203 107.866C104.819 109.469 103.693 110.754 102.899 111.646L102 112.644C101.899 112.769 101.785 112.884 101.659 112.984C101.743 112.847 101.839 112.718 101.947 112.599L102.809 111.548L106.029 107.7C108.743 104.456 112.463 99.9432 116.477 94.8931C120.491 89.843 124.037 85.1936 126.592 81.8143L129.616 77.8075L130.448 76.7264C130.537 76.5957 130.635 76.4719 130.743 76.356Z" fill="#E0E0E0"/>
<path d="M125.111 72.3489C125.194 72.417 118.307 81.4209 109.703 92.4585C101.1 103.496 94.0767 112.402 94.0011 112.334C93.9255 112.266 100.805 103.262 109.408 92.2242C118.012 81.1866 125.027 72.2885 125.111 72.3489Z" fill="#E0E0E0"/>
<path d="M117.256 67.8965C117.202 68.0541 117.129 68.204 117.036 68.3425L116.326 69.5899C115.706 70.6634 114.768 72.2057 113.559 74.0654C111.147 77.8454 107.564 82.7972 103.33 88.1044C99.0965 93.4115 95.1124 98.076 92.2321 101.455L88.7998 105.439L87.8473 106.513C87.7453 106.644 87.6286 106.764 87.4995 106.868C87.5856 106.726 87.6842 106.592 87.7944 106.468L88.6864 105.349L92.028 101.289C94.863 97.8643 98.8319 93.1771 103.035 87.87C107.239 82.5629 110.875 77.6111 113.332 73.9218C114.572 72.0772 115.54 70.5652 116.205 69.5143L116.961 68.3047C117.049 68.1614 117.147 68.025 117.256 67.8965Z" fill="#E0E0E0"/>
<path d="M110.815 64.2069C110.898 64.2674 105.016 72.0542 97.6828 81.5949C90.3496 91.1356 84.3318 98.8166 84.2487 98.7561C84.1655 98.6956 90.0472 90.9088 97.3804 81.3681C104.714 71.8274 110.731 64.1464 110.815 64.2069Z" fill="#E0E0E0"/>
<path d="M105.969 61.0469C105.786 61.4082 105.579 61.7567 105.349 62.0902C105.137 62.4228 104.88 62.8462 104.547 63.262C104.215 63.6778 103.867 64.2296 103.413 64.774C102.401 66.0548 101.31 67.2718 100.147 68.4179C98.7233 69.8147 97.208 71.1154 95.6114 72.3113C93.9919 73.4843 92.2974 74.55 90.5387 75.5016C89.0973 76.2675 87.6102 76.9442 86.0858 77.5277C85.4432 77.7998 84.8384 77.9813 84.3168 78.1627C83.7951 78.3442 83.334 78.4727 82.956 78.571C82.5722 78.7 82.1774 78.7936 81.7766 78.8507C82.143 78.6823 82.5222 78.5433 82.9106 78.4349C83.2811 78.3139 83.7347 78.1627 84.2412 77.9662C84.7477 77.7696 85.3525 77.5655 85.9875 77.2858C87.4857 76.667 88.9494 75.9679 90.3723 75.1916C92.111 74.2347 93.7876 73.1691 95.3922 72.0013C96.9816 70.8183 98.4965 69.5382 99.9282 68.1684C101.094 67.0429 102.197 65.8542 103.232 64.6076C103.693 64.086 104.056 63.5795 104.404 63.1486C104.751 62.7176 105.024 62.3396 105.25 62.0221C105.463 61.6779 105.703 61.3517 105.969 61.0469Z" fill="#E0E0E0"/>
<path d="M84.7098 287.809C84.3847 287.885 86.8191 300.147 86.8191 300.147H93.0712L95.8306 288.293C92.2466 287.069 88.3865 286.901 84.7098 287.809Z" fill="#E0E0E0"/>
<path d="M80.945 356.832C80.945 356.832 71.7521 331.128 73.0373 324.105C74.3225 317.081 77.0894 315.645 79.2894 313.437C81.4893 311.23 83.3416 309.393 83.8934 307.185C84.4453 304.978 83.8934 296.148 83.8934 296.148C83.8934 296.148 82.2378 293.577 82.7897 292.655C83.3416 291.733 96.9496 292.655 96.9496 292.655C96.8729 293.779 96.4913 294.861 95.8458 295.785C95.8458 295.785 95.4753 306.082 96.0272 307.185C96.5791 308.289 105.039 317.671 106.324 322.449C107.609 327.227 101.244 356.832 101.244 356.832H80.945Z" fill="#F5F5F5"/>
<path d="M80.945 356.832C81.0658 356.826 81.187 356.826 81.3078 356.832H82.3436H86.3352L101.244 356.764L101.123 356.862C101.879 353.082 102.756 348.879 103.617 344.207C104.479 339.535 105.371 334.447 105.999 328.988C106.142 327.62 106.279 326.229 106.309 324.823C106.342 324.125 106.299 323.425 106.18 322.736C105.997 322.049 105.744 321.383 105.424 320.748C104.017 318.13 102.375 315.645 100.518 313.324C99.5879 312.114 98.6278 310.912 97.6526 309.695C97.1612 309.09 96.6698 308.486 96.1935 307.851C96.068 307.686 95.9519 307.514 95.8457 307.337C95.7672 307.132 95.7138 306.919 95.687 306.701C95.6265 306.301 95.6038 305.908 95.5811 305.507C95.445 302.324 95.5358 299.096 95.634 295.83V295.777V295.724C95.7902 295.481 95.9316 295.229 96.0574 294.968C96.4187 294.262 96.6395 293.491 96.7076 292.7L96.889 292.897C93.7818 292.7 90.72 292.549 87.7187 292.496C86.2448 292.443 84.7689 292.501 83.3037 292.67C83.1698 292.695 83.04 292.738 82.9181 292.799C82.8476 292.923 82.816 293.065 82.8274 293.207C82.8504 293.549 82.9243 293.885 83.0466 294.205C83.3057 294.864 83.6272 295.497 84.0068 296.095V296.14V296.186C84.1428 298.537 84.2336 300.85 84.2411 303.126C84.259 304.259 84.2161 305.392 84.1126 306.52C83.9735 307.647 83.5523 308.721 82.8879 309.642C82.2574 310.528 81.5571 311.363 80.7938 312.137C80.0378 312.893 79.2818 313.649 78.5258 314.367C77.7563 315.037 77.0315 315.757 76.356 316.522C75.7566 317.267 75.2489 318.082 74.844 318.949C74.0374 320.673 73.4799 322.503 73.1884 324.384C73.094 325.281 73.094 326.186 73.1884 327.083C73.2489 327.975 73.3698 328.845 73.4984 329.707C74.0427 333.116 74.8289 336.231 75.5622 339.051C77.0742 344.675 78.4955 349.106 79.4783 352.145C79.9697 353.657 80.3553 354.821 80.6199 355.63C80.7484 356.015 80.8467 356.31 80.9147 356.529C80.9828 356.749 81.0054 356.839 81.0054 356.839L80.8845 356.537C80.8089 356.325 80.6955 356.03 80.5594 355.653C80.2721 354.896 79.8639 353.702 79.3498 352.19C78.3292 349.166 76.8701 344.736 75.3279 339.111C74.4622 336.03 73.7557 332.906 73.2111 329.752C73.0826 328.89 72.954 328.013 72.886 327.106C72.788 326.186 72.788 325.259 72.886 324.339C73.1702 322.424 73.7304 320.56 74.5492 318.805C74.9933 317.89 75.5495 317.035 76.2048 316.257C76.8922 315.482 77.6269 314.75 78.4048 314.065C79.1608 313.369 79.9168 312.613 80.6728 311.85C81.4244 311.091 82.1098 310.269 82.7216 309.393C83.3562 308.521 83.757 307.5 83.8858 306.429C83.9835 305.316 84.0239 304.198 84.0068 303.08C84.0068 300.812 83.8934 298.544 83.7573 296.163V296.254C83.363 295.633 83.0313 294.974 82.7669 294.288C82.6211 293.929 82.5367 293.548 82.5174 293.162C82.502 292.935 82.5604 292.71 82.6838 292.519C82.8573 292.366 83.0739 292.271 83.3037 292.247C84.7932 292.066 86.295 292.005 87.7943 292.065C90.8183 292.111 93.8423 292.262 96.9873 292.458H97.1838V292.64C97.1269 293.503 96.89 294.345 96.4883 295.112C96.3534 295.372 96.2045 295.624 96.0423 295.868L96.0801 295.77C95.9818 299.028 95.8911 302.256 96.0272 305.409C96.0402 305.796 96.073 306.182 96.1254 306.565C96.1463 306.743 96.1868 306.918 96.2464 307.087C96.342 307.245 96.4481 307.397 96.5639 307.541C97.0251 308.168 97.524 308.773 98.0079 309.378C98.9831 310.595 99.9432 311.797 100.873 313.014C102.747 315.356 104.399 317.867 105.81 320.514C106.131 321.174 106.384 321.866 106.566 322.577C106.687 323.297 106.73 324.027 106.694 324.755C106.694 326.184 106.528 327.582 106.377 328.951C105.734 334.432 104.804 339.535 103.942 344.192C103.081 348.848 102.196 353.097 101.395 356.839V356.945H101.289L86.3201 356.885H82.3511H81.3305L80.945 356.832Z" fill="#E0E0E0"/>
<path d="M99.482 354.171C101.814 345.567 103.36 336.768 104.101 327.885C104.177 326.872 104.177 325.7 103.413 325.027C102.476 324.21 101.039 324.649 99.8525 325.027C96.3634 326.13 92.6509 326.328 89.0644 325.601C85.5792 324.883 82.1243 323.288 78.6089 323.863C78.1694 323.906 77.7428 324.036 77.3536 324.245C76.9644 324.454 76.6202 324.738 76.3409 325.08C75.7663 325.927 75.9024 327.045 76.0687 328.051C77.4446 336.692 80.2645 346.633 82.5552 354.171H99.482Z" fill="#E0E0E0"/>
<path d="M101.795 326.085C101.607 326.365 101.384 326.619 101.13 326.841C100.477 327.443 99.7766 327.992 99.0361 328.482C96.5911 330.16 93.7802 331.228 90.8381 331.598C87.8961 331.967 84.9082 331.627 82.1243 330.606C81.2877 330.303 80.4763 329.934 79.6976 329.503C79.4017 329.359 79.1249 329.178 78.8735 328.966C78.9113 328.898 80.0983 329.639 82.2151 330.342C84.9652 331.271 87.8899 331.565 90.7701 331.204C93.6504 330.843 96.4116 329.835 98.8471 328.255C100.775 327.046 101.743 326.033 101.795 326.085Z" fill="white"/>
<path d="M255.135 186.467C252.781 186.729 250.405 186.729 248.051 186.467C250.405 186.205 252.781 186.205 255.135 186.467Z" fill="#FAFAFA"/>
<path d="M359.856 357.8C359.856 357.913 283.371 358.004 189.045 358.004C94.7192 358.004 18.1893 357.913 18.1893 357.8C18.1893 357.686 94.6512 357.588 189 357.588C283.349 357.588 359.856 357.694 359.856 357.8Z" fill="#263238"/>
<path d="M291.499 315.123C295.18 312.477 298.93 309.794 303.194 308.244C307.458 306.694 312.387 306.392 316.424 308.471C319.803 310.209 322.237 313.46 323.636 316.998C325.362 321.392 325.653 326.219 324.468 330.788C323.825 333.252 322.547 335.8 320.204 336.798C317.86 337.796 315.161 336.934 312.833 335.891C305.191 332.458 298.572 327.099 293.623 320.34C294.121 319.942 294.725 319.7 295.359 319.644C295.994 319.587 296.631 319.719 297.191 320.022C298.298 320.647 299.305 321.434 300.177 322.358C303.134 325.037 306.699 326.952 310.565 327.938C313.423 328.694 317.271 328.353 318.231 325.564C318.858 323.742 317.86 321.784 316.893 320.128C315.789 318.216 314.526 316.167 312.455 315.403C310.897 314.836 309.181 315.108 307.548 315.403L289.722 318.465L290.826 318.14" fill="#E6682E"/>
<path d="M246.993 74.685C235.237 71.404 217.819 75.9702 211.166 86.1989C204.513 96.4276 207.446 111.608 206.925 123.795C206.403 135.981 206.925 148.365 203.969 160.211C202.109 167.771 198.548 175.331 192.001 179.527C184.517 184.29 173.298 184.759 169.752 192.893C166.796 199.697 171.385 208.013 168.399 214.817C167.084 217.841 164.415 220.109 163.266 223.171C161.678 227.42 163.417 232.364 166.539 235.653C169.662 238.941 173.933 240.869 178.189 242.457C191.156 247.206 204.939 249.326 218.733 248.694C228.766 248.225 239.531 245.851 246.108 238.268C251.272 232.311 252.973 224.146 253.91 216.344C259.671 168.089 260.714 115.04 246.993 74.7606" fill="#263238"/>
<path d="M181.44 221.123C181.538 221.07 181.002 220.162 180.465 218.356C179.762 215.801 179.613 213.125 180.026 210.508C180.653 206.628 182.101 202.927 184.275 199.652C186.687 195.933 190.179 192.44 194.012 189C197.845 185.56 201.663 182.378 204.74 179.059C207.515 176.154 209.825 172.839 211.589 169.231C212.768 166.787 213.5 164.153 213.752 161.451C213.804 160.719 213.804 159.984 213.752 159.251C213.752 158.745 213.691 158.495 213.653 158.495C213.426 158.435 214.031 162.88 210.992 168.959C209.181 172.451 206.866 175.658 204.12 178.477C201.096 181.72 197.263 184.857 193.4 188.305C189.537 191.752 186.014 195.328 183.572 199.183C181.363 202.57 179.932 206.404 179.384 210.41C179.021 213.111 179.279 215.86 180.14 218.446C180.381 219.143 180.684 219.816 181.047 220.457C181.146 220.697 181.278 220.921 181.44 221.123Z" fill="#455A64"/>
<path d="M211.007 307.548L207.076 356.953L325.186 357.535L293.079 312.387L211.007 307.548Z" fill="#E6682E"/>
<path d="M117.634 188.72C117.966 189.007 110.716 227.692 107.05 247.061C106.437 250.301 106.746 253.648 107.941 256.722C109.135 259.796 111.168 262.473 113.808 264.449C116.536 266.488 119.796 267.694 123.195 267.919C126.593 268.145 129.984 267.38 132.958 265.719L182.136 240.128L167.076 208.595L136.08 226.188L138.121 193.385L117.634 188.72Z" fill="#FFBE9D"/>
<path d="M134.424 157.959C134.077 156.575 132.33 155.948 130.939 156.295C129.583 156.771 128.374 157.591 127.431 158.677L123.455 161.088C122.704 161.587 122.086 162.26 121.654 163.05C121.222 163.84 120.989 164.724 120.975 165.624C120.955 167.422 121.234 169.21 121.799 170.916C122.215 172.428 122.805 174.145 124.264 174.696C125.889 175.301 127.688 174.046 128.452 172.489C129.215 170.932 129.291 169.155 129.692 167.469C130.175 165.447 131.131 163.569 132.481 161.988C133.487 160.801 134.81 159.471 134.424 157.959Z" fill="#EB996E"/>
<path d="M101.387 159.516C101.264 159.13 101.238 158.721 101.311 158.322C101.384 157.924 101.554 157.55 101.806 157.234C102.058 156.917 102.384 156.667 102.755 156.506C103.126 156.345 103.532 156.278 103.935 156.311C112.009 156.976 131.189 159.66 142.567 162.933C158.7 167.575 169.321 170.576 169.321 170.576L203.583 169.82C203.583 169.82 199.471 181.629 186.415 181.69C176.534 181.735 166.169 175.384 166.169 175.384C166.169 175.384 122.26 160.431 103.822 161.24C103.283 161.264 102.752 161.108 102.311 160.797C101.871 160.487 101.546 160.039 101.387 159.524V159.516Z" fill="#455A64"/>
<path d="M197.18 169.918C197.603 171.12 196.205 172.186 194.957 172.413C193.71 172.64 192.281 172.58 191.381 173.472C191.062 173.855 190.83 174.303 190.699 174.784C190.569 175.265 190.544 175.769 190.625 176.261C190.804 177.241 190.922 178.231 190.981 179.225C191 179.9 190.765 180.559 190.323 181.069C189.423 181.984 187.768 181.674 186.898 180.737C186.102 179.718 185.668 178.462 185.666 177.169C185.655 176.252 185.52 175.342 185.265 174.462C185.131 174.022 184.882 173.626 184.543 173.315C184.204 173.004 183.788 172.789 183.338 172.693C182.256 172.557 181.304 173.373 180.268 173.736C179.725 173.89 179.156 173.924 178.598 173.837C178.041 173.749 177.509 173.542 177.039 173.23C176.569 172.917 176.173 172.507 175.877 172.027C175.581 171.546 175.392 171.008 175.324 170.448L197.18 169.918Z" fill="#E6682E"/>
<path d="M113.733 157.634C113.195 157.933 112.64 158.198 112.07 158.427C109.304 159.55 106.31 159.996 103.338 159.728C102.725 159.677 102.116 159.587 101.516 159.456C101.516 159.456 101.69 159.456 102 159.524C102.31 159.592 102.756 159.622 103.338 159.667C104.815 159.786 106.302 159.735 107.768 159.516C109.232 159.295 110.667 158.912 112.047 158.374C112.576 158.163 112.999 157.981 113.287 157.838L113.733 157.634Z" fill="#263238"/>
<path d="M128.762 159.803H128.618L128.21 159.758C127.855 159.713 127.341 159.667 126.698 159.629C125.035 159.53 123.367 159.616 121.724 159.887C120.082 160.166 118.475 160.622 116.931 161.247C116.341 161.497 115.865 161.708 115.547 161.867L115.177 162.041L115.041 162.094C115.041 162.094 115.078 162.094 115.161 162.011L115.517 161.807C115.834 161.633 116.273 161.406 116.893 161.149C118.433 160.486 120.047 160.011 121.701 159.735C123.354 159.464 125.035 159.39 126.706 159.516C127.348 159.569 127.862 159.637 128.218 159.698L128.626 159.773L128.762 159.803Z" fill="#263238"/>
<path d="M139.996 165.496L138.416 165.027L136.571 164.468C136.172 164.378 135.808 164.17 135.528 163.871C135.458 163.781 135.411 163.675 135.391 163.563C135.372 163.451 135.38 163.336 135.415 163.228C135.456 163.115 135.523 163.014 135.611 162.932C135.699 162.851 135.806 162.792 135.921 162.759C136.414 162.609 136.94 162.609 137.433 162.759C137.94 162.857 138.469 162.971 139.006 163.122C140.149 163.444 141.26 163.872 142.325 164.4C142.884 164.679 143.451 164.989 144.003 165.337C144.296 165.494 144.554 165.711 144.759 165.972C144.811 166.046 144.845 166.132 144.855 166.221C144.866 166.311 144.853 166.402 144.819 166.486C144.739 166.646 144.605 166.771 144.441 166.842C143.116 167.352 141.681 167.511 140.276 167.303C137.365 166.932 134.908 165.534 132.716 164.385C130.806 163.253 128.733 162.425 126.57 161.928C125.104 161.619 123.585 161.676 122.147 162.094C121.758 162.216 121.381 162.373 121.02 162.563C120.779 162.699 120.65 162.759 120.65 162.759L120.96 162.54C121.317 162.344 121.692 162.182 122.079 162.056C123.524 161.624 125.055 161.559 126.532 161.867C128.702 162.358 130.783 163.181 132.701 164.309C134.901 165.458 137.358 166.849 140.261 167.22C141.65 167.424 143.069 167.268 144.381 166.766C144.532 166.707 144.656 166.594 144.729 166.449C144.755 166.375 144.764 166.297 144.755 166.219C144.746 166.142 144.719 166.067 144.676 166.002C144.468 165.751 144.211 165.545 143.92 165.398C143.38 165.055 142.822 164.742 142.249 164.46C141.187 163.932 140.079 163.504 138.938 163.183C138.408 163.031 137.879 162.91 137.373 162.805C136.901 162.668 136.4 162.668 135.929 162.805C135.822 162.838 135.724 162.894 135.641 162.97C135.559 163.046 135.494 163.139 135.453 163.243C135.419 163.343 135.41 163.45 135.427 163.554C135.444 163.658 135.487 163.756 135.551 163.84C135.824 164.134 136.18 164.34 136.571 164.43L138.416 164.997L139.996 165.496Z" fill="#263238"/>
<path d="M147.964 164.808C148.101 165.041 148.193 165.298 148.237 165.564C148.36 166.182 148.283 166.823 148.017 167.394C147.737 167.958 147.288 168.42 146.732 168.717C146.497 168.844 146.241 168.926 145.976 168.959C146.216 168.88 146.448 168.781 146.672 168.664C147.219 168.374 147.66 167.917 147.93 167.36C148.201 166.802 148.287 166.174 148.176 165.564C148.126 165.307 148.055 165.054 147.964 164.808Z" fill="#263238"/>
<path d="M161.875 168.444C161.875 168.444 161.119 168.444 159.939 168.369C158.76 168.293 157.097 168.119 155.267 168.097C153.72 168.041 152.177 168.298 150.731 168.853C150.47 168.948 150.217 169.064 149.975 169.2C149.793 169.287 149.62 169.394 149.461 169.518L149.03 169.805L149.439 169.495C149.596 169.365 149.769 169.253 149.953 169.163C150.194 169.021 150.447 168.899 150.709 168.8C152.172 168.231 153.737 167.973 155.305 168.044C157.142 168.044 158.783 168.263 159.977 168.346C160.574 168.392 161.058 168.429 161.391 168.444H161.875Z" fill="#263238"/>
<path d="M176.382 179.852C176.382 179.852 176.11 179.618 175.626 179.18C175.384 178.96 175.082 178.696 174.719 178.424C174.356 178.151 173.963 177.789 173.479 177.448C172.387 176.621 171.243 175.864 170.055 175.18C167.146 173.52 164 172.316 160.726 171.612C159.392 171.317 158.041 171.11 156.681 170.992C156.099 170.917 155.57 170.909 155.109 170.886C154.647 170.864 154.247 170.886 153.922 170.886H152.909H153.922C154.247 170.886 154.678 170.886 155.109 170.886C155.539 170.886 156.099 170.886 156.681 170.977C158.046 171.092 159.402 171.294 160.741 171.582C162.378 171.935 163.99 172.4 165.564 172.973C167.124 173.585 168.64 174.305 170.1 175.127C171.289 175.809 172.433 176.567 173.525 177.395C174.001 177.728 174.394 178.083 174.757 178.378C175.12 178.673 175.415 178.93 175.649 179.134C176.148 179.603 176.382 179.852 176.382 179.852Z" fill="#263238"/>
<path d="M186.294 180.109C186.053 180.24 185.8 180.344 185.538 180.419C184.835 180.633 184.101 180.722 183.368 180.684C182.279 180.615 181.214 180.338 180.23 179.867C179.037 179.275 177.936 178.511 176.964 177.599C175.914 176.647 174.999 175.664 174.152 174.787C173.411 173.988 172.626 173.231 171.801 172.519C171.245 172.046 170.653 171.617 170.032 171.234C169.813 171.105 169.639 171 169.518 170.939L169.344 170.856C170.246 171.291 171.087 171.843 171.846 172.496C172.673 173.199 173.462 173.943 174.213 174.727C175.067 175.604 175.982 176.586 177.025 177.531C177.99 178.441 179.083 179.205 180.268 179.799C181.244 180.271 182.302 180.548 183.383 180.616C184.109 180.664 184.839 180.585 185.538 180.382C185.729 180.328 185.916 180.26 186.097 180.177L186.294 180.109Z" fill="#263238"/>
<path d="M199.274 176.473H199.017C198.843 176.473 198.601 176.473 198.299 176.473C197.509 176.475 196.721 176.556 195.948 176.715C195.166 176.884 194.406 177.137 193.68 177.471C193.408 177.592 193.181 177.705 193.037 177.788C192.961 177.834 192.879 177.872 192.795 177.902C193.07 177.719 193.358 177.557 193.657 177.418C195.093 176.724 196.674 176.385 198.269 176.428C198.604 176.42 198.94 176.436 199.274 176.473Z" fill="#263238"/>
<path d="M104.933 179.497L104.57 172.429C104.53 171.667 104.739 170.913 105.167 170.281L105.213 170.213C106.43 168.407 108.018 166.879 109.869 165.73L125.103 156.288C125.327 156.148 125.583 156.065 125.846 156.046C126.11 156.028 126.375 156.073 126.617 156.18C126.859 156.286 127.071 156.45 127.236 156.658C127.4 156.865 127.511 157.109 127.56 157.369C127.749 158.616 127.197 161.459 126.093 162.593C124.135 164.375 121.991 165.942 119.697 167.265L134.976 164.302C135.332 165.277 135.326 166.348 134.958 167.32C134.59 168.291 133.886 169.098 132.973 169.594L139.255 168.263C139.255 168.263 141.312 171.189 138.499 173.116C135.687 175.044 130.69 176.715 130.69 176.715C130.69 176.715 138.484 180.004 138.303 182.627C138.121 185.25 138.015 193.657 138.015 193.657L117.074 192.145L104.933 179.497Z" fill="#FFBE9D"/>
<path d="M120.249 166.804L120.106 166.887L119.667 167.106C119.289 167.303 118.737 167.575 118.072 167.93C117.407 168.286 116.651 168.77 115.804 169.321C114.957 169.873 114.012 170.44 113.113 171.136C112.673 171.473 112.32 171.911 112.085 172.413C111.883 172.891 111.79 173.408 111.812 173.925C111.874 174.804 112.041 175.672 112.311 176.511C112.485 177.088 112.604 177.681 112.667 178.28C112.693 178.499 112.693 178.719 112.667 178.938C112.667 178.938 112.667 178.703 112.614 178.28C112.533 177.69 112.402 177.108 112.221 176.541C111.93 175.696 111.749 174.817 111.684 173.925C111.657 173.39 111.75 172.855 111.956 172.361C112.203 171.838 112.568 171.38 113.022 171.022C113.47 170.677 113.937 170.356 114.421 170.062L115.744 169.208C116.583 168.664 117.354 168.187 118.012 167.84C118.669 167.492 119.244 167.235 119.637 167.084L120.083 166.887L120.249 166.804Z" fill="#EB996E"/>
<path d="M121.671 182.672C121.671 182.672 121.603 182.597 121.482 182.438L120.96 181.765L120.128 180.707C119.75 180.243 119.427 179.735 119.168 179.195C118.882 178.454 118.821 177.645 118.992 176.869C119.162 176.093 119.558 175.385 120.128 174.833C120.826 174.224 121.621 173.736 122.48 173.389C123.341 172.98 124.249 172.587 125.186 172.202C128.4 170.917 131.702 169.863 135.067 169.049C136.352 168.724 137.403 168.497 138.129 168.346L138.96 168.18L139.255 168.127C139.161 168.16 139.065 168.188 138.968 168.21L138.136 168.407C137.418 168.581 136.375 168.822 135.112 169.163C131.77 170.011 128.487 171.077 125.284 172.353C124.354 172.739 123.447 173.109 122.585 173.532C121.74 173.874 120.956 174.351 120.265 174.946C119.711 175.478 119.326 176.16 119.157 176.909C118.988 177.657 119.042 178.439 119.312 179.157C119.561 179.694 119.87 180.202 120.234 180.669C120.537 181.07 120.809 181.425 121.051 181.743C121.293 182.06 121.436 182.272 121.55 182.438C121.663 182.604 121.671 182.672 121.671 182.672Z" fill="#EB996E"/>
<path d="M137.879 173.283C137.77 173.364 137.654 173.434 137.532 173.494L136.556 174.008C135.732 174.439 134.583 175.014 133.275 175.581C132.16 176.064 131.02 176.486 129.858 176.843C129.412 176.98 129.049 177.078 128.792 177.138C128.664 177.18 128.532 177.21 128.399 177.229C128.518 177.164 128.645 177.116 128.777 177.085L129.82 176.738C130.705 176.435 131.907 175.982 133.215 175.437C134.523 174.893 135.672 174.311 136.511 173.925L137.501 173.457C137.621 173.386 137.748 173.328 137.879 173.283Z" fill="#EB996E"/>
<path d="M182.824 139.565C182.824 139.565 182.566 139.913 182.226 140.616C181.758 141.617 181.521 142.709 181.531 143.814C181.54 145.454 182.12 147.039 183.171 148.297C183.823 149.01 184.512 149.689 185.235 150.331C186.028 151.028 186.656 151.893 187.072 152.863C187.418 153.873 187.386 154.975 186.982 155.963C186.607 156.869 186.098 157.713 185.47 158.465C184.895 159.221 184.283 159.834 183.731 160.438C183.216 161.001 182.746 161.603 182.325 162.238C181.851 162.827 181.513 163.513 181.334 164.247C181.155 164.981 181.14 165.746 181.289 166.486C181.289 166.486 181.289 166.381 181.213 166.184C181.143 165.887 181.112 165.582 181.123 165.277C181.196 164.16 181.581 163.086 182.234 162.177C182.652 161.535 183.12 160.926 183.632 160.355C184.184 159.735 184.789 159.1 185.356 158.374C185.968 157.631 186.465 156.8 186.83 155.91C187.225 154.946 187.254 153.871 186.913 152.886C186.509 151.936 185.894 151.091 185.114 150.414C184.393 149.765 183.707 149.078 183.058 148.357C181.986 147.076 181.405 145.455 181.417 143.784C181.417 142.664 181.676 141.559 182.173 140.556C182.352 140.202 182.57 139.87 182.824 139.565Z" fill="#263238"/>
<path d="M189.756 139.202C189.756 139.202 189.499 139.558 189.159 140.261C188.693 141.259 188.458 142.35 188.471 143.451C188.472 145.094 189.053 146.685 190.111 147.942C190.701 148.637 191.442 149.272 192.168 149.975C192.965 150.666 193.593 151.529 194.005 152.5C194.349 153.513 194.32 154.615 193.922 155.608C193.544 156.512 193.034 157.355 192.41 158.11C191.827 158.866 191.215 159.471 190.671 160.083C190.156 160.645 189.684 161.244 189.257 161.875C188.616 162.764 188.225 163.808 188.123 164.899C188.113 165.302 188.149 165.705 188.229 166.101C188.195 166.002 188.167 165.901 188.146 165.798C188.078 165.504 188.05 165.201 188.063 164.899C188.136 163.781 188.518 162.705 189.166 161.792C189.59 161.153 190.06 160.547 190.572 159.977C191.117 159.357 191.722 158.722 192.296 157.997C192.905 157.253 193.4 156.422 193.763 155.532C194.158 154.568 194.19 153.494 193.854 152.508C193.445 151.563 192.83 150.721 192.054 150.043C191.298 149.34 190.595 148.705 189.99 147.987C188.918 146.703 188.337 145.079 188.35 143.406C188.354 142.289 188.613 141.187 189.106 140.185C189.289 139.837 189.507 139.507 189.756 139.202Z" fill="#263238"/>
<path d="M135.445 250.599C135.4 250.599 135.619 244.876 135.936 237.823C136.254 230.769 136.541 225.054 136.579 225.061C136.617 225.069 136.405 230.777 136.095 237.83C135.785 244.884 135.483 250.599 135.445 250.599Z" fill="#EB996E"/>
<path d="M122.298 196.658C120.855 195.271 119.487 193.807 118.201 192.273C119.644 193.661 121.012 195.125 122.298 196.658Z" fill="#EB996E"/>
<path d="M210.554 305.931L204.4 357.535H290.304L275.993 320.831L295.687 316.159C295.687 316.159 294.364 312.463 293.094 312.379C291.824 312.296 210.554 305.931 210.554 305.931Z" fill="#E6682E"/>
<path d="M166.449 207.28C166.449 207.28 199.766 185.704 208.528 182.763C213.918 180.956 230.104 180.669 230.104 180.669L199.766 232.515L182.521 240.907L166.449 207.28Z" fill="#00A98C"/>
<path d="M333.456 243.538C323.281 218.968 306.815 191.208 301.939 186.452C297.063 181.697 267.163 177.857 267.163 177.857L227.957 182.113L196.522 225.205L210.289 292.406L209.82 293.298C208.791 295.28 208.318 297.504 208.451 299.734C208.584 301.963 209.319 304.115 210.576 305.961L293.101 312.417L293.207 248.785L333.456 243.538Z" fill="#00A98C"/>
<path d="M281.814 279.554C281.697 279.746 281.563 279.929 281.414 280.098C281.126 280.438 280.741 280.967 280.166 281.61C278.595 283.405 276.889 285.079 275.063 286.615C269.02 291.726 261.852 295.334 254.147 297.142C246.441 298.95 238.417 298.907 230.731 297.017C228.412 296.452 226.137 295.714 223.927 294.81C223.171 294.5 222.551 294.197 222.143 294.054C221.934 293.967 221.731 293.863 221.538 293.744C221.758 293.807 221.972 293.886 222.181 293.978C222.597 294.137 223.186 294.417 223.98 294.696C232.431 297.978 241.605 298.941 250.553 297.487C259.501 296.033 267.897 292.214 274.874 286.426C276.708 284.916 278.436 283.282 280.045 281.534C280.635 280.93 281.036 280.416 281.345 280.09C281.489 279.9 281.645 279.721 281.814 279.554Z" fill="#263238"/>
<path d="M293.184 246.388C293.115 246.189 293.065 245.984 293.033 245.776L292.67 244.022C292.36 242.449 291.914 240.242 291.4 237.543C290.365 232.032 288.943 224.479 287.378 216.14C287.182 215.097 286.993 214.061 286.804 213.041C286.615 212.02 286.38 211.022 286.275 210.017C286.014 208.093 285.943 206.148 286.063 204.211C286.187 202.461 286.452 200.724 286.857 199.017C287.238 197.537 287.725 196.087 288.316 194.678C289.174 192.639 290.283 190.717 291.62 188.955C292.073 188.312 292.496 187.874 292.754 187.556C292.876 187.386 293.021 187.234 293.184 187.103C293.184 187.103 293.063 187.276 292.814 187.609C292.565 187.942 292.171 188.365 291.748 189.045C290.465 190.825 289.399 192.751 288.573 194.783C288.002 196.184 287.535 197.624 287.174 199.093C286.783 200.783 286.53 202.502 286.418 204.233C286.31 206.147 286.389 208.066 286.653 209.964C286.758 210.962 287.008 211.945 287.182 212.988C287.356 214.031 287.56 215.037 287.756 216.088C289.268 224.404 290.659 231.964 291.665 237.513C292.149 240.227 292.534 242.442 292.806 244.014L293.101 245.783C293.145 245.982 293.173 246.185 293.184 246.388Z" fill="#263238"/>
<path d="M200.574 244.944C200.449 244.585 200.355 244.216 200.295 243.84C200.144 243.047 199.939 242.018 199.69 240.816C199.199 238.246 198.541 234.678 197.838 230.739C197.135 226.8 196.522 223.224 196.099 220.639C195.902 219.391 195.736 218.371 195.615 217.569C195.543 217.195 195.5 216.816 195.487 216.435C195.614 216.794 195.707 217.163 195.766 217.539C195.918 218.295 196.122 219.353 196.371 220.563C196.863 223.141 197.52 226.709 198.223 230.648C198.926 234.587 199.539 238.155 199.962 240.748C200.159 241.988 200.325 243.016 200.446 243.818C200.518 244.189 200.561 244.566 200.574 244.944Z" fill="#263238"/>
<path d="M296.019 209.631C296.238 208.167 296.585 206.725 297.055 205.322C297.404 203.884 297.88 202.48 298.476 201.126C298.253 202.59 297.904 204.032 297.433 205.435C297.09 206.874 296.617 208.278 296.019 209.631Z" fill="#FAFAFA"/>
<path d="M300.442 224.797C299.28 224.275 298.176 223.634 297.146 222.884C296.045 222.232 295.012 221.472 294.061 220.616C296.324 221.784 298.462 223.18 300.442 224.782V224.797Z" fill="#FAFAFA"/>
<path d="M308.788 218.938C308.611 217.631 308.642 216.304 308.879 215.007C308.987 213.692 309.295 212.402 309.794 211.181C309.907 211.181 309.544 212.92 309.272 215.059C309 217.199 308.902 218.938 308.788 218.938Z" fill="#FAFAFA"/>
<path d="M310.459 233.604C309.942 232.459 309.498 231.282 309.128 230.081C308.628 228.926 308.196 227.742 307.836 226.535C308.556 227.582 309.115 228.731 309.491 229.945C309.991 231.111 310.317 232.344 310.459 233.604Z" fill="#FAFAFA"/>
<path d="M303.988 242.676C301.924 241.136 300.019 239.394 298.302 237.475C300.371 239.009 302.276 240.752 303.988 242.676Z" fill="#FAFAFA"/>
<path d="M323.802 232.092C323.886 232.175 322.699 233.491 321.534 235.32C320.37 237.15 319.599 238.76 319.493 238.715C319.83 237.413 320.41 236.187 321.202 235.101C321.877 233.947 322.758 232.927 323.802 232.092Z" fill="#FAFAFA"/>
<path d="M302.196 194.889C301.379 194.418 300.633 193.832 299.981 193.15C299.238 192.566 298.579 191.881 298.023 191.117C298.839 191.596 299.586 192.184 300.245 192.863C300.986 193.445 301.643 194.127 302.196 194.889Z" fill="#FAFAFA"/>
<path d="M277.822 195.479C276.004 196.851 274.036 198.013 271.956 198.941C272.821 198.201 273.77 197.564 274.783 197.044C275.733 196.408 276.753 195.883 277.822 195.479Z" fill="#FAFAFA"/>
<path d="M273.559 216.821C272.759 216.031 272.054 215.15 271.457 214.198C270.754 213.321 270.158 212.364 269.68 211.347C271.184 213.013 272.486 214.85 273.559 216.821Z" fill="#FAFAFA"/>
<path d="M282.789 223.776C281.922 226.097 280.521 228.182 278.699 229.862C278.616 229.779 279.66 228.516 280.778 226.838C281.897 225.159 282.684 223.716 282.789 223.776Z" fill="#FAFAFA"/>
<path d="M260.359 225.333C260.245 225.371 259.603 223.678 258.567 221.735C257.531 219.792 256.465 218.325 256.556 218.25C258.404 220.247 259.706 222.687 260.336 225.333H260.359Z" fill="#FAFAFA"/>
<path d="M265.039 239.849C265.457 238.613 265.999 237.423 266.656 236.295C267.191 235.104 267.847 233.972 268.614 232.916C268.196 234.153 267.656 235.345 267.004 236.477C266.465 237.664 265.806 238.794 265.039 239.849Z" fill="#FAFAFA"/>
<path d="M280.695 250.735C280.255 249.393 279.937 248.014 279.743 246.615C279.428 245.241 279.241 243.842 279.183 242.434C279.625 243.773 279.944 245.15 280.136 246.547C280.451 247.923 280.639 249.325 280.695 250.735Z" fill="#FAFAFA"/>
<path d="M252.262 242.759C251.294 241.98 250.382 241.134 249.533 240.227C248.591 239.412 247.702 238.539 246.872 237.611C247.957 238.241 248.946 239.025 249.805 239.939C250.752 240.759 251.58 241.709 252.262 242.759Z" fill="#FAFAFA"/>
<path d="M239.652 221.742C237.951 223.62 236.058 225.316 234.005 226.8C235.706 224.922 237.599 223.227 239.652 221.742Z" fill="#FAFAFA"/>
<path d="M234.693 215.619C233.854 214.69 233.114 213.677 232.485 212.595C231.751 211.573 231.123 210.478 230.61 209.329C232.188 211.287 233.556 213.405 234.693 215.649V215.619Z" fill="#FAFAFA"/>
<path d="M215.46 226.173C214.444 225.038 213.526 223.819 212.716 222.529C211.801 221.316 210.994 220.026 210.304 218.673C211.32 219.804 212.236 221.02 213.041 222.309C213.96 223.523 214.77 224.816 215.46 226.173Z" fill="#FAFAFA"/>
<path d="M221.153 238.79C221.153 238.904 218.673 238.941 215.626 239.1C212.58 239.259 210.115 239.455 210.1 239.342C210.617 239.177 211.153 239.075 211.695 239.04C212.693 238.911 214.077 238.783 215.604 238.707C217.131 238.631 218.522 238.624 219.527 238.647C220.073 238.624 220.619 238.672 221.153 238.79Z" fill="#FAFAFA"/>
<path d="M222.551 202.192C222.657 202.192 222.226 204.09 221.833 206.418C221.44 208.747 221.228 210.659 221.115 210.652C221.076 207.768 221.563 204.901 222.551 202.192Z" fill="#FAFAFA"/>
<path d="M214.893 191.102C215.745 189.748 216.706 188.466 217.766 187.269C218.724 185.987 219.786 184.786 220.941 183.678C220.089 185.031 219.128 186.313 218.068 187.511C217.11 188.793 216.048 189.994 214.893 191.102Z" fill="#FAFAFA"/>
<path d="M207.212 201.444C207.129 201.519 205.345 199.705 202.986 197.664C200.627 195.623 198.616 194.035 198.684 193.944C199.194 194.177 199.669 194.477 200.098 194.836C200.937 195.441 202.064 196.348 203.251 197.369C204.438 198.39 205.443 199.425 206.154 200.181C206.561 200.554 206.917 200.978 207.212 201.444Z" fill="#FAFAFA"/>
<path d="M194.428 205.042C194.481 205.148 192.236 206.35 189.748 208.24C187.261 210.13 185.492 211.96 185.401 211.876C185.7 211.4 186.064 210.967 186.483 210.591C187.424 209.629 188.434 208.737 189.507 207.923C190.582 207.109 191.717 206.376 192.901 205.73C193.375 205.429 193.889 205.198 194.428 205.042Z" fill="#FAFAFA"/>
<path d="M177.274 215.657C177.169 215.657 177.184 213.608 177.085 211.083C176.987 208.558 176.821 206.547 176.934 206.547C177.295 208.032 177.477 209.555 177.479 211.083C177.601 212.61 177.532 214.146 177.274 215.657Z" fill="#FAFAFA"/>
<path d="M189.922 226.845C187.488 225.105 185.212 223.155 183.118 221.017C184.369 221.834 185.545 222.76 186.634 223.784C187.822 224.7 188.923 225.725 189.922 226.845Z" fill="#FAFAFA"/>
<path d="M209.919 210.818C208.503 211.326 207.046 211.711 205.564 211.967C204.108 212.354 202.62 212.607 201.119 212.723C202.537 212.215 203.996 211.83 205.481 211.574C206.935 211.191 208.42 210.938 209.919 210.818Z" fill="#FAFAFA"/>
<path d="M249.132 216.004C248.456 215.575 247.853 215.039 247.348 214.417C246.744 213.882 246.233 213.251 245.836 212.549C246.512 212.983 247.114 213.521 247.62 214.144C248.222 214.678 248.733 215.306 249.132 216.004Z" fill="#FAFAFA"/>
<path d="M266.724 205.791C266.066 206.65 265.304 207.424 264.456 208.097C263.691 208.867 262.835 209.542 261.909 210.108C263.337 208.477 264.959 207.027 266.74 205.791H266.724Z" fill="#FAFAFA"/>
<path d="M281.769 209.956C281.663 209.956 282.101 208.217 282.525 206.078C282.948 203.939 283.084 202.177 283.198 202.185C283.308 203.512 283.211 204.848 282.91 206.146C282.727 207.467 282.342 208.752 281.769 209.956Z" fill="#FAFAFA"/>
<path d="M204.475 234.277C203.997 233.748 203.62 233.135 203.364 232.47C202.995 231.861 202.739 231.19 202.608 230.489C203.095 231.016 203.48 231.628 203.742 232.296C204.102 232.908 204.35 233.578 204.475 234.277Z" fill="#FAFAFA"/>
<path d="M231.563 235.335C231.079 234.556 230.706 233.714 230.452 232.833C230.074 231.994 229.819 231.106 229.696 230.194C230.18 230.972 230.552 231.815 230.799 232.697C231.182 233.534 231.439 234.423 231.563 235.335Z" fill="#FAFAFA"/>
<path d="M246.335 227.896C246.252 227.821 246.69 227.186 247.318 226.475C247.945 225.764 248.512 225.243 248.596 225.311C248.679 225.379 248.233 226.021 247.613 226.732C246.993 227.443 246.456 227.964 246.335 227.896Z" fill="#FAFAFA"/>
<path d="M215.982 275.244C215.221 274.197 214.648 273.025 214.288 271.782C213.81 270.578 213.554 269.297 213.532 268.002C213.646 268.002 213.993 269.665 214.681 271.653C215.369 273.642 216.087 275.184 215.982 275.244Z" fill="#FAFAFA"/>
<path d="M227.511 276.106C227.7 274.986 228.014 273.89 228.448 272.84C228.757 271.749 229.193 270.699 229.748 269.71C229.561 270.828 229.249 271.921 228.819 272.969C228.505 274.061 228.066 275.114 227.511 276.106Z" fill="#FAFAFA"/>
<path d="M224.146 289.208C223.42 288.251 222.801 287.216 222.302 286.123C221.681 285.088 221.174 283.987 220.79 282.842C221.512 283.803 222.128 284.84 222.627 285.934C223.246 286.97 223.755 288.067 224.146 289.208Z" fill="#FAFAFA"/>
<path d="M245.503 285.443C244.197 285.243 242.925 284.861 241.723 284.309C240.48 283.879 239.306 283.27 238.238 282.502C239.477 282.914 240.691 283.396 241.875 283.946C243.114 284.37 244.326 284.87 245.503 285.443Z" fill="#FAFAFA"/>
<path d="M238.594 277.671C238.541 277.573 239.879 276.704 241.391 275.464C242.903 274.224 244.037 273.097 244.12 273.196C242.684 275.133 240.784 276.677 238.594 277.686V277.671Z" fill="#FAFAFA"/>
<path d="M256.39 283.198C256.322 283.288 254.946 282.442 253.139 281.565C251.332 280.688 249.79 280.196 249.82 280.09C252.249 280.518 254.518 281.591 256.39 283.198Z" fill="#FAFAFA"/>
<path d="M260.185 290.304C260.109 290.221 261.145 289.162 262.287 287.734C263.428 286.305 264.23 285.065 264.328 285.125C263.93 286.178 263.341 287.147 262.589 287.983C261.941 288.901 261.125 289.688 260.185 290.304Z" fill="#FAFAFA"/>
<path d="M221.364 304.033C220.107 303.432 218.91 302.713 217.789 301.886C216.59 301.172 215.464 300.344 214.424 299.414C215.682 300.014 216.879 300.733 218 301.561C219.198 302.275 220.325 303.103 221.364 304.033Z" fill="#FAFAFA"/>
<path d="M235.827 300.465C235.872 300.57 234.315 301.258 232.553 302.408C230.792 303.557 229.529 304.676 229.446 304.615C231.125 302.641 233.342 301.199 235.827 300.465Z" fill="#FAFAFA"/>
<path d="M248.762 306.18C248.123 305.543 247.576 304.82 247.136 304.033C246.591 303.315 246.155 302.52 245.844 301.674C247.034 303.035 248.018 304.563 248.762 306.21V306.18Z" fill="#FAFAFA"/>
<path d="M264.351 301.032C264.396 301.138 262.929 301.833 261.266 302.914C259.603 303.995 258.355 305.031 258.242 304.948C259.016 303.994 259.959 303.192 261.024 302.582C262.025 301.859 263.153 301.333 264.351 301.032Z" fill="#FAFAFA"/>
<path d="M271.555 294.266C271.449 294.318 271.003 293.51 270.157 292.852C269.31 292.194 268.471 291.861 268.501 291.756C269.211 291.746 269.896 292.018 270.406 292.512C271.006 292.921 271.42 293.552 271.555 294.266Z" fill="#FAFAFA"/>
<path d="M279.72 302.052C278.928 302.679 278.059 303.203 277.134 303.61C276.266 304.126 275.336 304.532 274.368 304.819C275.157 304.188 276.026 303.664 276.953 303.262C277.818 302.739 278.749 302.333 279.72 302.052Z" fill="#FAFAFA"/>
<path d="M287.076 306.18C286.963 306.18 287.378 304.449 287.65 302.317C287.923 300.185 287.953 298.423 288.074 298.423C288.281 299.729 288.269 301.061 288.036 302.362C287.935 303.68 287.61 304.971 287.076 306.18Z" fill="#FAFAFA"/>
<path d="M285.912 293.056C285.844 293.154 284.316 292.118 282.222 291.294C280.128 290.47 278.314 290.175 278.329 290.054C279.721 290.063 281.096 290.362 282.366 290.931C283.686 291.379 284.895 292.103 285.912 293.056Z" fill="#FAFAFA"/>
<path d="M269.522 253.479C267.255 252.319 265.115 250.928 263.133 249.329C265.397 250.494 267.537 251.885 269.522 253.479Z" fill="#FAFAFA"/>
<g opacity="0.3">
<path opacity="0.3" d="M231.177 297.184C230.936 296.712 230.862 296.172 230.968 295.653C231.073 295.133 231.353 294.666 231.759 294.326C232.598 293.67 233.609 293.274 234.67 293.184C240.083 292.338 245.882 293.804 250.954 291.74C254.356 290.349 257.002 287.514 258.998 284.445C260.994 281.376 262.574 278.019 264.547 274.919C266.316 272.13 268.577 269.469 271.661 268.274C274.746 267.08 278.76 267.843 280.431 270.693C282.101 273.543 280.983 277.044 279.418 279.856C274.995 287.794 267.027 293.411 258.34 296.087C249.654 298.764 240.302 298.696 231.336 297.108" fill="black"/>
</g>
<path d="M338.378 273.8L329.941 243.697L295.211 248.187L299.278 264.154L247.333 250.296L235.872 265.507L314.723 302.74C318.337 304.281 322.336 304.682 326.184 303.891C330.033 303.099 333.548 301.152 336.261 298.31C341.1 293.199 340.518 280.521 338.378 273.8Z" fill="#FFBE9D"/>
<path d="M194.821 244.944C193.657 244.634 192.251 244.384 191.389 245.216C191.049 245.617 190.848 246.118 190.818 246.644C190.788 247.169 190.93 247.689 191.223 248.127C191.759 249.026 192.168 249.155 193.589 249.639L207.416 252.776L212.708 248.633L194.821 244.944Z" fill="#EB996E"/>
<path d="M237.981 266.233C221.085 262.098 205.405 256.632 188.713 253.456C187.881 253.298 186.944 253.078 186.505 252.345C185.908 251.347 186.679 249.994 187.745 249.54C188.858 249.196 190.044 249.157 191.177 249.427C200.109 250.669 209.188 250.362 218.015 248.52C223.738 247.318 229.355 245.496 235.131 244.74C240.907 243.984 242.464 247.008 247.333 250.259" fill="#FFBE9D"/>
<path d="M247.333 250.297C245.927 247.831 243.883 245.789 241.415 244.387C238.947 242.985 236.147 242.274 233.309 242.328C229.854 242.442 226.551 243.697 223.217 244.596C219.883 245.496 216.239 246.055 213.018 244.785C211.786 244.302 210.637 243.553 209.321 243.372C208.006 243.19 206.433 243.833 206.199 245.133C206.018 246.116 206.653 247.053 207.341 247.787C209.76 250.342 217.463 253.185 223.534 252.882" fill="#FFBE9D"/>
<path d="M223.534 252.89C223.534 252.829 222.604 252.89 220.956 252.723C218.638 252.479 216.355 251.972 214.152 251.211C212.622 250.704 211.145 250.045 209.745 249.246C208.972 248.819 208.26 248.29 207.628 247.673C207.291 247.386 207.016 247.034 206.818 246.638C206.621 246.241 206.505 245.809 206.479 245.367C206.56 244.926 206.783 244.524 207.115 244.222C207.447 243.92 207.869 243.736 208.316 243.697C209.311 243.582 210.317 243.786 211.189 244.279C212.174 244.79 213.211 245.198 214.281 245.496C215.399 245.762 216.549 245.874 217.698 245.829C222.377 245.67 226.407 243.727 230.232 242.994C232.03 242.587 233.883 242.489 235.713 242.706C237.304 242.919 238.854 243.37 240.31 244.044C242.43 245.029 244.313 246.46 245.829 248.24C246.887 249.51 247.341 250.334 247.341 250.304C247.271 250.09 247.172 249.886 247.046 249.699C246.738 249.133 246.379 248.596 245.972 248.097C244.5 246.216 242.614 244.7 240.461 243.666C238.973 242.944 237.381 242.457 235.743 242.223C233.862 241.975 231.951 242.055 230.096 242.457C226.18 243.213 222.158 245.088 217.652 245.239C216.554 245.279 215.456 245.172 214.386 244.921C213.354 244.634 212.353 244.241 211.4 243.75C210.417 243.215 209.29 243.003 208.18 243.145C207.623 243.239 207.102 243.479 206.668 243.84C206.448 244.03 206.267 244.261 206.138 244.52C206.008 244.78 205.931 245.063 205.912 245.352C205.934 245.871 206.063 246.38 206.291 246.847C206.518 247.314 206.84 247.729 207.235 248.066C207.911 248.714 208.674 249.263 209.503 249.699C210.944 250.5 212.464 251.151 214.039 251.642C216.292 252.379 218.629 252.833 220.994 252.996C221.636 253.034 222.28 253.034 222.922 252.996C223.129 252.985 223.335 252.949 223.534 252.89Z" fill="#EB996E"/>
<path d="M314.746 268.955C314.746 268.955 314.685 268.955 314.572 268.902L314.08 268.728L312.296 268.078C310.784 267.533 308.682 266.815 306.346 266.082C304.01 265.348 301.871 264.744 300.298 264.335L298.461 263.859L297.955 263.731C297.841 263.731 297.781 263.678 297.788 263.67H297.962L298.476 263.768C298.915 263.859 299.55 264.003 300.329 264.192C301.894 264.585 304.033 265.167 306.377 265.9C308.72 266.634 310.814 267.375 312.319 267.942C313.075 268.229 313.672 268.471 314.088 268.645L314.564 268.849L314.746 268.955Z" fill="#EB996E"/>
<path d="M249.48 206.864C254.241 206.66 258.739 204.624 262.035 201.183C265.331 197.742 267.171 193.16 267.17 188.395V166.471L268.38 96.4201L266.815 92.4738L229.922 80.8314C218.582 79.9469 210.962 95.5432 210.561 106.913C210.115 119.554 210.07 134.999 211.824 144.366C215.347 163.205 229.922 165.216 229.922 165.216L230.21 188.652C230.244 191.124 230.774 193.564 231.767 195.828C232.761 198.091 234.199 200.133 235.996 201.831C237.793 203.529 239.912 204.849 242.228 205.714C244.544 206.578 247.01 206.97 249.48 206.864Z" fill="#FFBE9D"/>
<path d="M215.46 119.199C215.472 119.833 215.73 120.437 216.181 120.883C216.631 121.329 217.238 121.582 217.872 121.588C218.182 121.602 218.491 121.554 218.783 121.447C219.074 121.341 219.341 121.177 219.568 120.966C219.796 120.755 219.979 120.5 220.107 120.218C220.234 119.935 220.305 119.63 220.314 119.32C220.3 118.687 220.04 118.085 219.59 117.64C219.14 117.196 218.535 116.944 217.902 116.938C217.592 116.922 217.282 116.968 216.991 117.074C216.699 117.179 216.431 117.342 216.204 117.553C215.976 117.764 215.793 118.018 215.665 118.3C215.537 118.583 215.468 118.889 215.46 119.199Z" fill="#263238"/>
<path d="M214.122 114.731C214.432 115.041 216.239 113.627 218.847 113.559C221.455 113.491 223.383 114.746 223.685 114.421C223.821 114.277 223.496 113.71 222.642 113.128C221.493 112.374 220.137 111.997 218.764 112.047C217.395 112.072 216.07 112.536 214.984 113.37C214.228 114.013 213.948 114.595 214.122 114.731Z" fill="#263238"/>
<path d="M240.778 119.199C240.79 119.831 241.048 120.434 241.496 120.88C241.945 121.326 242.55 121.58 243.183 121.588C243.493 121.604 243.803 121.558 244.096 121.452C244.388 121.346 244.656 121.182 244.883 120.97C245.111 120.759 245.294 120.504 245.421 120.22C245.549 119.937 245.618 119.63 245.624 119.32C245.615 118.687 245.357 118.084 244.908 117.639C244.459 117.194 243.853 116.942 243.22 116.938C242.911 116.922 242.601 116.968 242.309 117.074C242.017 117.179 241.75 117.342 241.522 117.553C241.294 117.764 241.111 118.018 240.984 118.3C240.856 118.583 240.786 118.889 240.778 119.199Z" fill="#263238"/>
<path d="M239.811 114.511C240.121 114.814 241.928 113.408 244.536 113.34C247.144 113.271 249.072 114.526 249.374 114.201C249.503 114.058 249.185 113.491 248.331 112.909C247.181 112.156 245.826 111.778 244.453 111.828C243.084 111.853 241.759 112.317 240.673 113.151C239.917 113.793 239.652 114.368 239.811 114.511Z" fill="#263238"/>
<path d="M230.867 134.137C230.867 133.994 229.242 133.752 226.603 133.487C225.938 133.442 225.303 133.328 225.175 132.875C225.098 132.187 225.235 131.493 225.568 130.886C226.15 129.253 226.755 127.545 227.397 125.753C229.937 118.443 231.759 112.448 231.465 112.342C231.17 112.236 228.864 118.087 226.331 125.39L224.577 130.554C224.351 131.31 223.935 132.187 224.305 133.177C224.407 133.411 224.562 133.618 224.758 133.782C224.953 133.945 225.184 134.062 225.432 134.122C225.802 134.215 226.184 134.259 226.566 134.251C229.219 134.319 230.86 134.288 230.867 134.137Z" fill="#263238"/>
<path d="M229.915 165.095C238.83 164.984 247.54 162.401 255.074 157.634C255.074 157.634 249.284 170.803 230.293 169.556L229.915 165.095Z" fill="#EB996E"/>
<path d="M238.851 104.328C239.13 105.031 241.731 104.623 244.8 104.91C247.87 105.197 250.38 105.961 250.773 105.311C250.939 105.001 250.493 104.343 249.472 103.685C248.117 102.879 246.596 102.391 245.024 102.26C243.452 102.13 241.871 102.358 240.4 102.929C239.282 103.383 238.737 103.957 238.851 104.328Z" fill="#263238"/>
<path d="M214.878 107.14C215.354 107.722 217.146 107.057 219.3 106.966C221.455 106.876 223.307 107.261 223.708 106.626C223.882 106.316 223.579 105.734 222.763 105.197C221.678 104.531 220.411 104.224 219.142 104.32C217.872 104.379 216.651 104.831 215.649 105.613C214.901 106.241 214.704 106.861 214.878 107.14Z" fill="#263238"/>
<path d="M223.413 82.1243C224.29 88.0478 226.637 93.6571 230.24 98.4403C233.843 103.223 238.586 107.028 244.037 109.507C243.709 107.995 243.387 106.483 243.069 104.971C247.741 112.697 257.66 119.168 264.041 121.784C266.014 122.593 268.539 121.867 270.331 120.718C272.84 119.115 272.992 115.517 272.462 112.584C270.822 103.406 265.379 95.1956 258.287 89.1475C251.196 83.0995 242.548 79.0625 233.604 76.356C231.238 75.6378 229.945 75.1464 227.601 75.9402C225.258 76.734 222.188 79.4027 223.322 81.5951" fill="#263238"/>
<path d="M261.047 107.881C266.46 127.273 259.3 148.826 261.145 168.875C261.553 173.343 263.179 178.514 266.944 180.971C268.803 182.181 269.212 181.417 271.351 181.841C276.817 182.899 281.98 180.608 287.439 181.667C292.368 182.627 300.208 185.447 303.315 181.493C306.422 177.539 302.838 172.89 299.799 169.019C296.76 165.148 292.678 161.837 291.181 157.142C289.563 152.1 291.309 146.687 292.065 141.44C294.651 123.53 288.285 105.386 277.701 90.6973C274.012 85.5792 268.448 80.7333 263.443 76.8852C258.439 73.0372 247.121 69.7939 240.816 70.0812C234.511 70.3685 224.01 75.3732 221.44 82.4418" fill="#263238"/>
<path d="M240.113 96.8132C240.075 96.8812 240.491 97.1609 241.293 97.6221L242.721 98.4537L241.504 97.2894C238.542 94.5313 236.011 91.3431 233.997 87.8319C230.217 81.3227 229.643 75.0857 229.34 75.1613C229.242 75.1613 229.242 76.7187 229.741 79.1757C230.416 82.3614 231.584 85.4222 233.203 88.2477C235.216 91.8724 237.954 95.043 241.247 97.5616L241.466 97.229C240.612 96.9114 240.143 96.7678 240.113 96.8132Z" fill="#455A64"/>
<path d="M274.428 177.494C274.464 177.079 274.464 176.661 274.428 176.246C274.428 175.43 274.428 174.228 274.466 172.678C274.717 168.315 275.36 163.983 276.386 159.735C277.55 154.322 279.478 147.98 280.635 140.677C281.235 136.85 281.42 132.969 281.187 129.102C280.984 124.903 279.932 120.788 278.095 117.006C276.183 113.253 273.382 110.025 269.937 107.602C266.687 105.19 263.292 103.33 260.193 101.395C254.674 98.0001 249.596 93.9375 245.073 89.2989C242.039 86.1587 239.259 82.784 236.757 79.2063C235.872 77.9362 235.199 76.9383 234.753 76.2503C234.538 75.8867 234.285 75.547 233.997 75.2373C234.155 75.624 234.348 75.996 234.572 76.3486C234.957 77.1046 235.592 78.1025 236.432 79.3726C238.846 83.0516 241.581 86.5099 244.604 89.7071C249.094 94.4638 254.176 98.6255 259.724 102.09C262.839 104.056 266.21 105.931 269.378 108.297C272.7 110.639 275.403 113.752 277.256 117.369C279.034 121.035 280.062 125.019 280.28 129.087C280.516 132.892 280.351 136.71 279.788 140.48C278.692 147.692 276.825 154.088 275.736 159.524C274.756 163.816 274.207 168.194 274.095 172.595C274.076 173.791 274.122 174.987 274.232 176.178C274.245 176.623 274.311 177.065 274.428 177.494Z" fill="#455A64"/>
<path d="M210.546 91.1357C209.874 96.0259 209.48 100.95 209.367 105.885C213.192 102.801 217.055 99.6483 219.951 95.6642C222.846 91.68 224.653 86.698 223.897 81.8369C221.127 82.6517 218.62 84.1819 216.629 86.2735C214.639 88.3652 213.234 90.9444 212.557 93.7515" fill="#263238"/>
<path d="M230.043 142.997C230.693 141.727 230.867 141.402 231.971 140.797C232.808 140.586 233.672 140.499 234.534 140.54C235.373 140.586 235.933 141.417 236.243 142.196C236.749 143.322 236.822 144.596 236.447 145.772C236.008 146.913 232.047 148.282 229.915 145.281" fill="#EB996E"/>
<path d="M233.302 147.269C233.518 147.255 233.735 147.255 233.952 147.269C234.526 147.241 235.078 147.044 235.539 146.702C236.167 146.132 236.571 145.357 236.681 144.517C236.769 144.017 236.731 143.503 236.568 143.022C236.406 142.541 236.125 142.109 235.751 141.765C234.934 141.123 233.917 140.789 232.878 140.82C232.461 140.836 232.051 140.941 231.677 141.127C231.303 141.314 230.973 141.577 230.709 141.901C230.356 142.358 230.125 142.896 230.036 143.466C230.02 143.684 229.979 143.9 229.915 144.109C229.853 143.892 229.84 143.665 229.877 143.443C229.919 142.828 230.131 142.237 230.489 141.735C230.748 141.39 231.072 141.1 231.442 140.881C231.875 140.628 232.362 140.482 232.863 140.457C233.405 140.436 233.947 140.505 234.466 140.661C235.024 140.815 235.54 141.092 235.978 141.47C236.438 141.868 236.767 142.395 236.923 142.982C237.078 143.51 237.106 144.067 237.006 144.608C236.912 145.086 236.746 145.547 236.515 145.976C236.275 146.449 235.901 146.84 235.44 147.101C234.978 147.362 234.45 147.481 233.922 147.443C233.704 147.436 233.491 147.376 233.302 147.269Z" fill="#263238"/>
<path d="M242.29 127.983C242.359 128.066 242.109 128.354 241.671 128.407C241.232 128.46 240.915 128.225 240.975 128.134C241.036 128.044 241.308 128.051 241.625 128.014C241.943 127.976 242.222 127.893 242.29 127.983Z" fill="#EB996E"/>
<path d="M246.456 127.764C246.35 127.764 246.207 127.56 246.146 127.265C246.086 126.97 246.108 126.706 246.214 126.683C246.32 126.66 246.464 126.88 246.532 127.182C246.6 127.484 246.592 127.764 246.456 127.764Z" fill="#EB996E"/>
<path d="M251.514 126.086C251.514 126.192 251.226 126.222 250.932 126.161C250.637 126.101 250.41 125.95 250.433 125.844C250.455 125.738 250.72 125.708 251.015 125.776C251.31 125.844 251.536 125.98 251.514 126.086Z" fill="#EB996E"/>
<path d="M244.453 132.187C244.347 132.187 244.256 131.945 244.256 131.65C244.256 131.355 244.347 131.113 244.453 131.113C244.559 131.113 244.649 131.347 244.649 131.65C244.649 131.952 244.559 132.187 244.453 132.187Z" fill="#EB996E"/>
<path d="M248.996 130.153C248.89 130.153 248.8 130.1 248.8 130.032C248.8 129.964 248.89 129.911 248.996 129.911C249.102 129.911 249.193 129.964 249.193 130.032C249.193 130.1 249.11 130.153 248.996 130.153Z" fill="#EB996E"/>
<path d="M216.458 128.717C216.458 128.822 216.08 128.898 215.702 128.717C215.324 128.535 215.09 128.195 215.173 128.127C215.256 128.059 215.528 128.21 215.861 128.361C216.193 128.512 216.466 128.603 216.458 128.717Z" fill="#EB996E"/>
<path d="M219.837 128.006C219.781 127.986 219.736 127.944 219.71 127.89C219.685 127.837 219.682 127.775 219.701 127.719C219.739 127.59 219.845 127.5 219.951 127.53C220.006 127.55 220.052 127.592 220.077 127.646C220.103 127.699 220.106 127.761 220.087 127.817C220.083 127.846 220.074 127.874 220.059 127.899C220.044 127.924 220.025 127.946 220.002 127.964C219.978 127.982 219.952 127.994 219.924 128.002C219.895 128.009 219.866 128.01 219.837 128.006Z" fill="#EB996E"/>
<path d="M218.03 132.905C217.925 132.905 217.811 132.738 217.781 132.512C217.751 132.285 217.781 132.081 217.917 132.066C218.053 132.05 218.136 132.224 218.174 132.459C218.212 132.693 218.144 132.89 218.03 132.905Z" fill="#EB996E"/>
<path d="M213.585 132.663C213.494 132.602 213.532 132.398 213.661 132.194C213.789 131.99 213.978 131.884 214.069 131.945C214.16 132.005 214.122 132.217 213.993 132.413C213.865 132.61 213.676 132.723 213.585 132.663Z" fill="#EB996E"/>
<path d="M196.636 301.878V336.957C196.635 339.902 195.932 342.805 194.584 345.425C193.236 348.044 191.283 350.304 188.887 352.016C185.749 354.254 181.991 355.457 178.136 355.456H131.264C127.755 355.459 124.317 354.462 121.353 352.583L119.735 351.54C117.105 349.874 114.938 347.571 113.434 344.845C111.93 342.119 111.138 339.057 111.132 335.944V301.878H196.636Z" fill="#263238"/>
<path d="M111.132 310.323H87.371V314.451L101.092 316.56C103.1 316.84 105.003 317.623 106.627 318.836C108.25 320.05 109.54 321.654 110.376 323.5C110.857 324.573 111.114 325.734 111.132 326.91C111.132 326.91 115.97 326.834 116.794 321.051C116.794 320.937 116.832 320.824 116.847 320.71C117.12 318.62 116.727 316.497 115.724 314.643C114.721 312.789 113.159 311.299 111.261 310.383L111.132 310.323Z" fill="#455A64"/>
<path d="M196.636 310.353H220.412V314.496L206.69 316.605C204.677 316.883 202.766 317.668 201.139 318.885C199.511 320.103 198.219 321.715 197.384 323.568C196.903 324.642 196.646 325.802 196.628 326.978C196.628 326.978 191.797 326.902 190.966 321.126L190.92 320.779C190.648 318.688 191.041 316.565 192.044 314.712C193.047 312.858 194.608 311.367 196.507 310.452L196.636 310.353Z" fill="#455A64"/>
<path d="M196.636 310.353C196.526 310.435 196.409 310.508 196.288 310.572C195.943 310.758 195.609 310.965 195.29 311.192C194.074 312.043 193.06 313.15 192.319 314.436C191.162 316.42 190.737 318.747 191.117 321.013C191.274 322.397 191.822 323.708 192.697 324.793C193.701 325.945 195.119 326.654 196.643 326.766L196.462 326.94C196.481 325.542 196.825 324.167 197.467 322.925C198.117 321.596 199.024 320.409 200.136 319.433C201.304 318.402 202.656 317.599 204.12 317.066C205.636 316.573 207.199 316.241 208.785 316.076L220.404 314.3L220.246 314.481C220.246 313.067 220.246 311.691 220.246 310.353L220.427 310.535L203.304 310.467L198.412 310.414H197.104C196.954 310.431 196.802 310.431 196.651 310.414H197.097H198.39L203.266 310.361L220.427 310.293H220.608V310.474C220.608 311.812 220.608 313.188 220.608 314.602V314.768H220.45L208.83 316.56C207.27 316.723 205.732 317.05 204.241 317.535C202.83 318.044 201.527 318.813 200.401 319.803C199.341 320.697 198.477 321.799 197.862 323.041C197.246 324.283 196.893 325.639 196.825 327.023V327.212H196.651C195.846 327.155 195.061 326.938 194.342 326.573C193.623 326.208 192.984 325.703 192.463 325.088C191.557 323.957 190.995 322.59 190.845 321.149C190.476 318.822 190.939 316.44 192.153 314.42C192.922 313.121 193.98 312.017 195.245 311.192C195.576 310.974 195.922 310.779 196.28 310.61C196.39 310.513 196.509 310.427 196.636 310.353Z" fill="#263238"/>
<path d="M195.109 302.816C195.048 302.862 194.982 302.901 194.912 302.929L194.322 303.224L192.054 304.335L190.399 305.129C189.786 305.409 189.098 305.666 188.373 305.961C186.914 306.535 185.281 307.269 183.391 307.843L180.45 308.826C179.422 309.159 178.325 309.408 177.206 309.718C174.976 310.376 172.534 310.822 169.979 311.351C164.393 312.318 158.737 312.824 153.067 312.863C147.398 312.828 141.741 312.322 136.156 311.351C133.6 310.83 131.159 310.376 128.928 309.726C127.809 309.408 126.713 309.159 125.685 308.826L122.744 307.851C120.854 307.276 119.221 306.543 117.755 305.976C116.999 305.674 116.348 305.417 115.736 305.144L114.08 304.351L111.812 303.239L111.223 302.944L111.034 302.831C111.108 302.845 111.179 302.87 111.245 302.907L111.85 303.164C112.402 303.421 113.181 303.768 114.164 304.207L115.834 304.963C116.447 305.228 117.135 305.469 117.86 305.764C119.327 306.309 120.96 307.027 122.858 307.579L125.798 308.531C126.819 308.856 127.915 309.098 129.027 309.401C131.257 310.043 133.691 310.474 136.246 310.988C141.811 311.943 147.444 312.449 153.09 312.5C158.736 312.449 164.369 311.944 169.934 310.988C172.489 310.474 174.923 310.036 177.154 309.393C178.265 309.091 179.361 308.849 180.382 308.524L183.323 307.571C185.213 307.019 186.853 306.301 188.312 305.749C189.068 305.462 189.726 305.212 190.346 304.955L192.009 304.199L194.292 303.156L194.897 302.892L195.109 302.816Z" fill="#455A64"/>
<path d="M195.161 305.719C195.161 305.719 195.101 305.764 194.965 305.832L194.375 306.135L192.107 307.246L190.452 308.002C189.839 308.274 189.151 308.531 188.433 308.834C186.966 309.408 185.333 310.142 183.443 310.716L180.503 311.691C179.474 312.024 178.386 312.274 177.267 312.591C174.999 313.249 172.587 313.695 170.032 314.224C164.448 315.191 158.794 315.697 153.128 315.736C147.459 315.697 141.802 315.192 136.216 314.224C133.653 313.695 131.211 313.249 128.981 312.591C127.862 312.281 126.766 312.032 125.738 311.699L122.797 310.724C120.907 310.149 119.274 309.416 117.815 308.841C117.059 308.546 116.401 308.289 115.789 308.01L114.156 307.261L111.888 306.15L111.298 305.855C111.162 305.787 111.094 305.749 111.102 305.742L111.313 305.817L111.918 306.082L114.232 307.125L115.902 307.881C116.522 308.138 117.203 308.388 117.936 308.675C119.395 309.227 121.036 309.937 122.926 310.497L125.866 311.442C126.887 311.767 127.983 312.009 129.102 312.311C131.325 312.954 133.767 313.392 136.314 313.906C141.882 314.861 147.517 315.367 153.166 315.418C158.812 315.371 164.445 314.865 170.009 313.906C172.557 313.392 174.991 312.961 177.222 312.319C178.333 312.016 179.429 311.775 180.457 311.449L183.39 310.497C185.288 309.937 186.921 309.227 188.388 308.675C189.144 308.388 189.801 308.138 190.414 307.874L192.084 307.118L194.398 306.074L195.003 305.817L195.161 305.719Z" fill="#455A64"/>
<path d="M179.036 356.545C185.273 355.577 188.478 352.175 190.293 346.127C190.959 344.262 191.009 342.232 190.436 340.336C189.771 338.491 188.002 336.942 186.036 337.017C183.663 337.116 181.969 339.361 181.002 341.553C180.034 343.746 179.316 346.172 177.448 347.647C175.581 349.121 172.081 348.682 171.68 346.331C171.676 345.709 171.61 345.088 171.483 344.479C170.954 343.058 168.701 343.133 167.703 344.29C166.706 345.447 166.675 347.11 166.721 348.629C166.766 350.149 166.819 351.782 165.965 353.044C164.702 354.927 162.064 355.139 159.796 355.154L146.399 355.282C146.399 355.282 148.667 356.394 154.67 356.394C162.82 356.371 179.036 356.545 179.036 356.545Z" fill="#E6682E"/>
<path d="M153.128 355.26C148.645 355.335 143.89 355.343 140.064 352.992C137.645 351.517 135.619 349.143 132.822 348.72C132.019 348.553 131.184 348.699 130.486 349.128C130.145 349.348 129.892 349.68 129.769 350.066C129.647 350.452 129.662 350.869 129.813 351.245C128.573 350.776 127.628 349.786 126.562 348.977C125.496 348.168 124.113 347.586 122.873 348.062C122.241 348.367 121.735 348.883 121.441 349.52C121.147 350.157 121.084 350.877 121.262 351.555C121.474 352.223 121.825 352.838 122.293 353.36C122.761 353.881 123.335 354.297 123.976 354.579C125.264 355.138 126.627 355.508 128.021 355.675L160.28 356.288C160.272 355.471 153.128 355.26 153.128 355.26Z" fill="#E6682E"/>
<path d="M127.953 357.535L128.021 355.759L179.036 356.545V357.535H127.953Z" fill="#455A64"/>
<path d="M175.778 336.957C175.174 335.946 174.833 334.8 174.786 333.624C174.738 332.447 174.986 331.277 175.505 330.221C175.967 329.306 176.912 328.399 177.887 328.709C178.862 329.019 179.059 330.221 179.036 331.189C178.983 333.298 177.464 337.562 175.778 336.942" fill="#E6682E"/>
<path d="M145.908 273.672C145.953 273.672 145.863 274.035 145.908 274.685C145.996 275.602 146.238 276.496 146.626 277.331C147.241 278.582 147.72 279.895 148.055 281.247C148.292 282.989 147.854 284.755 146.83 286.184C145.863 287.734 144.706 289.011 143.95 290.349C143.581 290.973 143.294 291.641 143.096 292.338C142.943 292.943 142.9 293.57 142.967 294.19C143.042 295.102 143.423 295.963 144.048 296.632C144.301 296.854 144.566 297.06 144.842 297.252C144.842 297.252 144.751 297.252 144.585 297.169C144.353 297.056 144.137 296.914 143.942 296.745C143.241 296.08 142.797 295.188 142.687 294.228C142.594 293.57 142.627 292.9 142.786 292.255C142.975 291.519 143.262 290.812 143.64 290.153C144.396 288.769 145.56 287.469 146.498 285.957C147.474 284.61 147.906 282.944 147.707 281.293C147.385 279.964 146.94 278.668 146.377 277.422C146.001 276.554 145.793 275.623 145.764 274.678C145.764 274.423 145.792 274.17 145.848 273.922C145.854 273.836 145.875 273.751 145.908 273.672Z" fill="#263238"/>
<path d="M153.861 272.992C153.907 272.992 153.808 273.355 153.861 274.005C153.953 274.92 154.195 275.814 154.579 276.651C155.194 277.902 155.675 279.215 156.016 280.567C156.247 282.309 155.807 284.074 154.783 285.503C153.816 287.053 152.667 288.331 151.903 289.669C151.535 290.292 151.25 290.96 151.056 291.657C150.898 292.264 150.851 292.894 150.92 293.517C150.999 294.426 151.38 295.283 152.001 295.951C152.254 296.173 152.519 296.38 152.795 296.571C152.795 296.571 152.704 296.571 152.546 296.488C152.309 296.381 152.089 296.238 151.896 296.065C151.197 295.398 150.755 294.507 150.648 293.547C150.556 292.89 150.587 292.221 150.739 291.574C150.926 290.843 151.214 290.141 151.593 289.488C152.349 288.104 153.506 286.804 154.451 285.299C155.425 283.948 155.854 282.28 155.653 280.627C155.338 279.296 154.892 278 154.322 276.757C153.946 275.889 153.739 274.958 153.71 274.012C153.709 273.758 153.737 273.504 153.793 273.256C153.816 273.075 153.846 272.984 153.861 272.992Z" fill="#263238"/>
<path d="M161.784 272.326C161.829 272.326 161.739 272.689 161.784 273.339C161.889 274.259 162.144 275.156 162.54 275.993C163.153 277.242 163.632 278.552 163.969 279.902C164.2 281.644 163.76 283.409 162.737 284.838C161.769 286.388 160.62 287.666 159.864 289.004C159.494 289.626 159.206 290.295 159.01 290.992C158.853 291.599 158.809 292.229 158.881 292.852C158.958 293.76 159.335 294.617 159.955 295.286C160.208 295.509 160.476 295.716 160.756 295.906C160.756 295.906 160.658 295.906 160.499 295.823C160.264 295.712 160.045 295.57 159.849 295.4C159.15 294.733 158.708 293.842 158.601 292.882C158.509 292.224 158.54 291.555 158.692 290.909C158.885 290.182 159.172 289.483 159.546 288.83C160.302 287.439 161.467 286.139 162.404 284.634C163.376 283.282 163.808 281.616 163.614 279.962C163.293 278.632 162.845 277.336 162.275 276.091C161.903 275.222 161.696 274.292 161.663 273.347C161.664 273.092 161.695 272.839 161.754 272.591C161.739 272.41 161.784 272.326 161.784 272.326Z" fill="#263238"/>
<path d="M51.4081 357.807C51.4081 357.807 41.2172 308.025 51.4081 280.363H62.7481C62.7481 280.363 71.4043 309.537 62.7481 357.807H51.4081Z" fill="#E6682E"/>
<g opacity="0.7">
<path opacity="0.7" d="M51.4081 357.807C51.4081 357.807 41.2172 308.025 51.4081 280.363H62.7481C62.7481 280.363 71.4043 309.537 62.7481 357.807H51.4081Z" fill="white"/>
</g>
<path d="M59.7618 254.523C61.6372 251.313 64.3127 248.645 67.5272 246.778C70.7417 244.911 74.3853 243.909 78.1024 243.871C76.3476 247.379 73.6169 250.305 70.2385 252.298C66.8601 254.291 62.9779 255.266 59.0587 255.105" fill="#455A64"/>
<path d="M62.5667 233.77C59.9927 231.084 58.1603 227.775 57.2486 224.168C56.3369 220.561 56.3771 216.779 57.3654 213.192C60.2573 215.842 62.3212 219.271 63.3084 223.067C64.2957 226.863 64.1641 230.864 62.9295 234.587" fill="#455A64"/>
<path d="M52.3758 234.065C49.3312 232.836 46.6622 230.83 44.6353 228.247C42.6083 225.665 41.2942 222.595 40.8241 219.346C44.1144 220.429 47.0164 222.45 49.1735 225.161C51.3305 227.871 52.6485 231.153 52.9655 234.602" fill="#455A64"/>
<path d="M49.5861 211.96C49.0698 209.623 49.1758 207.191 49.8935 204.908C50.6112 202.625 51.9155 200.57 53.676 198.949C54.3816 201.378 54.3617 203.96 53.619 206.378C52.8762 208.795 51.4429 210.943 49.4954 212.557" fill="#455A64"/>
<path d="M57.456 273.952C57.6918 271.57 58.5482 269.292 59.9398 267.344C61.3314 265.397 63.2094 263.848 65.3864 262.854C65.3039 265.379 64.4849 267.825 63.0302 269.891C61.5756 271.957 59.5487 273.552 57.199 274.481" fill="#455A64"/>
<path d="M45.1182 191.124C45.1182 191.124 47.1594 198.752 49.5408 211.279L50.448 216.201C50.7579 217.909 51.0225 219.701 51.3249 221.553C51.9524 225.243 52.4665 229.219 53.041 233.392C54.0768 241.761 54.9764 250.984 55.5283 260.699C56.0802 270.414 56.1558 279.69 56.0348 288.119C55.9214 292.338 55.8458 296.344 55.6266 300.087C55.5207 301.954 55.4602 303.768 55.3393 305.5C55.2183 307.231 55.0898 308.902 54.9688 310.489C53.9709 323.205 52.7764 330.999 52.7764 330.999C52.7764 330.999 52.7764 330.878 52.7764 330.637L52.9201 329.616C53.0259 328.663 53.1696 327.295 53.3586 325.534C53.4568 324.649 53.5702 323.666 53.6836 322.585C53.797 321.504 53.8953 320.317 54.0087 319.077C54.2204 316.552 54.5228 313.687 54.7118 310.512C54.8176 308.914 54.931 307.251 55.052 305.522C55.1654 303.783 55.2183 301.977 55.309 300.109C55.5207 296.367 55.5812 292.368 55.687 288.157C55.7853 279.735 55.687 270.466 55.1503 260.759C54.6135 251.052 53.7063 241.859 52.6933 233.475C52.1338 229.302 51.6349 225.333 51.015 221.636C50.7201 219.792 50.4631 218 50.1607 216.284C49.8583 214.568 49.5634 212.935 49.2837 211.362C48.747 208.225 48.1346 205.405 47.6508 202.925C47.3937 201.686 47.1594 200.529 46.9477 199.471C46.736 198.412 46.4941 197.444 46.2975 196.575L45.4206 192.568C45.3223 192.122 45.2542 191.812 45.1938 191.525C45.1333 191.238 45.1182 191.124 45.1182 191.124Z" fill="#263238"/>
<path d="M70.1795 209.268C70.1684 209.362 70.1455 209.453 70.1115 209.54C70.051 209.729 69.9754 209.987 69.8696 210.296L68.917 213.245L68.2139 215.377C67.9796 216.133 67.7225 217.01 67.4579 217.925C66.9212 219.762 66.2559 221.833 65.6511 224.169C65.3411 225.333 65.0085 226.55 64.6683 227.821C64.3281 229.091 64.0333 230.421 63.6931 231.797C62.9975 234.541 62.4003 237.505 61.7426 240.62C60.5179 246.864 59.3914 253.774 58.5674 261.077C57.7433 268.38 57.3805 275.373 57.2141 281.738C57.2141 284.921 57.1159 287.945 57.2141 290.773C57.2141 292.186 57.2141 293.555 57.2973 294.87C57.3805 296.186 57.4107 297.441 57.4636 298.65C57.5392 301.062 57.7433 303.232 57.8643 305.137C57.9399 306.089 58.0004 306.981 58.0609 307.798C58.1213 308.614 58.2196 309.355 58.2801 310.066C58.4086 311.389 58.5069 312.425 58.5749 313.15C58.5749 313.49 58.6203 313.755 58.643 313.959C58.6497 314.05 58.6497 314.141 58.643 314.231C58.6174 314.142 58.5996 314.051 58.5901 313.959C58.5901 313.763 58.5296 313.498 58.4918 313.165C58.4011 312.409 58.2801 311.404 58.1213 310.081L57.8719 307.851C57.7963 307.034 57.7207 306.15 57.6375 305.197C57.4939 303.284 57.2746 301.115 57.1763 298.703C57.1159 297.501 57.0478 296.239 56.9873 294.923C56.9269 293.608 56.9117 292.239 56.8739 290.826C56.7832 287.991 56.8739 284.959 56.8739 281.754C57.0176 275.381 57.4107 268.372 58.1969 261.054C58.9832 253.736 60.1625 246.819 61.4099 240.567C62.0828 237.452 62.6876 234.519 63.3982 231.744C63.746 230.368 64.0484 229.03 64.3961 227.76C64.7439 226.49 65.0841 225.28 65.4092 224.116C66.0291 221.788 66.7095 219.716 67.2689 217.887C67.5562 216.972 67.8284 216.125 68.0703 215.339C68.3122 214.553 68.5844 213.827 68.8263 213.222C69.2723 211.967 69.5823 210.954 69.8545 210.289C69.9754 209.971 70.0661 209.722 70.1342 209.533C70.1388 209.443 70.1541 209.354 70.1795 209.268Z" fill="#263238"/>
<path d="M68.5315 214.901C66.0518 212.814 65.9006 208.928 67.1177 205.927C68.3349 202.926 70.6256 200.514 72.5383 197.898C74.4509 195.282 76.0764 192.153 75.6379 188.947C75.4531 188.206 75.3993 187.439 75.4791 186.679C75.6379 185.923 76.3863 185.22 77.1196 185.447C77.8529 185.674 78.0344 186.414 78.1705 187.08C78.5942 189.15 78.7215 191.271 78.5485 193.377C79.0444 192.151 79.8126 191.054 80.7949 190.169C81.7772 189.284 82.9479 188.633 84.2185 188.267C84.4916 189.499 84.4491 190.781 84.0949 191.993C83.7408 193.205 83.0864 194.308 82.1924 195.199C83.8329 194.519 85.5868 193.816 87.3332 194.156C89.0795 194.496 90.6369 196.341 89.9792 197.996C89.2232 199.871 86.6755 199.909 84.6872 200.264C82.4624 200.67 80.4535 201.852 79.0172 203.598C77.2179 205.791 76.4997 208.656 75.0406 211.09C73.5815 213.525 70.7919 215.626 68.1005 214.764" fill="#00A98C"/>
<path d="M47.25 199.524C49.9943 197.815 50.6899 193.982 49.9036 190.845C49.1174 187.707 47.1971 184.993 45.67 182.136C44.1429 179.278 42.9711 175.951 43.8556 172.837C44.1483 172.115 44.3096 171.347 44.3319 170.569C44.279 169.813 43.6439 168.996 42.8804 169.117C42.1168 169.238 41.8371 169.949 41.6103 170.629C40.8992 172.618 40.4766 174.698 40.3553 176.806C40.0376 175.521 39.4312 174.326 38.5824 173.311C37.7335 172.295 36.6645 171.487 35.4565 170.947C35.0127 172.13 34.875 173.405 35.0561 174.656C35.2372 175.906 35.7311 177.09 36.4922 178.098C34.9802 177.191 33.317 176.254 31.5479 176.345C29.7789 176.435 27.972 178.046 28.3878 179.769C28.8566 181.735 31.4119 182.136 33.3094 182.793C35.4533 183.512 37.2759 184.963 38.4578 186.891C39.9244 189.31 40.2419 192.251 41.3381 194.867C42.4343 197.482 44.9065 199.97 47.6961 199.478" fill="#00A98C"/>
<path d="M44.0068 236.953C44.1208 237.104 44.2148 237.269 44.2866 237.445L45.0426 238.881C45.3601 239.508 45.7381 240.28 46.1388 241.194C46.5394 242.109 47.0384 243.13 47.5071 244.294C47.9758 245.458 48.5126 246.721 49.0191 248.112C49.5256 249.503 50.0473 250.984 50.584 252.557C51.5971 255.717 52.5874 259.24 53.4266 262.975C54.2658 266.709 54.8328 270.331 55.241 273.627C55.4224 275.275 55.6114 276.847 55.7022 278.321C55.7929 279.796 55.8912 281.164 55.9441 282.419C55.997 283.674 56.0046 284.808 56.0197 285.806C56.0348 286.804 56.0197 287.658 56.0197 288.361C56.0197 289.064 55.9441 289.548 55.9441 289.979C55.9441 290.41 55.9441 290.538 55.8987 290.538C55.8777 290.35 55.8777 290.16 55.8987 289.971C55.8987 289.571 55.8987 289.034 55.8987 288.361C55.8987 287.688 55.8987 286.804 55.8534 285.806C55.808 284.808 55.808 283.681 55.7173 282.434C55.6266 281.187 55.5736 279.811 55.43 278.344C55.2864 276.877 55.1276 275.32 54.9386 273.672C54.5077 270.391 53.9104 266.792 53.1015 263.088C52.2926 259.384 51.2796 255.853 50.2892 252.693C49.7676 251.121 49.2837 249.624 48.7772 248.248C48.2707 246.872 47.7793 245.587 47.3106 244.422C46.8418 243.258 46.3958 242.222 46.0102 241.308C45.6247 240.393 45.2542 239.607 44.9745 238.972L44.3092 237.497C44.1914 237.326 44.0901 237.144 44.0068 236.953Z" fill="#263238"/>
<path d="M45.8817 244.233C47.2501 243.122 47.3937 241.005 46.7284 239.365C46.0632 237.724 44.8687 236.386 43.8481 234.942C42.8275 233.498 41.9732 231.782 42.2378 230.043C42.3439 229.637 42.3797 229.215 42.3436 228.796C42.2605 228.38 41.8598 227.995 41.4591 228.108C41.0584 228.221 40.9526 228.63 40.8694 228.992C40.6213 230.116 40.5348 231.269 40.6124 232.417C40.356 231.746 39.9506 231.143 39.4267 230.652C38.9029 230.16 38.2743 229.795 37.5884 229.582C37.4311 230.249 37.4441 230.945 37.6265 231.606C37.8088 232.266 38.1545 232.87 38.6317 233.362C37.7779 232.892 36.8064 232.68 35.8345 232.75C34.8895 232.916 34.0201 233.914 34.3225 234.814C34.7156 235.849 36.1066 235.887 37.1877 236.099C38.3945 236.346 39.4774 237.006 40.2495 237.966C41.2096 239.176 41.5801 240.741 42.3512 242.079C43.1223 243.417 44.6192 244.596 46.1312 244.143" fill="#00A98C"/>
</svg>
